<mxfile host="app.diagrams.net" modified="2023-09-08T16:39:54.814Z" agent="Mozilla/5.0 (Windows NT 10.0; Win64; x64) AppleWebKit/537.36 (KHTML, like Gecko) Chrome/116.0.0.0 Safari/537.36" etag="bKEG2VYgQKRn-YycWFxI" version="21.7.3" type="device">
  <diagram name="Страница — 1" id="OH7qJxdsPUunQeAS1uBM">
    <mxGraphModel dx="2514" dy="929" grid="1" gridSize="10" guides="1" tooltips="1" connect="1" arrows="1" fold="1" page="1" pageScale="1" pageWidth="827" pageHeight="1169" math="0" shadow="0">
      <root>
        <mxCell id="0" />
        <mxCell id="1" parent="0" />
        <mxCell id="aWLDNn_hWw4ynje5LRLr-1" value="&lt;pre style=&quot;unicode-bidi: isolate; font-size: 28px; line-height: 36px; background-color: rgb(248, 249, 250); border: none; padding: 2px 0.14em 2px 0px; position: relative; margin-top: -2px; margin-bottom: -2px; resize: none; font-family: inherit; overflow: hidden; text-align: left; width: 270px; overflow-wrap: break-word; color: rgb(32, 33, 36);&quot; dir=&quot;ltr&quot; id=&quot;tw-target-text&quot; data-placeholder=&quot;Перевод&quot; class=&quot;tw-data-text tw-text-large tw-ta&quot;&gt;Facade&lt;/pre&gt;" style="text;html=1;align=center;verticalAlign=middle;resizable=0;points=[];autosize=1;strokeColor=none;fillColor=none;" vertex="1" parent="1">
          <mxGeometry x="250" y="8" width="300" height="50" as="geometry" />
        </mxCell>
        <mxCell id="aWLDNn_hWw4ynje5LRLr-2" value="" style="shape=image;verticalLabelPosition=bottom;labelBackgroundColor=default;verticalAlign=top;aspect=fixed;imageAspect=0;image=https://sbcode.net/python/img/facade_example.svg;" vertex="1" parent="1">
          <mxGeometry x="113" y="80" width="601" height="539" as="geometry" />
        </mxCell>
        <mxCell id="aWLDNn_hWw4ynje5LRLr-4" value="Паттерн Command" style="text;html=1;align=center;verticalAlign=middle;resizable=0;points=[];autosize=1;strokeColor=none;fillColor=none;fontStyle=1;fontSize=21;" vertex="1" parent="1">
          <mxGeometry x="240" y="720" width="220" height="40" as="geometry" />
        </mxCell>
        <mxCell id="aWLDNn_hWw4ynje5LRLr-6" value="" style="shape=image;verticalLabelPosition=bottom;labelBackgroundColor=default;verticalAlign=top;aspect=fixed;imageAspect=0;image=data:image/jpeg,/9j/4AAQSkZJRgABAQAAAQABAAD/2wBDAAMCAgMCAgMDAwMEAwMEBQgFBQQEBQoHBwYIDAoMDAsKCwsNDhIQDQ4RDgsLEBYQERMUFRUVDA8XGBYUGBIUFRT/2wBDAQMEBAUEBQkFBQkUDQsNFBQUFBQUFBQUFBQUFBQUFBQUFBQUFBQUFBQUFBQUFBQUFBQUFBQUFBQUFBQUFBQUFBT/wAARCAEUAZ0DASIAAhEBAxEB/8QAHwAAAQUBAQEBAQEAAAAAAAAAAAECAwQFBgcICQoL/8QAtRAAAgEDAwIEAwUFBAQAAAF9AQIDAAQRBRIhMUEGE1FhByJxFDKBkaEII0KxwRVS0fAkM2JyggkKFhcYGRolJicoKSo0NTY3ODk6Q0RFRkdISUpTVFVWV1hZWmNkZWZnaGlqc3R1dnd4eXqDhIWGh4iJipKTlJWWl5iZmqKjpKWmp6ipqrKztLW2t7i5usLDxMXGx8jJytLT1NXW19jZ2uHi4+Tl5ufo6erx8vP09fb3+Pn6/8QAHwEAAwEBAQEBAQEBAQAAAAAAAAECAwQFBgcICQoL/8QAtREAAgECBAQDBAcFBAQAAQJ3AAECAxEEBSExBhJBUQdhcRMiMoEIFEKRobHBCSMzUvAVYnLRChYkNOEl8RcYGRomJygpKjU2Nzg5OkNERUZHSElKU1RVVldYWVpjZGVmZ2hpanN0dXZ3eHl6goOEhYaHiImKkpOUlZaXmJmaoqOkpaanqKmqsrO0tba3uLm6wsPExcbHyMnK0tPU1dbX2Nna4uPk5ebn6Onq8vP09fb3+Pn6/9oADAMBAAIRAxEAPwD9U6KKKACiiigAooooAKKKKACiiigAooooAKKKKACiiigAooooAKKKKACiiigAooooAKKKKACiiigAooooAKKKKACiiigAooooAKKKKACiiigAooooAKKKKACiiigAooooAKKKKACiiigAooooA8r+K/xX8TeD/HHhfwr4V8L6T4h1DWdO1HU5JdY1uXTIoIrSWzjIBjtLguzG9XjCgBDycisX/hZvxk/6Jx4G/wDC6vP/AJT0fE3/AJOW+HH/AGKPiT/0s0Ourr0qFCFSHNI8rE4mpSqcsTlP+Fm/GT/onHgb/wALq8/+U9H/AAs34yf9E48Df+F1ef8Aynrq68W+Nvxc8TeFfiv8J/h34VXSbPUPHE2qNJrGsWkt5FaRWVr5xUW8c0JdpCyjd5oChT8rbht2eGpRV2c8cXWk7Kx33/CzfjJ/0TjwN/4XV5/8p6P+Fm/GT/onHgb/AMLq8/8AlPXyv8b/ANprx58BPi7rVh4g8TWN5pGk/DqHXZ003wyHt2vZdejs1lW2e8SU/uZFQqbwLkF8H7lem/8ADdHw0/4W3/wgHmX327/hI/8AhFPt+628v+0cY8v7P5/2vy/N/c+f9n8nzON+35qz9jQvZ6Gnt8Ra61PW/wDhZvxk/wCiceBv/C6vP/lPR/ws34yf9E48Df8AhdXn/wAp6+frj9vzw/rXw0bxBonhrXdGuta8O69rHhS48RW9u1pqc+lwu88TLbXMkke0oSfMEYYI21slc+0/s/8AxH1f4s/CHwv4q1zQJ/D2oanp1rdSRSGHyrgyW8chngEc0pWFi52rKVkAX5lHGaVCjJ2RMsRiIq8jY/4Wb8ZP+iceBv8Awurz/wCU9H/CzfjJ/wBE48Df+F1ef/KeurorT6rTM/rtUZ8GPibrPxGj8X23iDQLHw9q/hvWhpE8Gm6o+oW8u6xtLtZFle3gb7t2qlSnBQ8nNejV4z+z3/yN3xu/7HOD/wBMGj17NXkTSjNpHt05OUIyfVBRRRUGgUUUUAfOngP4+/Fj4h+B/DvirTvhn4Nh0/XNOt9TtorrxxdrKkU0SyIHC6QQGAYZAJGc4Jrd/wCFm/GT/onHgb/wurz/AOU9c7+y/wD8m0/CX/sUdI/9I4q9Nr2I4Wm0meFLGVU2jlP+Fm/GT/onHgb/AMLq8/8AlPR/ws34yf8AROPA3/hdXn/ynr5+1X9rnWfhn8QPj63jmOxvvA/w0/sjyY/D2lOupXP9pFDDuaW78s+UG2NhV353jZjyz19/+2Z4S0K41e01/wAP+JPD2oaHrumaJrltfQ2rLo66hHvtb66uIrh4EtT91nEpZWwCg3LmPY0C/rGI6f1/V0epf8LN+Mn/AETjwN/4XV5/8p6P+Fm/GT/onHgb/wALq8/+U9eW2H7ZnhLXbjSLTQPD/iTxDqGua7qeiaHbWMNqq6wunx77q+tbiW4SB7UfdVzKGZsgIdrY8ptv29NGvPjZo2rW+s30/wANNa+HS6vpnhyPTUbUr7W21ZrRbWCMDzJLglHiEauYzsZ87AZKHRoIar4l9D6o/wCFm/GT/onHgb/wurz/AOU9H/CzfjJ/0TjwN/4XV5/8p68a+If7enw5+Fni278O+JbbVtO1DTIdPl1lJHst2ltdhWWNovtPm3TRo6vJ9jS4VFYHceld18Lv2jdB+LfjjxR4Y0XQ/EkU/hvUdQ0u/wBSvNNKaeJ7SWGNkW5VmRmkMxZEzv2xOzqg2b2qFBuxLxGISu1odX/ws34yf9E48Df+F1ef/KeqGrfHT4l+FJNHufEHw88KQaRea1pmkTz6b4xubm4h+2X0FosixPpcavtadWKl1yFPNd1Xnfx2/wCRR0D/ALHPwr/6f9PonhqcYNoKeLqynGL6s+h6K801b4++HU1W80fw1Zax8QddtJntZrLwrZG5hhuI2Imt5r5yllbTxgFmhnuI5MbQFLSRq9X/AIWx4v8ACnPjn4aahbWg+eTV/BV0fENnAh+VFeIRQ3zyl+CsNnKiq6MZAPM8vyT2z1WiuU8C/FXwh8S/tyeGPEen6xd6fsGoWEEwF5pzvuxFd25xLbS5R1Mcqo6sjqVBUgdXQAUUUUAFFFcV41+Id94D1WKS88J6xqvhh4Q0ms6BA2oTWku5gUmsowbhlbMIRrdJzlpDIsKRh3AMD4r/ABX8TeD/ABx4X8K+FfC+k+IdQ1nTtR1OSXWNbl0yKCK0ls4yAY7S4LsxvV4woAQ8nIrF/wCFm/GT/onHgb/wurz/AOU9c/rHj/w78Rf2gfh7qHhzVrfVLeDwv4mtbpIiVms7hbvQWe3uImAeCdA674ZVWRCcMoPFel16VChCpDmkeVicTUpVOWJyn/CzfjJ/0TjwN/4XV5/8p6P+Fm/GT/onHgb/AMLq8/8AlPXjXgb42eP/AIy2/jXxVoWo+DfAfw38P6jeabZa3rllcasurxWskgm1FJkubSGO1KhNpUyjck2XAUZLf9vHwA76295pHiTR9P0/wvP4xtdR1W2t7WLVdNS5+zRSWyvOJN1xIQIUlSMuGQ8b1zfsaJl9YxGyPZf+Fm/GT/onHgb/AMLq8/8AlPR/ws34yf8AROPA3/hdXn/ynrwfV/8AgoJ4S8PaZ4wutW+H/wAQdLn8Jw6bc6xZXWmWqy2kN8qm3Zz9p2KxMkIMTMJQZDiMiKYx7vjL9t3wb4L8a32gzeHPFerWNl4jtPCk3iHRrGG8sP7TuI/MFtHsmM0skYDCSOOJnRl2ldzIGPY0O4e3xPY9b/4Wb8ZP+iceBv8Awurz/wCU9H/CzfjJ/wBE48Df+F1ef/KevN9L/a+8IX3w/wDFHim7sL7QP+Ed8RzeFbrS9ev9MsLiXUIghliillvFtm2q7N/rhkRSbQcDPMp+354GvfBXhvxJpXhrxXrcetaRqmvvp9hb2bXemafYSPHPc3atcqsUbNHII23HeUKj58KX7Gh3D6xiH0Pbv+Fm/GT/AKJx4G/8Lq8/+U9H/CzfjJ/0TjwN/wCF1ef/ACnrxrxt+3J4S8PeB5tf0PQ9W8TzweF4PFN7bRS2trFpENzEj2cN9cSzBIppzIAkMXnSsAWWNwU3em/s9N4wm+CXgy58f6lPqvjG806O91Ka609LCWOWb975DwIAEaIOsR4BJjJIBJAFQot2Qnia8VdnoHwY+Jus/EaPxfbeINAsfD2r+G9aGkTwabqj6hby7rG0u1kWV7eBvu3aqVKcFDyc16NXjP7Pf/I3fG7/ALHOD/0waPXs1eZNKM2kevTk5QjJ9UFFFFQaBRRRQAUUUUAeI/E3/k5b4cf9ij4k/wDSzQ66uuU+Jv8Ayct8OP8AsUfEn/pZoddXXtYX+GeBjP4oV558T/gnpfxN8ReEfEh1fVvDnifwpNcy6TrOjtAZYVuITDPGY7iKWF1ddv3oywKDay859DorqaT0ZxJtO6Pnn4lfsUeF/i9NqN34t8W+K9W1PUfDsfhi61DzLGGSS2j1JdQR9sdqsYkEiLHkIB5Y5Xdl67Dwx+z7beBPFuu6x4W8Y+JPD2n67rr+ItT0C3FjNZXN3II/PJae1knVZfLBZUmXG5tmzjHq1FTyRvexftJNWvofPOjfsNfDvSvDPw98PzXWu6npHgu01ywtLe7u4x9sg1VHS7S4aONGPyyMEMZjK8ZJr1b4T/DhfhN4H03wrBr+reIdP0yGO1sZdYFt5tvbRxJHHADBDEGVQn3nDOSxyx4x2FFNQjHZClOUtGwoooqiDnP2e/8Akbvjd/2OcH/pg0evZq8Z/Z7/AORu+N3/AGOcH/pg0evZq+fq/wASXqz6ej/Dj6IKKKKyNgooooA+b/2X/wDk2n4S/wDYo6R/6RxV6bXmX7L/APybT8Jf+xR0j/0jir02vo4/Cj5SfxM+efGn7FHhfx9d/FObV/FviuWP4j/Yv7Zt45LFEj+xyxvaeQRa7k8tY/KG4tuRmL7nw46bX/2W/BvifUPi9dam99ef8LOtLO01eGYwvHbfZbdoYJbZWiOyRciQM+/EiKwAxivYKKXJHt/X9Mr2k+/9af5I8Wb9k/wlZaD8MrHQNQ1bwrqHw7hmg0PWdI+yi5VZ4PJujLHLA8EjTffdjFuL5YFdzZ4+2/4J6/Cmzi0Zbc67BJovh1fD+mXMd8q3FjIt618upQShN8d4Lh3cOrCMB2Ty9hK19M0UvZw7Aqs11PH1/Zyj07xrrXi3QvH/AIr8OeIdftLG21y8sU02X+1JLSNooriRJ7OVI5NjYIhEcZwDsByT0/wq+D+jfCH/AITD+xrm+uf+Eo8R3nie8+3SI/l3Nzs8xI9qLiMbBgNuPXLGu5oqlFLUlzk1ZhXmH7Rmk2Ov/DzTdM1Ozt9R0298W+GLa6s7uJZYZ4n16wV43RgQyspIKkEEEg16fXnfx2/5FHQP+xz8K/8Ap/0+pq/w5ejLo/xI+qOy/wCFK6p4R+b4ceNtQ8JWkfMHhvU7ddW0JCflIWCQpcwxLHtWO3tbqCCMxoVjxvWQ/sb4v+Mvl1XXfD/w3sG/dyW/haNtZ1E4+YSxX15FFBFuOEaJ7Gb5VYiQNIpi9Vor54+oPKv+GYvh5qv73xbov/CyL9vma88dSnWdkh5kkghuN0Fn5hwWS1jhjO1AECxoqn/DJ3wQ/wCiN/D/AP8ACXsf/jVeq0UAeVf8MnfBD/ojfw//APCXsf8A41R/wyd8EP8Aojfw/wD/AAl7H/41XqtFAHlX/DJ3wQ/6I38P/wDwl7H/AONV5/4p/Y18J+KddurCw+HPwv8ABHhaPbs1TS/Cdhf6zeZUMdguLX7NZ7JAVO6O781HOPs7AGvpWigD5G8O/s6+Av2ef2gfBdp4J0K30y41bwv4iutUvljRZr6YXehjewRVSNclysMKRwxmR/LjQMRXu1eb/H3w7qHib9oP4Z2uneKNW8JTp4X8Ryte6PFaSSuou9FHlkXUEybSSDwobKjDAZBi/wCFS+Kf+i1eOv8AwC0H/wCVlexhW/Z7HhYxJ1dzmfAP7Juk/D74Sar8MrTxt4r1DwPfaRfaOul3x08/ZUuy5lljljtEkMmZJMb2dBvPynC4wh+wd4AuvCUnh/V9X8Sa/BPDpunT3epXNu1zJpNiY2t9KR0gUQWvmRJI/kCOWRxuaUmvQ/8AhUvin/otXjr/AMAtB/8AlZR/wqXxT/0Wrx1/4BaD/wDKyt+WO3L/AF95zc8r35v6+45nxX+x94N8b/8ACd/23qeu3v8AwnOr2GpeIf38Mf223ssfZdP+SIeXbptHzR7Z2x80zUaT+x94N07+wvtGp67qn9neLp/Hd19rnhX+1Nbkzsurjy4k2+Vn5I4PKjOBvR+c9N/wqXxT/wBFq8df+AWg/wDyso/4VL4p/wCi1eOv/ALQf/lZT5VvyhzS25vz/wAjzy5/YX8JNcaZqNj4w8ZaL4ks9R1rV5fEOm3lrHe3d3qsaRXczk2xjjby41RPISLZjcPn+ajw/wDsHeAPCvh3V9I0rV/ElmmoeF/+EOS6FzbvLaaa8zT3ccW6AqWuZpJXkeRXKmQiHyVCqvof/CpfFP8A0Wrx1/4BaD/8rKP+FS+Kf+i1eOv/AAC0H/5WUuSP8o/aS/m/r7jzzVP2DvAGo3HiK3j1fxJYeGPEMOjWuq+F7e5tzZXVtpccUdnAZHga5RQsS7mSdXbLfN0x9IV5l/wqXxT/ANFq8df+AWg//Kyj/hUvin/otXjr/wAAtB/+VlUko7RIk3LeX5/5HVfs9/8AI3fG7/sc4P8A0waPXs1eDfsraRdaFqfxmsb3W77xFdReM4t+paklulxNnQtII3CCKKMYBCjai8KM5OSfea8Kr8cvVn0dH+HH0QUUUVmahRRRQAUUUUAcp46+E/gf4ofYf+Ey8G+H/Fv2Hf8AZP7d0uC9+z79u/y/NRtu7YmcYztXPQVyv/DJ3wQ/6I38P/8Awl7H/wCNV6rRQB5V/wAMnfBD/ojfw/8A/CXsf/jVcpqX7IPwQk+Kfh68/wCEC+H9p5WjanF/wjP/AAjliPt++ewP2zZtGfs+zy87Gx9txuXdh/oCuK1a98Op8aPCtpc2FxJ4sl8P6vLp98rHyYbJbnTRdxsN4BZ5Hsip2HiJ/mXOHAOf/wCGTvgh/wBEb+H/AP4S9j/8ao/4ZO+CH/RG/h//AOEvY/8AxqvVaKAPKv8Ahk74If8ARG/h/wD+EvY//Gq801/9mT4PQ/tJeBdMj+FHgdNNufCXiG5ns18OWYhlljvNFWORk8vDMizShWIyBI4GNxz9QV5V4j/5On+Hn/YmeJf/AEu0KgA/4ZO+CH/RG/h//wCEvY//ABqj/hk74If9Eb+H/wD4S9j/APGq9VooA5/wV8PfCvw10qXTPCPhrR/CumyzG5ks9EsIrOF5SqqZCkaqCxVEG7GcKB2FdBRRQAUUUUAFFFFAHlX/AAyd8EP+iN/D/wD8Jex/+NUf8MnfBD/ojfw//wDCXsf/AI1XqtFAHlX/AAyd8EP+iN/D/wD8Jex/+NUf8MnfBD/ojfw//wDCXsf/AI1XqtFAHlX/AAyd8EP+iN/D/wD8Jex/+NUf8MnfBD/ojfw//wDCXsf/AI1XqtFAHlX/AAyd8EP+iN/D/wD8Jex/+NUf8MnfBD/ojfw//wDCXsf/AI1XqtFAHlX/AAyd8EP+iN/D/wD8Jex/+NVa0n9mT4PaBqtnqemfCjwPp2pWUyXNreWnhyzimglRgySI6xgqysAQwIIIBFel0UAFFFFABRRRQAUUUUAFFFFAHiPxN/5OW+HH/Yo+JP8A0s0OuB+N3xd8WeEtT0XQPDngXxJeahqeu2FrZapayaV9lvokYXl9Agnu1dGNlb3qBpI0G9RtYZRq774m/wDJy3w4/wCxR8Sf+lmh10Mml2U2p2+ovaQPqFvDJbw3bRKZY4pGRpEV8ZCsYoiwBwTGhP3Rj2MMm6VkzwsW0q12rngfiT48+P734gW2meGvBf8AZnh7S9X0fSvEGoeIZLEhJ7w2kk1urLqMZjkigvIQrJHciaaTy1UBA0hr37R/iPSLvxtHYeH7HxFH4X1eHTojZ3ccT65JeSpa2FtArSnyNl5K9tcXUhaMPYzCONnaSO09g/4Vf4N/4TX/AITH/hEtC/4S7/oP/wBmw/b/APV+V/x8bfM/1fyfe+78vTii9+F/g3UtEl0a78JaFdaRLaW2nyafNpsL2721sxe2gMZXaY4mZmRMYQsSoGa6OWXc5eaGmh4/4E+LXxO8S6hc+DdVtNC0PxxLeXksF3d2SPDZ6fbW+nPIbizttSuD9oeXUY1SL7Un7phMSMLFLV8TftQXvgTwPJqusS6TeahJruoWVlb2tu0MtzY6PE7a1ObdrhirE2GoiDbI6gz2CykbpCPYIvg34Aht/D8Efgfw3HB4ema40aJdItwumStIJGe2GzELGRVclMEsAeoot/g34AtNT1vUYPA/huHUNchnt9Vu49It1l1CKZt0yTuEzKsh5YOSGPJzRyy6MOaF9UfPOt/En42fCPwlN4Tgt9J8b+NdF0L/AISXXfEs0UcWmWwnM+yGU3ep27bWmtr12uI9kcEUcapahSFj6bxHFoPiK3+IHxj8ReH4PFr6HDqnhfwv4dv5C0cqwySWdzAsDCRBdX16ktsGRWaSD7JGFDNIjewXHwb8AXep6JqM/gfw3NqGhwwW+lXcmkW7S6fFC26FIHKZiWM8qEICnkYqtpnwf0bTotPtnub6902z1e/11dOuZENvLe3V694JZFCAv5EsshhUnapKOQ0sUUiLkZXtI9jc8B+H73wl4H8O6HqOrz+IdQ0zTreyudXut3m30scSo877mY7nKljlmOWOSetbtFFbbHO9TnP2e/8Akbvjd/2OcH/pg0evZq8Z/Z7/AORu+N3/AGOcH/pg0evZq+fq/wASXqz6ej/Dj6IKKKKyNgooooAKKKKACiiigArn7298RJ4+0a0trC3k8Jy6ZfS6hfMw86G9WW0FpGo3glXje9LHYeYk+Zc4foK5TUrHzPin4evP+En+yeVo2pxf8Iz5uPt++ewP2zZvGfs+zy87Gx9txuXdhwDq6KKKACvKvEf/ACdP8PP+xM8S/wDpdoVeq15V4j/5On+Hn/YmeJf/AEu0KgD1WiiigAooooAKKKKACiiigAooooAKKKKACiiigAooooAKKKKACiiigAooooAKKKKACiiigDlPHXwn8D/FD7D/AMJl4N8P+LfsO/7J/bulwXv2fft3+X5qNt3bEzjGdq56CuV/4ZO+CH/RG/h//wCEvY//ABqvVaKAPKv+GTvgh/0Rv4f/APhL2P8A8ao/4ZO+CH/RG/h//wCEvY//ABqvVaKAPKv+GTvgh/0Rv4f/APhL2P8A8ar5/wDFnwa+Fln8ZZtbtvhF8P08GeFda03wRqenHw1aiW6utVFs5uFjCeW/lS3eiLHIxVkjk1UbWLQ5+tfH/jWx+HXg3VvEeoRXF1b2EJkWzslV7m8lJCxW1ujMoknmkZIo48gvJIijlhXKeA/hDDbfAaDwF4zjt9WuNW0y4i8Um0mkWHUL293yanIjDYyLNPPcOAgTaJAFVAAoAKv/AAyd8EP+iN/D/wD8Jex/+NUf8MnfBD/ojfw//wDCXsf/AI1Wr8C/FOqeJfhxp1v4kuvtPjPRM6L4jYxrEW1K3ASaYRqF2RT/AC3MOVTdBcQvsUOBXoFAHlX/AAyd8EP+iN/D/wD8Jex/+NUf8MnfBD/ojfw//wDCXsf/AI1XqtFAHP8Agr4e+FfhrpUumeEfDWj+FdNlmNzJZ6JYRWcLylVUyFI1UFiqIN2M4UDsK6CiigAooooAKKKKACiiigAooooAK4rVr3w6nxo8K2lzYXEniyXw/q8un3ysfJhsludNF3Gw3gFnkeyKnYeIn+Zc4fta5+9vfESePtGtLawt5PCcumX0uoXzMPOhvVltBaRqN4JV43vSx2HmJPmXOHAOgooooAK8q8R/8nT/AA8/7EzxL/6XaFXqteVfEvwv44/4Wn4Q8ZeDdL8P63/ZejatpF3Za7rM+m/8fc+nSpJG8Vpc7tv2FwVKr99SCcEUAeq0V5V/wkfxv/6J58P/APwvL7/5TUf8JH8b/wDonnw//wDC8vv/AJTUAeq0V5V/wkfxv/6J58P/APwvL7/5TUf8JH8b/wDonnw//wDC8vv/AJTUAeq0V5V/wkfxv/6J58P/APwvL7/5TUf8JH8b/wDonnw//wDC8vv/AJTUAeq0V4/q178Ydf0q80zU/hh8N9R029he2urO78b3ksM8TqVeN0bRSGVlJBUgggkGvnXwn8TfjevirRrb4TWWn+PfDcl7DHcwXviy+1vQoLAuPtM9vrdxpMDzyq+VOL69aMtKi2riLbCAa/7Of7Ofwn1z9nz4YajqPww8G6hqF54X0u4ubu68P2kks8r2kTO7u0ZLMxJJJOSSSa7rVP2c/gdoemXeo6j8MPh9p+n2cL3Fzd3Xh+xjigiRSzu7tGAqqASSTgAEmrP7L/8AybT8Jf8AsUdI/wDSOKrX7Rml3uufs+fE/TtOtJ9Q1C88L6pb21paxNJLPK9pKqIiKCWZiQAAMkkAV9AoxUL2PmXKTna/U4/wX8L/ANmn4kfbP+ES8JfCnxT9i2fav7F03TLzyN+7Zv8ALVtu7Y2M4ztOOhrpv+GX/g3/ANEl8Df+E3Z//Gq+U/hH8P8A4reDdQtdZv8ARb6PxpP8GLbw34FvdK0to7S0uIbf7Q1pqqzlxb3iT+SqPKUgkCuCA58tcLStJ+N1n8AvFt54Y8bfEG/8d3XguzWbwzqHhnW7eWC7SeA3c8N/qUsqtdCGS6j2Whj8w7XijDRpjFTVtYmzg76TPsn/AIZf+Df/AESXwN/4Tdn/APGqzP8AhQ/wC/4Sb/hHP+Fd/Df/AISH7J/aH9k/2Jp/2v7Nv8vz/K2b/L3/AC78YzxnNeGfGK38RXUvw0i+HN/8SNM+HTavqf8Awk91qVj4nvL5Lj7Ehs90Jmh1NrcnzAPJkWASEF8kYOFp3w5+L/jXxI/hC1+I/wAQbnT3+FMsFh4yu7PUPDsb61FrLNbGeORS0c3kxxxSMQZpYN75PmbqpyV7KJKi7Xcj6j/4Zf8Ag3/0SXwN/wCE3Z//ABqj/hl/4N/9El8Df+E3Z/8AxqvkmaP9orxh8Eh8QtYuPEnh3XvF3jTSl1nw1pEGo40LQLbdbyNDYK63kbSzBZZltZQ8kZQhkBkxp2Xgb4m694y+E/hm0+JnxPu/Cl9qPihNX1200TUtDl0y2ksoHtraQ6gJpHVZGlWG4uGkcFysbh4gVOdfyj5Jfz/n0PqP/hl/4N/9El8Df+E3Z/8AxquO+KPwH+GngzTPC+s+H/h34U0LV7bxn4X8jUNN0S2t7iLdrtijbZEQMuVZlODyCR3r36vO/jt/yKOgf9jn4V/9P+n1dWMeSWnRmdGcnUjr1R9D0UUV4B9KFFFFABRRRQAUUUUAFFFFABRRRQB4/wDH1PEt/qvgaz07wTrHjHwxb6mNZ1iLRLmwjmaW0aOWwgIu7m3wv2kx3PmRuSDYiJkZJ2IqXP7RutWnirTvDcvwT+ICa1qFlc6hbW32rQD5kFu8Ecz7hqm0bWuoBgkE7+AQGx7XXlXiP/k6f4ef9iZ4l/8AS7QqAMn4WXPiuT4y+K7+X4deIPB/hbxFZQ6heSa7d6Y+3VoBHbb4xa3lw7+farApB8tIv7PUgO1w5HtdFFABRRRQAUUUUAFFFFABRRRQAUUUUAFFFFABXKalY+Z8U/D15/wk/wBk8rRtTi/4Rnzcfb989gftmzeM/Z9nl52Nj7bjcu7D9XXFate+HU+NHhW0ubC4k8WS+H9Xl0++Vj5MNktzpou42G8As8j2RU7DxE/zLnDgHa0UUUAFFFFABRRRQAUUUUAFFFFAGT4p8J6H450K60TxJo2n+INFutvn6dqlqlzbzbWDrvjcFWwyqwyOCoPUVrUUUAfFn7Ofx28N6R+z58MLCfTPGUk9r4X0uCR7XwPrVxEzLaRKSksdoySLkcMjFSMEEgg16H/w0P4W/wCgV46/8N/r3/yFR+y//wAm0/CX/sUdI/8ASOKunT4m+FP+Ff2Pjm41+x07wje2lvfw6xqUws7fyJwhhdml27N3mIAGwcsBjPFfQRvyrU+YlyuT0f8AXyOY/wCGh/C3/QK8df8Ahv8AXv8A5Co/4aH8Lf8AQK8df+G/17/5Crp7z4oeDdO/4Rz7X4t0K1/4STZ/YnnalCn9qbtm37Nlv32fNjxsznzF/vDPMeA/2i/A3xG8M6T4g0jW7E6ReaRPrFzcTalZj+y0hS2eaK6UTFo5I1u4zJgMkePnZd0e93e11/XzFZb2f9fIP+Gh/C3/AECvHX/hv9e/+QqP+Gh/C3/QK8df+G/17/5CrUv/AI8fDTStE0rWb34ieFLPSNW83+z9QuNbtkt7zymCS+TIX2ybGIVtpO0nBxVXxV8VL3StT8U22h+G5/EqeGNOiv8AUvskrGWSV23/AGK2RI3826Fujy+UxjOZrIZ23JkiLvuHKuz/AK+RV/4aH8Lf9Arx1/4b/Xv/AJCo/wCGh/C3/QK8df8Ahv8AXv8A5Cr0PS9Ustc0y01HTruDUNPvIUuLa7tZVkinidQyOjqSGVgQQQcEEEVaqve7k+72/r7jzL/hofwt/wBArx1/4b/Xv/kKuO+KPxl0DxXpnhfSrLT/ABXBdXHjPwvsk1Lwfq9hbjbrtix3Tz2qRpwpxuYZOAMkgH36vO/jt/yKOgf9jn4V/wDT/p9Z1ebklr0ZrRcfaR06r+tj6HorzTVvj74dTVbzR/DVlrHxB120me1msvCtkbmGG4jYia3mvnKWVtPGAWaGe4jkxtAUtJGr9r4Wudcu9CtZfEmnafpWtNu8+z0u/e+t4/mIXZM8MLPldpOY1wSRyBuPgH0prUUUUAFFFFABRRRQAUUUUAFFFFABXlXiP/k6f4ef9iZ4l/8AS7Qq9VryrxH/AMnT/Dz/ALEzxL/6XaFQB6rRRRQAUUUUAFFFFABRRRQAUUUUAFFFFABRRRQAVz97e+Ik8faNaW1hbyeE5dMvpdQvmYedDerLaC0jUbwSrxveljsPMSfMucP0FcpqVj5nxT8PXn/CT/ZPK0bU4v8AhGfNx9v3z2B+2bN4z9n2eXnY2PtuNy7sOAdXRRRQAUUUUAFFFFABRRRQAUUUUAFFFFAHyn8EPBmn+Of2VvhBYajcatbQR+F9HnV9H1i70yUsLGNcGW1ljcrhj8pYqTgkZAIwvDf7Oeu+BPgd4V8M6JrF9c63Z2mnQ63ZTeL9Vt7TUPItmjaG2uwZJdPjEzrMDbRJvECwsoRzt6z4X+Afjf8ADf4aeEvCX/CJ/D/Uf7A0i00r7Z/wmd9F5/kQpF5mz+yW27tmduTjOMnrXTfZfjf/ANCP8P8A/wALi+/+U9ewq1Gyu9TwnQrpuy09f+CeW/BP4NeOfg7qKXqWmhan/bG+31WC48QXkj6bANX1O+R4biS1eS+kMeqFW87ySXgyXbzCUzB+zn4yl0D4e6ZJNoSf8IDpCaVYSreTN/av2S/0S7tZJR5A+y+d/ZMqSKpm8nzUKmfBFey/Zfjf/wBCP8P/APwuL7/5T0fZfjf/ANCP8P8A/wALi+/+U9HtaFrXD2OIvzcuvy/zOK8A/CPxNp3xin+IWutpNpPqcOpte6Xp93LcrayzxaJbwrHM8MZmXy9HeRmZIyrTKgVwpc8x8I/Dfib9mrwXrHh+XQZ/FeqNoWk31gdLWU217qUGnWelSWHmiNhCvmWlrIJ5gg2XcjbQlrM49c+y/G//AKEf4f8A/hcX3/yno+y/G/8A6Ef4f/8AhcX3/wAp6PbUd1IPYV9nH8V/mXvhf4L/AOFb/DTwl4S+2f2j/YGkWmlfbPK8rz/IhSLzNmW27tmduTjOMnrXTVxf2X43/wDQj/D/AP8AC4vv/lPR9l+N/wD0I/w//wDC4vv/AJT1axFJaX/MzeFrt3cfyO0rzD9ozSbHX/h5pumanZ2+o6be+LfDFtdWd3EssM8T69YK8bowIZWUkFSCCCQa2/svxv8A+hH+H/8A4XF9/wDKesjxL4C+MPjxdD03U/DXgfR9Nt/EGj6rdXlp4svLuZYrPUba7dUibTIg7MtuVALqMsCTxU1MRSlBpPoXTwtWM4trquxm6t/wT6+GOn6rear4M8PeF9EuLmZ7p9I17wpYa3pEk0jHzHaOVFuo12kBIbe7ghRkQiPHmLJ6BpP7Kfwem0qzk1P4J/Dez1J4Ua6t7Tw9ZzwxSlRvRJGt0LqGyAxRCQASq5wPYKK8Y948q/4ZO+CH/RG/h/8A+EvY/wDxqj/hk74If9Eb+H//AIS9j/8AGq9VooA8q/4ZO+CH/RG/h/8A+EvY/wDxqj/hk74If9Eb+H//AIS9j/8AGq7Wy8a2N/4+1nwjHFcDUtK0yx1WeVlXyWiupbuKNVO7JYNZSlgQAAyYJyQOK039qD4c674V0rxFo2r6h4g0zVdxsDoehahqE90ipG8sscEEDytFEZoo5ZAuyKZvJkZJQUAAf8MnfBD/AKI38P8A/wAJex/+NUf8MnfBD/ojfw//APCXsf8A41Wr/wAL78CPqP2aHXftlotl/aE+tWVnPcaPaQfZ/tQe41GNDawZgKSgSyqSksTAYlQtz+sftSeBtI0+HULm+uNKs4Zpv7Rh1/SdR02+trePT729M6WktqJZFKWFxtYqkb+TOEkaSPymALf/AAyd8EP+iN/D/wD8Jex/+NUf8MnfBD/ojfw//wDCXsf/AI1XQeLfjJ4S8E6reaXqmoXH9r20NpOdMsdOub27mW5a5EIghgjd52IsrtykSsyJBI7BUG6qnh749+BPFXirT/DWla79s8QX1kNQj01bOcTxwb7iJ3mQoDB5ctpPDIJdpimCRSBJJY0cAyv2Tv8Ak1j4N/8AYmaN/wCkMNeq15V+yd/yax8G/wDsTNG/9IYa9VoAK8q8R/8AJ0/w8/7EzxL/AOl2hV6rXlXiP/k6f4ef9iZ4l/8AS7QqAPVaKKKACiiigAooooAKKKKACiiigAooooAKKKKACuK1a98Op8aPCtpc2FxJ4sl8P6vLp98rHyYbJbnTRdxsN4BZ5Hsip2HiJ/mXOH7Wufvb3xEnj7RrS2sLeTwnLpl9LqF8zDzob1ZbQWkajeCVeN70sdh5iT5lzhwDoKKKKACiiigAooooAKKKKACiiigAooooAKKKKACiiigAooooAKKKKACiiigAooooAKKKKAPFPDn7IPws8LfFO98ZWHgLwfa5stOi0+ytvDlrF/Zt1az3UpvIXC/LLJ9ohBKqrD7LGdzcBcDxB+yBY6v4B+FWiSTeF9f1LwF4fHh2CTxn4WXWNNuYjFapJOLP7RGY5y1lFscSkIrzKVfeGX6KooA8KT9mSaz0PxV4PsfE1vB8PvFumHT9bsDo0aalu/smHSw9pPA8VtbKIbW3by/sjqGEm3arIkdT4ffsp2/grxH4f1xX8H6Pd6XrS6pJZ+CvBsOh2d0iadqFmiuomllMudSdy7yugWJFSKMtJI/0BRQB863v7GXh0/DSw8L2x0e9fTfEB1yzj8R6MdU0x1jtH06zt7mzeZTMtvpxt4FYSozSWsU7lmMiv2vwc+BFv8ItYvr+1vNPMd5o1jpZ0/SdGh0yzt3gvNRunaCGI7UiZtSZVQ7nVYgXlmd2c+q0UAeVfsnf8msfBv8A7EzRv/SGGvVa8q/ZO/5NY+Df/YmaN/6Qw16rQAV5V4j/AOTp/h5/2JniX/0u0KvVa8q8R/8AJ0/w8/7EzxL/AOl2hUAeq0UUUAFFFFABRRRQAUUUUAFFFFABRRRQAUUUUAFcpqVj5nxT8PXn/CT/AGTytG1OL/hGfNx9v3z2B+2bN4z9n2eXnY2PtuNy7sP1dcVq174dT40eFbS5sLiTxZL4f1eXT75WPkw2S3Omi7jYbwCzyPZFTsPET/MucOAdrRRRQAUUUUAFFFFABRRRQAUUUUAFFFFABRRRQAUUUUAFFFFABRRRQAUUUUAFFFFABRRRQAUUUUAeH/GrU/FN78XvAvhXQvGmreDdPvtC1rU7uXR7Wxllnlt7jTI4QTd204VQLubhQpJIyeKof8IL45/6Ll46/wDBf4f/APlXWj8Tf+Tlvhx/2KPiT/0s0OvB/wBme0ufi54t+LviTxTr3iS+1Dw98S9T0jTIbfxDfWdlBaWggEEJtIJkgdRzu3xt5mW37snPpUIQlBXV2zycTUqRm+WVkrHs/wDwgvjn/ouXjr/wX+H/AP5V0f8ACC+Of+i5eOv/AAX+H/8A5V18l2H7ePj+TwP4R8Yz6R4bfT/G+heMNT0rTI7a4WXSZdIillhE85nIu1kEO1gkductkEY2k8R/t4+P/hz4Nvb/AFzSPDev6hefDTS/Humtp9tcWEVpLeXsVn9mmR55jOqG4STcrRFhGy4G8Mmv7jexjfE7c39bH0/4T+DniXwN4V0bw3onxo8dWWi6PZQ6fY232PQZPJgiQRxpufTCzYVQMsSTjkk1q/8ACC+Of+i5eOv/AAX+H/8A5V15F8Vfix8ZPh18Rfhf4C0qbwN4n8Q+Nv7c2Xd5p15pdpb/AGSzilgyFuLl+HaRn67xtQeUcyVmeB/2jfjB8SPi34gtfDngCx1HwHoHjq48JalLvhikgtoAqS3n2l7xXaRXdZfIWzIMZ2CYvzVclG9uUjnrtX5tD3D/AIQXxz/0XLx1/wCC/wAP/wDyrrKufg54lu/FWneJJfjR46fWtPsrnT7a5+x6CPLguHgkmTaNM2nc1rAckEjZwQC2fk34L/tGfFDwF+xl8LPEU1/B4817xp4oi8NaW+pwTT3ts0t9eLI88st4gvGIhCRoXtlTKhnIXNdhrfjn4reNfi/8CfBHxJsL7wLa65q/iUX1n4e1ZtPfV7a0sUlsbhns7qSS3wZWDQC5cF49xLDYFlKk0ny9vxLcq6bXPtf8D6X/AOEF8c/9Fy8df+C/w/8A/Kuj/hBfHP8A0XLx1/4L/D//AMq68P8Ai/8AGvxR8GvGOsfD3wILGO18LfDrUfH8+oeLJL7W7i98q4ZFtBI90kicq5815JcBlUIoTnzvV/28fH40H4jeNrDSPDcHhjwbp3hHVm0G4triW9vYtYggllhF6J1SNozK4WT7O4Py5Tg5bjRjo4iUsRLVSPrT/hBfHP8A0XLx1/4L/D//AMq6P+EF8c/9Fy8df+C/w/8A/Kuvmjxp+1z8S/CHxF1T4ceX4Uu/ENl468NeGP8AhIP7KuUtHttWs5pt/wBj+1lxJC8PX7QQ4bG1CMm1ov7Xvj+DU9JfVrTw3e6fF8Vn+FWowWVjcW0tzKWk2ajDI1xIIVAMINuySklHImXeAhaj/KHNiLX5j6N/4QXxz/0XLx1/4L/D/wD8q6P+EF8c/wDRcvHX/gv8P/8Ayrr5V1v9vTxXa6hFqmiaTY634H8RaR4rv/DGr3mlGw3vpNvLMjkC/mknjJhMbiSG0c71dQOUFXxH+3j4/wDhz4Nvb/XNI8N6/qF58NNL8e6a2n21xYRWkt5exWf2aZHnmM6obhJNytEWEbLgbwyK1DsO+J/mPrT/AIQXxz/0XLx1/wCC/wAP/wDyrrv/ANnrxTqnjn4BfDTxJrd19t1rWPDOmahfXPlrH508trHJI+1AFXLMThQAM8ACvlD9mC31m1/a6/aei8QX9jqerr/wi/n3Wm2L2du/+gSldsLzTMuF2g5kbJBPGcD6a/ZO/wCTWPg3/wBiZo3/AKQw1y4iMUouKtv+B24WU25KTvt+KPVaKKK4jvCiiigAooooAK5+9vfESePtGtLawt5PCcumX0uoXzMPOhvVltBaRqN4JV43vSx2HmJPmXOH6Cuf8a/D3wr8StKi0zxd4a0fxVpsUwuY7PW7CK8hSUKyiQJIrAMFdxuxnDEdzQB0FFc/e/D3wrqPjKw8XXfhrR7rxZYQm2s9emsInvraIhwY45yu9FIlkG0ED943945qWPwn8D6Z/wAJP9j8G+H7T/hKN/8Ab3kaXAn9r79+/wC14T9/u82XPmbs+Y+fvHIB1dFcVe/BD4daj4NsPCN34B8L3XhOwmNzZ6DNo1s9jbSkuTJHAU2IxMsh3AA/vG/vHOre/D3wrqPjKw8XXfhrR7rxZYQm2s9emsInvraIhwY45yu9FIlkG0ED943945AOgorlLH4T+B9M/wCEn+x+DfD9p/wlG/8At7yNLgT+19+/f9rwn7/d5sufM3Z8x8/eOat78EPh1qPg2w8I3fgHwvdeE7CY3NnoM2jWz2NtKS5MkcBTYjEyyHcAD+8b+8cgHa0Vz978PfCuo+MrDxdd+GtHuvFlhCbaz16awie+toiHBjjnK70UiWQbQQP3jf3jmpY/CfwPpn/CT/Y/Bvh+0/4Sjf8A295GlwJ/a+/fv+14T9/u82XPmbs+Y+fvHIB1dFcVe/BD4daj4NsPCN34B8L3XhOwmNzZ6DNo1s9jbSkuTJHAU2IxMsh3AA/vG/vHOre/D3wrqPjKw8XXfhrR7rxZYQm2s9emsInvraIhwY45yu9FIlkG0ED943945AOgorlLH4T+B9M/4Sf7H4N8P2n/AAlG/wDt7yNLgT+19+/f9rwn7/d5sufM3Z8x8/eOat78EPh1qPg2w8I3fgHwvdeE7CY3NnoM2jWz2NtKS5MkcBTYjEyyHcAD+8b+8cgHa0Vz978PfCuo+MrDxdd+GtHuvFlhCbaz16awie+toiHBjjnK70UiWQbQQP3jf3jmpY/CfwPpn/CT/Y/Bvh+0/wCEo3/295GlwJ/a+/fv+14T9/u82XPmbs+Y+fvHIB1dFcVe/BD4daj4NsPCN34B8L3XhOwmNzZ6DNo1s9jbSkuTJHAU2IxMsh3AA/vG/vHOre/D3wrqPjKw8XXfhrR7rxZYQm2s9emsInvraIhwY45yu9FIlkG0ED943945AOgorlLH4T+B9M/4Sf7H4N8P2n/CUb/7e8jS4E/tffv3/a8J+/3ebLnzN2fMfP3jmre/BD4daj4NsPCN34B8L3XhOwmNzZ6DNo1s9jbSkuTJHAU2IxMsh3AA/vG/vHIB2tFc/e/D3wrqPjKw8XXfhrR7rxZYQm2s9emsInvraIhwY45yu9FIlkG0ED943945qWPwn8D6Z/wk/wBj8G+H7T/hKN/9veRpcCf2vv37/teE/f7vNlz5m7PmPn7xyAdXRXFXvwQ+HWo+DbDwjd+AfC914TsJjc2egzaNbPY20pLkyRwFNiMTLIdwAP7xv7xzq3vw98K6j4ysPF134a0e68WWEJtrPXprCJ762iIcGOOcrvRSJZBtBA/eN/eOQDoKK5Sx+E/gfTP+En+x+DfD9p/wlG/+3vI0uBP7X379/wBrwn7/AHebLnzN2fMfP3jmre/BD4daj4NsPCN34B8L3XhOwmNzZ6DNo1s9jbSkuTJHAU2IxMsh3AA/vG/vHIB2tFc/e/D3wrqPjKw8XXfhrR7rxZYQm2s9emsInvraIhwY45yu9FIlkG0ED943945qWPwn8D6Z/wAJP9j8G+H7T/hKN/8Ab3kaXAn9r79+/wC14T9/u82XPmbs+Y+fvHIB1dcV41+Id94D1WKS88J6xqvhh4Q0ms6BA2oTWku5gUmsowbhlbMIRrdJzlpDIsKRh3L34IfDrUfBth4Ru/APhe68J2ExubPQZtGtnsbaUlyZI4CmxGJlkO4AH9439455Txr8JNZ8d/FCLX47fwv4RfTIRbWHjKx0yDUfFDxMjFo4JrmAxWCq7yoVK3Yljmkx5DHNAHI6x4/8O/EX9oH4e6h4c1a31S3g8L+JrW6SIlZrO4W70Fnt7iJgHgnQOu+GVVkQnDKDxW3qPwb8Aav4tTxVf+B/Dd74nSaK4XW7jSLeS9WWIKInExQvuQIm05yNq4xgV5P4k/ZP+FXhr9oPwnbXHgzSfElzr2ieJNb1vUPENlDez6nqBu9FDXUgdNiMTJMwSJEjQzS+WiB2B7v/AIZf+Df/AESXwN/4Tdn/APGq9fDXdPY8PF2VV6m7b/BvwBaanreoweB/DcOoa5DPb6rdx6RbrLqEUzbpkncJmVZDywckMeTmrX/Cr/Bv/QpaF/yCP+Ef/wCQbD/yDP8Anx+7/wAe/wD0x+57VzH/AAy/8G/+iS+Bv/Cbs/8A41R/wy/8G/8Aokvgb/wm7P8A+NV12fZf18jiuu7/AK+Zu+Hvg34A8I3Gnz6F4H8N6LPp001xZS6fpFvA1tLNGsczxlEBRpI0RGK4LKqg5AFGo/BvwBq/i1PFV/4H8N3vidJorhdbuNIt5L1ZYgoicTFC+5AibTnI2rjGBWF/wy/8G/8Aokvgb/wm7P8A+NVW1H9nP4HaRbpPf/DD4fWUDzRW6y3Hh+xjVpZZFjiQExgbnkdEUdSzKBkkUrPsv6+QXXd/18zppfg34Amt/EEEngfw3JB4hmW41mJtItyupyrIZFe5GzEzCRmcF8kMSepqt/wof4af8Iz/AMI5/wAK78Kf8I99s/tD+yf7Etvsn2nZ5fn+Vs2eZs+XfjOOM4rL/wCGX/g3/wBEl8Df+E3Z/wDxquZsvhT+zvqGtxaVb/DbwM91NeXOnwyHwpbrbz3NuoaeCOcweXJIgL5RWJzBcjGbeYRlvJf18hp9m/6+Z3V/8B/hpquiaVo178O/Cl5pGk+b/Z+n3GiWz29n5rB5fJjKbY97AM20DcRk5rT1b4X+Dde/t3+0/CWhaj/b/kf2v9r02GX+0fIx5H2jcp83y8DZvztwMYrmP+GX/g3/ANEl8Df+E3Z//GqP+GX/AIN/9El8Df8AhN2f/wAap2fZf18hXXd/18zp734X+DdS1uXWbvwloV1q8t5bahJqE2mwvcPc2ylLacyFdxkiVmVHzlAxCkZo/wCFX+Df+hS0L/kL/wDCQf8AINh/5Cf/AD/fd/4+P+m33/euY/4Zf+Df/RJfA3/hN2f/AMao/wCGX/g3/wBEl8Df+E3Z/wDxqiz7L+vkF13f9fM1H+A/w0k1u+1l/h34UbV777R9r1BtEtjcXHnq6T+ZJs3P5iySK+Sdwdgc5Naf/Cr/AAb/ANCloX/II/4R/wD5BsP/ACDP+fH7v/Hv/wBMfue1cx/wy/8ABv8A6JL4G/8ACbs//jVH/DL/AMG/+iS+Bv8Awm7P/wCNUWfZf18guu7/AK+Z0/gv4X+Dfhv9s/4RLwloXhb7bs+1f2LpsNn5+zds3+Wq7tu9sZzjccdTWp+yd/yax8G/+xM0b/0hhrhP+GX/AIN/9El8Df8AhN2f/wAaru/2Tv8Ak1j4N/8AYmaN/wCkMNedi9OXTuepgbPmd+36nqtFFFeceqFFFFABRRRQAUUUUAFFFFABRRRQAUUUUAFFFFABRRRQAUUUUAFFFFABRRRQAUUUUAFFFFABRRRQAUUUUAFFFFABRRRQB4j8Tf8Ak5b4cf8AYo+JP/SzQ68t8WeE/ixdftB+HdR07xF4bi0+PQtcitrubwldzRWcUl3pjJbzuuoqJJnEYKuDGCIJiIzn936H8dNWbwp8cfh54gudH8QahpEXh3X7CW40LQb7VfJnludIeJJFtYZGTcsExBYAHy25qr/wvbQP+gB8QP8Aw3ev/wDyFXq0JQ9naTt8zxsTGp7VuMb6djxfQ9P8bf8AC2/EN14o17xX9h+2a1/aelaXomseX/Y2LkWXk3aXf2TzPK+xMv8AZ1v9t8zCt832p6PGdv8AEu68HJFqF/4r0zVG1e2/ty6+w3N4E0T7Pdmz8mHSJoXa4Nx9nF19kkWQTGQnNiIAfaP+F7aB/wBAD4gf+G71/wD+QqqaZ+0Z4T1q2e40/TfHF/bpNNbNLbeANekVZYpGiljJWyIDJIjoy9VZWBwQRW16f8y+857Vb35H9x5r4Bt9dtfEPhSLx/f+OtT01bS1/wCEdurGx1WzR7n+0Lwv9vhtZpnWMW39lAf2pIxKBzJiU3QHC+IU8X+OvCHw48KajY+Ori68N+HbI+M2az1O38y8tNX0CWeSK6CqLu4WK21J45LWSSR8OYixkXd9H/8AC9tA/wCgB8QP/Dd6/wD/ACFR/wAL20D/AKAHxA/8N3r/AP8AIVF6drcyBKqnfkf3Hi/9n+Nrj41adPYa94rsNES80n+wLCbRNYufO0YW1qbn7VcS3cdnHIW+3rJ9vie9XG5Nzm2Uafh/5/2evgzpUX/I8J4j0qxmkHFx/a9pdlvEDGfoZGittZ82XdicNMA0nngP6r/wvbQP+gB8QP8Aw3ev/wDyFWZB8TvA9rrc2sw+CvGMOrzb/N1CP4Za4tw+9YUfdILDcdy21spyeRBED9xcF6f8y+8OWo/sP7j1eivO/wDhe2gf9AD4gf8Ahu9f/wDkKj/he2gf9AD4gf8Ahu9f/wDkKtva0/5l95h7Gp/K/uPRKK87/wCF7aB/0APiB/4bvX//AJCo/wCF7aB/0APiB/4bvX//AJCo9rT/AJl94exqfyv7j0SivO/+F7aB/wBAD4gf+G71/wD+QqP+F7aB/wBAD4gf+G71/wD+QqPa0/5l94exqfyv7j0Ss39k7/k1j4N/9iZo3/pDDXG/8L20D/oAfED/AMN3r/8A8hV3n7Mmk32gfs2/CjTNTs7jTtSsvCWk211Z3cTRTQSpZxK8bowBVlYEFSAQQQa87FyjLl5Xfc9TBQlDm5lbb9T0uiiivPPUCiiigAooooAKKKKACiiigAooooAKKKKACiiigAooooAKKKKACiiigAooooAKKKKACiiigAooooAKKKKACiiigAooqpq2rWOgaVeanqd5b6dptlC9zdXl3KsUMESKWeR3YgKqqCSxIAAJNAFusnUfFmh6RrukaJf6zp9lrWsed/ZunXF0kdxfeUoeXyYyQ0mxSGbaDtBycCsC91y++JHg2wvPAWsW9rY6pMYz4geFi0NoC4a5s45Iyk7OUUQyPmErKs48+NVim6qPSbGHVbjU47O3TUrmGK2nvFiUTSxRtI0cbPjLKjTSlVJwDI5GNxyAc/Y6Jrmv/wDCT2fjKPw/qHhvUd9paaJBZPNi1O+NxdyyvsuPOQoxjEMax7njLTgCQ9BpOk2OgaVZ6Zplnb6dptlClta2dpEsUMESKFSNEUAKqqAAoAAAAFW6KACiiigAooooAKKKKACiiigAooooAKKKKACiiigAooooAKKKKACiiigAooooAKKKKACiiigAooooAKKKKACiiigAooooAKKKKAPiz9nP9nP4T65+z58MNR1H4YeDdQ1C88L6XcXN3deH7SSWeV7SJnd3aMlmYkkknJJJNeh/8Mv/AAb/AOiS+Bv/AAm7P/41R+y//wAm0/CX/sUdI/8ASOKvTa+hjGPKtD5ec5cz1PMv+GX/AIN/9El8Df8AhN2f/wAao/4Zf+Df/RJfA3/hN2f/AMar02iq5Y9ieeXc8y/4Zf8Ag3/0SXwN/wCE3Z//ABqj/hl/4N/9El8Df+E3Z/8AxqvTaKOWPYOeXc8y/wCGX/g3/wBEl8Df+E3Z/wDxqj/hl/4N/wDRJfA3/hN2f/xqvTaKOWPYOeXc8y/4Zf8Ag3/0SXwN/wCE3Z//ABqj/hl/4N/9El8Df+E3Z/8AxqvTaKOWPYOeXc8y/wCGX/g3/wBEl8Df+E3Z/wDxqj/hl/4N/wDRJfA3/hN2f/xqvTaKOWPYOeXc+cviT8BfAnhjx38IJvCHhnSvAOsT+KZ4l1vwpp9vp97EBouqSLiRI8Ou+ONjFIHikC7ZEdCyn6Q+HPxGudavpfDHieK3sPGVnCZytsrJa6pbKyqby0DFiE3OiyQlmeB3VWLo8E0/GfEf4cL8Q00B01/VvDOoaHqJ1Oy1HRxbNKkptp7ZgVuIZo2Ux3MowUznBBGK8i+PXw28UeGPhN4m8Xw/F/xnc6x4Q0668R6U01poqiK8treSSM7o9OR9rDdG6qwEkUkkbZR2U8daipJtLU7cPiHBpN6H2hRRRXkHuhRRRQAUUUUAFFFFABRRRQAUUUUAFFFFABRRRQAUUUUAFFFFABRRRQAUUUUAFFFFABRRRQAUUUUAFFFFABRRRQAUUUUAFFFFAHzf+y//AMm0/CX/ALFHSP8A0jir02vmbwR8Nf8AhZn7Pv7L1rdad/aehafaaZfavC0/lobb/hHrqELIu5TLG8s0MbxfMHSRldWjLiuYvP2c/HFz418cahp02u6Z4u1H+32tfFv2zTLSwaG6jul0+H7TBA2qzeQJrMeTMyxRta7o2YW9uj++pNJaHzLgm3dn2BVW01GK9uL2GNJ1ezmEEhmt5I1ZjGkmY2ZQJFxIo3IWUMGXO5GA+U/iB8DU8XaZ4c/sf4R6t4O8JWM2ofbfBmj6f4XeW5vZVs/s+oG3uXmsWVI4bmLzNwuFLhVHlu5rT0j4HfELw1a6tq2kXk9l41TUbfT7bWLq8i1SWewudE0mwu7l5JhGsrQ3dml4WeJJJzpxjCotyafO77C9nG3xH1HRXyn/AMM1XuhfGrTrvTdN13+yNMvNJXw9f2NzpYtNI0m0trWJ7KS6uIpNTTcYLrMNufKmFyFd08+4dfQ/gX8E9Q8BfCH4aaUmr6t4Q1TTNOspdf0+ya0uhqd2tvAksdzNPFM7Kgh8lfJkTbGFRGCJEEak27WE4RSumev6dqllq9u89hdwXsCTS27S28qyKssUjRyoSCRuSRHRh1DKwOCDVqvH/wDhWus+IPi3/wAJbb6dY+Abe3vP9KvLCd31TxHHGPKT7WkbLbCMKmI/PF3IIZyU+xTAkeGW3wN+IcvizVr5vC99af2nafafFltCuiWmla/crqunXM9varbFJ7mOe3j1SGM6nzsudkrp50xKc2ug1CL6n1teeNtIstT1rTmmnm1DR9Oh1W8tLW0mnlW2ladYmRI0YysxtZwI4wzkoBt+Zc7tfJPjn4DnWdM8XXXh/wCDMGjz634Au/Dvh+yWHSYZfDt2q6sZAxScpCt2b6IK1s0mSX87ywMmr8S/gR4u8Q6T40sdK8G48XXn/CTyXXjLz7NP7fsLy01GPT9L87zftL+U11py+XcIkCfYflciKEsueXYfs4v7R9R+NvGFl4E8OzavfRT3CLNBawWtqqmW5uZ5kgt4E3FVDSTSxoGdlQFwXZVBYHhjxhZeKrjXba3intrzRNRfTL62uFUNHKI45kIKllZZIZoJVIJIWVQwRw6L4H4q+GUHwh+KGm+KtF0Cx8M/DDQbzSdRubTSIYra2jnkg1qwvbvyE2onlpf6dLPO4UfZ7djubyQtafiS/wBN1b4j+KNel0r+39MutX8K+ErC0W4aJ7vULDU5ry4uYDHnzY7T7UXcA/f028SQIsbMXzPqLkVtD6GrzL9qD/k2n4tf9ijq/wD6Ry16bXmX7UH/ACbT8Wv+xR1f/wBI5auXwsiHxI+kKKKK+cPqgooooAKKKKACiiigAooooAKKKKACiiigAooooAKKKKACiiigAooooAKKKKACiiigAooooAKKKKACiiigAooooAKKKKACiiigD5v/AGX/APk2n4S/9ijpH/pHFXptfN/7Of7Rnwn0P9nz4YadqPxP8G6fqFn4X0u3ubS68QWkcsEqWkSujo0gKspBBBGQQQa9D/4ag+Df/RWvA3/hSWf/AMdr6GMo8q1Pl5wlzPQ9NorzL/hqD4N/9Fa8Df8AhSWf/wAdo/4ag+Df/RWvA3/hSWf/AMdquaPcnkl2PTaK8y/4ag+Df/RWvA3/AIUln/8AHaP+GoPg3/0VrwN/4Uln/wDHaOaPcOSXY9NorzL/AIag+Df/AEVrwN/4Uln/APHaP+GoPg3/ANFa8Df+FJZ//HaOaPcOSXY9NorzL/hqD4N/9Fa8Df8AhSWf/wAdo/4ag+Df/RWvA3/hSWf/AMdo5o9w5Jdj02ivMv8AhqD4N/8ARWvA3/hSWf8A8do/4ag+Df8A0VrwN/4Uln/8do5o9w5Jdj02vMv2oP8Ak2n4tf8AYo6v/wCkctH/AA1B8G/+iteBv/Cks/8A47Xnn7Rn7Rnwn1z9nz4n6dp3xP8ABuoaheeF9Ut7a0tfEFpJLPK9pKqIiLISzMSAABkkgCplKPK9SoQlzLQ+06KKK+ePqAooooAKKKKACiiigAooooAKKKKACiiigAooooAKKKKACiiigAooooAKKKKACiiigAooooAKKKKACiiigAooooAKKKKACiiigAooooAKKKKACiiigAooooAKKKKACiiigAooooAKKKKACiiigAooooAKKKKACiiigAooooAKKKKACiiigAooooAKKKKACiiigAooooAKKKKACiiigAooooAKKKKACiiigAooooAKKKKACiiigAooooAKKKKACiiigAooooAKKKKACiiigAooooAKKKKACiiigAooooAKKKKACiiigAooooAKKKKAP//Z;" vertex="1" parent="1">
          <mxGeometry x="30" y="790" width="786.86" height="525.85" as="geometry" />
        </mxCell>
        <mxCell id="aWLDNn_hWw4ynje5LRLr-7" value="&lt;p style=&quot;margin: 10px 0px; padding: 0px; line-height: 18px; color: rgb(68, 68, 68); font-family: Tahoma, Arial, sans-serif; text-align: left; background-color: rgb(255, 255, 255); font-size: 15px;&quot;&gt;Сначала клиент создает объект&amp;nbsp;&lt;code style=&quot;margin: 0px; padding: 0px; font-size: 15px;&quot;&gt;ConcreteCommand&lt;/code&gt;, конфигурируя его получателем запроса.&amp;nbsp;&lt;/p&gt;&lt;p style=&quot;margin: 10px 0px; padding: 0px; line-height: 18px; color: rgb(68, 68, 68); font-family: Tahoma, Arial, sans-serif; text-align: left; background-color: rgb(255, 255, 255); font-size: 15px;&quot;&gt;Этот объект также доступен инициатору. Инициатор использует его при отправке запроса, вызывая метод&amp;nbsp;&lt;code style=&quot;margin: 0px; padding: 0px; font-size: 15px;&quot;&gt;execute()&lt;/code&gt;.&amp;nbsp;&lt;/p&gt;&lt;p style=&quot;margin: 10px 0px; padding: 0px; line-height: 18px; color: rgb(68, 68, 68); font-family: Tahoma, Arial, sans-serif; text-align: left; background-color: rgb(255, 255, 255); font-size: 15px;&quot;&gt;Этот алгоритм напоминает работу функции обратного вызова в процедурном программировании – функция регистрируется, чтобы быть вызванной позднее.&lt;/p&gt;&lt;p style=&quot;margin: 10px 0px; padding: 0px; line-height: 18px; color: rgb(68, 68, 68); font-family: Tahoma, Arial, sans-serif; text-align: left; background-color: rgb(255, 255, 255); font-size: 15px;&quot;&gt;Паттерн Command отделяет объект, инициирующий операцию, от объекта, который знает, как ее выполнить. Единственное, что должен знать инициатор, это как отправить команду.&amp;nbsp;&lt;/p&gt;&lt;p style=&quot;margin: 10px 0px; padding: 0px; line-height: 18px; color: rgb(68, 68, 68); font-family: Tahoma, Arial, sans-serif; text-align: left; background-color: rgb(255, 255, 255); font-size: 15px;&quot;&gt;Это придает системе гибкость: позволяет осуществлять динамическую замену команд, использовать сложные составные команды, осуществлять отмену операций.&lt;/p&gt;" style="text;html=1;align=center;verticalAlign=middle;resizable=0;points=[];autosize=1;strokeColor=none;fillColor=none;fontStyle=1;fontSize=15;" vertex="1" parent="1">
          <mxGeometry x="-134" y="1340" width="1470" height="170" as="geometry" />
        </mxCell>
        <mxCell id="aWLDNn_hWw4ynje5LRLr-8" value="Медиатор&lt;br&gt;Он как диспетчер связей" style="text;html=1;align=center;verticalAlign=middle;resizable=0;points=[];autosize=1;strokeColor=none;fillColor=none;fontStyle=1;fontSize=25;" vertex="1" parent="1">
          <mxGeometry x="245" y="1558" width="330" height="70" as="geometry" />
        </mxCell>
        <mxCell id="aWLDNn_hWw4ynje5LRLr-9" value="Медиатор" style="html=1;whiteSpace=wrap;fontStyle=1;fontSize=17;" vertex="1" parent="1">
          <mxGeometry x="345" y="1830" width="110" height="50" as="geometry" />
        </mxCell>
        <mxCell id="aWLDNn_hWw4ynje5LRLr-15" style="edgeStyle=orthogonalEdgeStyle;rounded=0;orthogonalLoop=1;jettySize=auto;html=1;entryX=0.5;entryY=1;entryDx=0;entryDy=0;" edge="1" parent="1" source="aWLDNn_hWw4ynje5LRLr-10" target="aWLDNn_hWw4ynje5LRLr-9">
          <mxGeometry relative="1" as="geometry" />
        </mxCell>
        <mxCell id="aWLDNn_hWw4ynje5LRLr-10" value="model" style="html=1;whiteSpace=wrap;fontStyle=1;fontSize=17;" vertex="1" parent="1">
          <mxGeometry x="465" y="1950" width="110" height="50" as="geometry" />
        </mxCell>
        <mxCell id="aWLDNn_hWw4ynje5LRLr-14" style="edgeStyle=orthogonalEdgeStyle;rounded=0;orthogonalLoop=1;jettySize=auto;html=1;entryX=0.5;entryY=1;entryDx=0;entryDy=0;" edge="1" parent="1" source="aWLDNn_hWw4ynje5LRLr-11" target="aWLDNn_hWw4ynje5LRLr-9">
          <mxGeometry relative="1" as="geometry" />
        </mxCell>
        <mxCell id="aWLDNn_hWw4ynje5LRLr-11" value="srure" style="html=1;whiteSpace=wrap;fontStyle=1;fontSize=17;" vertex="1" parent="1">
          <mxGeometry x="150" y="1930" width="110" height="50" as="geometry" />
        </mxCell>
        <mxCell id="aWLDNn_hWw4ynje5LRLr-16" style="edgeStyle=orthogonalEdgeStyle;rounded=0;orthogonalLoop=1;jettySize=auto;html=1;" edge="1" parent="1" source="aWLDNn_hWw4ynje5LRLr-12" target="aWLDNn_hWw4ynje5LRLr-9">
          <mxGeometry relative="1" as="geometry" />
        </mxCell>
        <mxCell id="aWLDNn_hWw4ynje5LRLr-12" value="UI" style="html=1;whiteSpace=wrap;fontStyle=1;fontSize=17;" vertex="1" parent="1">
          <mxGeometry x="170" y="1740" width="110" height="50" as="geometry" />
        </mxCell>
        <mxCell id="aWLDNn_hWw4ynje5LRLr-17" style="edgeStyle=orthogonalEdgeStyle;rounded=0;orthogonalLoop=1;jettySize=auto;html=1;" edge="1" parent="1" source="aWLDNn_hWw4ynje5LRLr-13">
          <mxGeometry relative="1" as="geometry">
            <mxPoint x="400" y="1830" as="targetPoint" />
          </mxGeometry>
        </mxCell>
        <mxCell id="aWLDNn_hWw4ynje5LRLr-13" value="DAL" style="html=1;whiteSpace=wrap;fontStyle=1;fontSize=17;" vertex="1" parent="1">
          <mxGeometry x="500" y="1740" width="110" height="50" as="geometry" />
        </mxCell>
        <mxCell id="aWLDNn_hWw4ynje5LRLr-18" value="Mediator" style="swimlane;fontStyle=0;childLayout=stackLayout;horizontal=1;startSize=26;fillColor=none;horizontalStack=0;resizeParent=1;resizeParentMax=0;resizeLast=0;collapsible=1;marginBottom=0;whiteSpace=wrap;html=1;" vertex="1" parent="1">
          <mxGeometry x="274" y="2130" width="140" height="52" as="geometry" />
        </mxCell>
        <mxCell id="aWLDNn_hWw4ynje5LRLr-19" value="+ field: type" style="text;strokeColor=none;fillColor=none;align=left;verticalAlign=top;spacingLeft=4;spacingRight=4;overflow=hidden;rotatable=0;points=[[0,0.5],[1,0.5]];portConstraint=eastwest;whiteSpace=wrap;html=1;" vertex="1" parent="aWLDNn_hWw4ynje5LRLr-18">
          <mxGeometry y="26" width="140" height="26" as="geometry" />
        </mxCell>
        <mxCell id="aWLDNn_hWw4ynje5LRLr-22" value="Classname" style="swimlane;fontStyle=1;align=center;verticalAlign=top;childLayout=stackLayout;horizontal=1;startSize=26;horizontalStack=0;resizeParent=1;resizeParentMax=0;resizeLast=0;collapsible=1;marginBottom=0;whiteSpace=wrap;html=1;" vertex="1" parent="1">
          <mxGeometry x="40" y="2070" width="160" height="86" as="geometry" />
        </mxCell>
        <mxCell id="aWLDNn_hWw4ynje5LRLr-23" value="+ field: type" style="text;strokeColor=none;fillColor=none;align=left;verticalAlign=top;spacingLeft=4;spacingRight=4;overflow=hidden;rotatable=0;points=[[0,0.5],[1,0.5]];portConstraint=eastwest;whiteSpace=wrap;html=1;" vertex="1" parent="aWLDNn_hWw4ynje5LRLr-22">
          <mxGeometry y="26" width="160" height="26" as="geometry" />
        </mxCell>
        <mxCell id="aWLDNn_hWw4ynje5LRLr-24" value="" style="line;strokeWidth=1;fillColor=none;align=left;verticalAlign=middle;spacingTop=-1;spacingLeft=3;spacingRight=3;rotatable=0;labelPosition=right;points=[];portConstraint=eastwest;strokeColor=inherit;" vertex="1" parent="aWLDNn_hWw4ynje5LRLr-22">
          <mxGeometry y="52" width="160" height="8" as="geometry" />
        </mxCell>
        <mxCell id="aWLDNn_hWw4ynje5LRLr-25" value="+ method(type): type" style="text;strokeColor=none;fillColor=none;align=left;verticalAlign=top;spacingLeft=4;spacingRight=4;overflow=hidden;rotatable=0;points=[[0,0.5],[1,0.5]];portConstraint=eastwest;whiteSpace=wrap;html=1;" vertex="1" parent="aWLDNn_hWw4ynje5LRLr-22">
          <mxGeometry y="60" width="160" height="26" as="geometry" />
        </mxCell>
        <mxCell id="aWLDNn_hWw4ynje5LRLr-26" value="Classname" style="swimlane;fontStyle=1;align=center;verticalAlign=top;childLayout=stackLayout;horizontal=1;startSize=26;horizontalStack=0;resizeParent=1;resizeParentMax=0;resizeLast=0;collapsible=1;marginBottom=0;whiteSpace=wrap;html=1;" vertex="1" parent="1">
          <mxGeometry x="570" y="2064" width="160" height="86" as="geometry" />
        </mxCell>
        <mxCell id="aWLDNn_hWw4ynje5LRLr-27" value="+ field: type" style="text;strokeColor=none;fillColor=none;align=left;verticalAlign=top;spacingLeft=4;spacingRight=4;overflow=hidden;rotatable=0;points=[[0,0.5],[1,0.5]];portConstraint=eastwest;whiteSpace=wrap;html=1;" vertex="1" parent="aWLDNn_hWw4ynje5LRLr-26">
          <mxGeometry y="26" width="160" height="26" as="geometry" />
        </mxCell>
        <mxCell id="aWLDNn_hWw4ynje5LRLr-28" value="" style="line;strokeWidth=1;fillColor=none;align=left;verticalAlign=middle;spacingTop=-1;spacingLeft=3;spacingRight=3;rotatable=0;labelPosition=right;points=[];portConstraint=eastwest;strokeColor=inherit;" vertex="1" parent="aWLDNn_hWw4ynje5LRLr-26">
          <mxGeometry y="52" width="160" height="8" as="geometry" />
        </mxCell>
        <mxCell id="aWLDNn_hWw4ynje5LRLr-29" value="+ method(type): type" style="text;strokeColor=none;fillColor=none;align=left;verticalAlign=top;spacingLeft=4;spacingRight=4;overflow=hidden;rotatable=0;points=[[0,0.5],[1,0.5]];portConstraint=eastwest;whiteSpace=wrap;html=1;" vertex="1" parent="aWLDNn_hWw4ynje5LRLr-26">
          <mxGeometry y="60" width="160" height="26" as="geometry" />
        </mxCell>
        <mxCell id="aWLDNn_hWw4ynje5LRLr-30" value="Classname" style="swimlane;fontStyle=0;childLayout=stackLayout;horizontal=1;startSize=26;fillColor=none;horizontalStack=0;resizeParent=1;resizeParentMax=0;resizeLast=0;collapsible=1;marginBottom=0;whiteSpace=wrap;html=1;" vertex="1" parent="1">
          <mxGeometry x="290" y="2360" width="140" height="130" as="geometry" />
        </mxCell>
        <mxCell id="aWLDNn_hWw4ynje5LRLr-31" value="+ field: type" style="text;strokeColor=none;fillColor=none;align=left;verticalAlign=top;spacingLeft=4;spacingRight=4;overflow=hidden;rotatable=0;points=[[0,0.5],[1,0.5]];portConstraint=eastwest;whiteSpace=wrap;html=1;" vertex="1" parent="aWLDNn_hWw4ynje5LRLr-30">
          <mxGeometry y="26" width="140" height="26" as="geometry" />
        </mxCell>
        <mxCell id="aWLDNn_hWw4ynje5LRLr-50" value="+ field: type" style="text;strokeColor=none;fillColor=none;align=left;verticalAlign=top;spacingLeft=4;spacingRight=4;overflow=hidden;rotatable=0;points=[[0,0.5],[1,0.5]];portConstraint=eastwest;whiteSpace=wrap;html=1;" vertex="1" parent="aWLDNn_hWw4ynje5LRLr-30">
          <mxGeometry y="52" width="140" height="26" as="geometry" />
        </mxCell>
        <mxCell id="aWLDNn_hWw4ynje5LRLr-32" value="+ field: type" style="text;strokeColor=none;fillColor=none;align=left;verticalAlign=top;spacingLeft=4;spacingRight=4;overflow=hidden;rotatable=0;points=[[0,0.5],[1,0.5]];portConstraint=eastwest;whiteSpace=wrap;html=1;" vertex="1" parent="aWLDNn_hWw4ynje5LRLr-30">
          <mxGeometry y="78" width="140" height="26" as="geometry" />
        </mxCell>
        <mxCell id="aWLDNn_hWw4ynje5LRLr-33" value="+ field: type" style="text;strokeColor=none;fillColor=none;align=left;verticalAlign=top;spacingLeft=4;spacingRight=4;overflow=hidden;rotatable=0;points=[[0,0.5],[1,0.5]];portConstraint=eastwest;whiteSpace=wrap;html=1;" vertex="1" parent="aWLDNn_hWw4ynje5LRLr-30">
          <mxGeometry y="104" width="140" height="26" as="geometry" />
        </mxCell>
        <mxCell id="aWLDNn_hWw4ynje5LRLr-34" value="Classname" style="swimlane;fontStyle=1;align=center;verticalAlign=top;childLayout=stackLayout;horizontal=1;startSize=30;horizontalStack=0;resizeParent=1;resizeParentMax=0;resizeLast=0;collapsible=1;marginBottom=0;whiteSpace=wrap;html=1;" vertex="1" parent="1">
          <mxGeometry x="30" y="2248" width="160" height="90" as="geometry" />
        </mxCell>
        <mxCell id="aWLDNn_hWw4ynje5LRLr-35" value="+ field: type" style="text;strokeColor=none;fillColor=none;align=left;verticalAlign=top;spacingLeft=4;spacingRight=4;overflow=hidden;rotatable=0;points=[[0,0.5],[1,0.5]];portConstraint=eastwest;whiteSpace=wrap;html=1;" vertex="1" parent="aWLDNn_hWw4ynje5LRLr-34">
          <mxGeometry y="30" width="160" height="26" as="geometry" />
        </mxCell>
        <mxCell id="aWLDNn_hWw4ynje5LRLr-36" value="" style="line;strokeWidth=1;fillColor=none;align=left;verticalAlign=middle;spacingTop=-1;spacingLeft=3;spacingRight=3;rotatable=0;labelPosition=right;points=[];portConstraint=eastwest;strokeColor=inherit;" vertex="1" parent="aWLDNn_hWw4ynje5LRLr-34">
          <mxGeometry y="56" width="160" height="8" as="geometry" />
        </mxCell>
        <mxCell id="aWLDNn_hWw4ynje5LRLr-37" value="+ method(type): type" style="text;strokeColor=none;fillColor=none;align=left;verticalAlign=top;spacingLeft=4;spacingRight=4;overflow=hidden;rotatable=0;points=[[0,0.5],[1,0.5]];portConstraint=eastwest;whiteSpace=wrap;html=1;" vertex="1" parent="aWLDNn_hWw4ynje5LRLr-34">
          <mxGeometry y="64" width="160" height="26" as="geometry" />
        </mxCell>
        <mxCell id="aWLDNn_hWw4ynje5LRLr-46" style="rounded=0;orthogonalLoop=1;jettySize=auto;html=1;entryX=1.018;entryY=0.984;entryDx=0;entryDy=0;entryPerimeter=0;" edge="1" parent="1" source="aWLDNn_hWw4ynje5LRLr-38" target="aWLDNn_hWw4ynje5LRLr-19">
          <mxGeometry relative="1" as="geometry" />
        </mxCell>
        <mxCell id="aWLDNn_hWw4ynje5LRLr-38" value="Classname" style="swimlane;fontStyle=1;align=center;verticalAlign=top;childLayout=stackLayout;horizontal=1;startSize=26;horizontalStack=0;resizeParent=1;resizeParentMax=0;resizeLast=0;collapsible=1;marginBottom=0;whiteSpace=wrap;html=1;" vertex="1" parent="1">
          <mxGeometry x="550" y="2252" width="160" height="86" as="geometry" />
        </mxCell>
        <mxCell id="aWLDNn_hWw4ynje5LRLr-39" value="+ field: type" style="text;strokeColor=none;fillColor=none;align=left;verticalAlign=top;spacingLeft=4;spacingRight=4;overflow=hidden;rotatable=0;points=[[0,0.5],[1,0.5]];portConstraint=eastwest;whiteSpace=wrap;html=1;" vertex="1" parent="aWLDNn_hWw4ynje5LRLr-38">
          <mxGeometry y="26" width="160" height="26" as="geometry" />
        </mxCell>
        <mxCell id="aWLDNn_hWw4ynje5LRLr-40" value="" style="line;strokeWidth=1;fillColor=none;align=left;verticalAlign=middle;spacingTop=-1;spacingLeft=3;spacingRight=3;rotatable=0;labelPosition=right;points=[];portConstraint=eastwest;strokeColor=inherit;" vertex="1" parent="aWLDNn_hWw4ynje5LRLr-38">
          <mxGeometry y="52" width="160" height="8" as="geometry" />
        </mxCell>
        <mxCell id="aWLDNn_hWw4ynje5LRLr-41" value="+ method(type): type" style="text;strokeColor=none;fillColor=none;align=left;verticalAlign=top;spacingLeft=4;spacingRight=4;overflow=hidden;rotatable=0;points=[[0,0.5],[1,0.5]];portConstraint=eastwest;whiteSpace=wrap;html=1;" vertex="1" parent="aWLDNn_hWw4ynje5LRLr-38">
          <mxGeometry y="60" width="160" height="26" as="geometry" />
        </mxCell>
        <mxCell id="aWLDNn_hWw4ynje5LRLr-42" value="" style="endArrow=block;dashed=1;endFill=0;endSize=12;html=1;rounded=0;exitX=0.5;exitY=0;exitDx=0;exitDy=0;entryX=0.497;entryY=0.984;entryDx=0;entryDy=0;entryPerimeter=0;" edge="1" parent="1" source="aWLDNn_hWw4ynje5LRLr-30" target="aWLDNn_hWw4ynje5LRLr-19">
          <mxGeometry width="160" relative="1" as="geometry">
            <mxPoint x="510" y="2200" as="sourcePoint" />
            <mxPoint x="670" y="2200" as="targetPoint" />
          </mxGeometry>
        </mxCell>
        <mxCell id="aWLDNn_hWw4ynje5LRLr-43" style="rounded=0;orthogonalLoop=1;jettySize=auto;html=1;entryX=0.103;entryY=1.165;entryDx=0;entryDy=0;entryPerimeter=0;" edge="1" parent="1" source="aWLDNn_hWw4ynje5LRLr-35" target="aWLDNn_hWw4ynje5LRLr-19">
          <mxGeometry relative="1" as="geometry" />
        </mxCell>
        <mxCell id="aWLDNn_hWw4ynje5LRLr-44" style="rounded=0;orthogonalLoop=1;jettySize=auto;html=1;entryX=0;entryY=0;entryDx=0;entryDy=0;" edge="1" parent="1" source="aWLDNn_hWw4ynje5LRLr-23" target="aWLDNn_hWw4ynje5LRLr-18">
          <mxGeometry relative="1" as="geometry" />
        </mxCell>
        <mxCell id="aWLDNn_hWw4ynje5LRLr-45" style="rounded=0;orthogonalLoop=1;jettySize=auto;html=1;entryX=1;entryY=0.25;entryDx=0;entryDy=0;" edge="1" parent="1" source="aWLDNn_hWw4ynje5LRLr-28" target="aWLDNn_hWw4ynje5LRLr-18">
          <mxGeometry relative="1" as="geometry" />
        </mxCell>
        <mxCell id="aWLDNn_hWw4ynje5LRLr-47" value="" style="endArrow=diamondThin;endFill=1;endSize=24;html=1;rounded=0;exitX=0;exitY=0.5;exitDx=0;exitDy=0;entryX=-0.003;entryY=0.097;entryDx=0;entryDy=0;entryPerimeter=0;edgeStyle=orthogonalEdgeStyle;" edge="1" parent="1" source="aWLDNn_hWw4ynje5LRLr-23" target="aWLDNn_hWw4ynje5LRLr-32">
          <mxGeometry width="160" relative="1" as="geometry">
            <mxPoint x="510" y="2200" as="sourcePoint" />
            <mxPoint x="670" y="2200" as="targetPoint" />
            <Array as="points">
              <mxPoint x="-10" y="2109" />
              <mxPoint x="-10" y="2425" />
              <mxPoint x="290" y="2425" />
            </Array>
          </mxGeometry>
        </mxCell>
        <mxCell id="aWLDNn_hWw4ynje5LRLr-48" value="" style="endArrow=diamondThin;endFill=1;endSize=24;html=1;rounded=0;exitX=1;exitY=0.5;exitDx=0;exitDy=0;entryX=1;entryY=0.5;entryDx=0;entryDy=0;edgeStyle=orthogonalEdgeStyle;" edge="1" parent="1" source="aWLDNn_hWw4ynje5LRLr-27" target="aWLDNn_hWw4ynje5LRLr-32">
          <mxGeometry width="160" relative="1" as="geometry">
            <mxPoint x="50" y="2119" as="sourcePoint" />
            <mxPoint x="300" y="2425" as="targetPoint" />
          </mxGeometry>
        </mxCell>
        <mxCell id="aWLDNn_hWw4ynje5LRLr-49" style="edgeStyle=orthogonalEdgeStyle;rounded=0;orthogonalLoop=1;jettySize=auto;html=1;entryX=0;entryY=0.5;entryDx=0;entryDy=0;" edge="1" parent="1" source="aWLDNn_hWw4ynje5LRLr-32" target="aWLDNn_hWw4ynje5LRLr-35">
          <mxGeometry relative="1" as="geometry">
            <mxPoint x="40" y="2110" as="targetPoint" />
            <Array as="points">
              <mxPoint x="-10" y="2425" />
              <mxPoint x="-10" y="2291" />
            </Array>
          </mxGeometry>
        </mxCell>
        <mxCell id="aWLDNn_hWw4ynje5LRLr-51" style="edgeStyle=orthogonalEdgeStyle;rounded=0;orthogonalLoop=1;jettySize=auto;html=1;entryX=1.063;entryY=0.846;entryDx=0;entryDy=0;entryPerimeter=0;" edge="1" parent="1" source="aWLDNn_hWw4ynje5LRLr-50" target="aWLDNn_hWw4ynje5LRLr-39">
          <mxGeometry relative="1" as="geometry">
            <Array as="points">
              <mxPoint x="360" y="2450" />
              <mxPoint x="740" y="2450" />
              <mxPoint x="740" y="2300" />
            </Array>
          </mxGeometry>
        </mxCell>
        <mxCell id="aWLDNn_hWw4ynje5LRLr-52" value="Паттерн&amp;nbsp; ITERATOR" style="text;html=1;align=center;verticalAlign=middle;resizable=0;points=[];autosize=1;strokeColor=none;fillColor=none;fontStyle=1;fontSize=22;" vertex="1" parent="1">
          <mxGeometry x="155" y="2533" width="230" height="40" as="geometry" />
        </mxCell>
        <mxCell id="aWLDNn_hWw4ynje5LRLr-53" value="" style="shape=image;verticalLabelPosition=bottom;labelBackgroundColor=default;verticalAlign=top;aspect=fixed;imageAspect=0;image=data:image/png,iVBORw0KGgoAAAANSUhEUgAAAX0AAAEbCAMAAAABCqQkAAADAFBMVEUAAACAAAAAgACAgAAAAICAAIAAgIDAwMDA3MCmyvBAIABgIACAIACgIADAIADgIAAAQAAgQABAQABgQACAQACgQADAQADgQAAAYAAgYABAYABgYACAYACgYADAYADgYAAAgAAggABAgABggACAgACggADAgADggAAAoAAgoABAoABgoACAoACgoADAoADgoAAAwAAgwABAwABgwACAwACgwADAwADgwAAA4AAg4ABA4ABg4ACA4ACg4ADA4ADg4AAAAEAgAEBAAEBgAECAAECgAEDAAEDgAEAAIEAgIEBAIEBgIECAIECgIEDAIEDgIEAAQEAgQEBAQEBgQECAQECgQEDAQEDgQEAAYEAgYEBAYEBgYECAYECgYEDAYEDgYEAAgEAggEBAgEBggECAgECggEDAgEDggEAAoEAgoEBAoEBgoECAoECgoEDAoEDgoEAAwEAgwEBAwEBgwECAwECgwEDAwEDgwEAA4EAg4EBA4EBg4ECA4ECg4EDA4EDg4EAAAIAgAIBAAIBgAICAAICgAIDAAIDgAIAAIIAgIIBAIIBgIICAIICgIIDAIIDgIIAAQIAgQIBAQIBgQICAQICgQIDAQIDgQIAAYIAgYIBAYIBgYICAYICgYIDAYIDgYIAAgIAggIBAgIBggICAgICggIDAgIDggIAAoIAgoIBAoIBgoICAoICgoIDAoIDgoIAAwIAgwIBAwIBgwICAwICgwIDAwIDgwIAA4IAg4IBA4IBg4ICA4ICg4IDA4IDg4IAAAMAgAMBAAMBgAMCAAMCgAMDAAMDgAMAAIMAgIMBAIMBgIMCAIMCgIMDAIMDgIMAAQMAgQMBAQMBgQMCAQMCgQMDAQMDgQMAAYMAgYMBAYMBgYMCAYMCgYMDAYMDgYMAAgMAggMBAgMBggMCAgMCggMDAgMDggMAAoMAgoMBAoMBgoMCAoMCgoMDAoMDgoMAAwMAgwMBAwMBgwMCAwMCgwMD/+/CgoKSAgID/AAAA/wD//wAAAP//AP8A//////9Y0jREAAAACXBIWXMAAAsTAAALEwEAmpwYAAAGQ2lUWHRYTUw6Y29tLmFkb2JlLnhtcAAAAAAAPD94cGFja2V0IGJlZ2luPSLvu78iIGlkPSJXNU0wTXBDZWhpSHpyZVN6TlRjemtjOWQiPz4gPHg6eG1wbWV0YSB4bWxuczp4PSJhZG9iZTpuczptZXRhLyIgeDp4bXB0az0iQWRvYmUgWE1QIENvcmUgNi4wLWMwMDUgNzkuMTY0NTkwLCAyMDIwLzEyLzA5LTExOjU3OjQ0ICAgICAgICAiPiA8cmRmOlJERiB4bWxuczpyZGY9Imh0dHA6Ly93d3cudzMub3JnLzE5OTkvMDIvMjItcmRmLXN5bnRheC1ucyMiPiA8cmRmOkRlc2NyaXB0aW9uIHJkZjphYm91dD0iIiB4bWxuczp4bXA9Imh0dHA6Ly9ucy5hZG9iZS5jb20veGFwLzEuMC8iIHhtbG5zOmRjPSJodHRwOi8vcHVybC5vcmcvZGMvZWxlbWVudHMvMS4xLyIgeG1sbnM6cGhvdG9zaG9wPSJodHRwOi8vbnMuYWRvYmUuY29tL3Bob3Rvc2hvcC8xLjAvIiB4bWxuczp4bXBNTT0iaHR0cDovL25zLmFkb2JlLmNvbS94YXAvMS4wL21tLyIgeG1sbnM6c3RFdnQ9Imh0dHA6Ly9ucy5hZG9iZS5jb20veGFwLzEuMC9zVHlwZS9SZXNvdXJjZUV2ZW50IyIgeG1wOkNyZWF0b3JUb29sPSJBZG9iZSBQaG90b3Nob3AgMjIuMSAoV2luZG93cykiIHhtcDpDcmVhdGVEYXRlPSIyMDE5LTExLTEwVDEzOjU1OjQxLTA2OjAwIiB4bXA6TW9kaWZ5RGF0ZT0iMjAyMS0wNi0xM1QxMjo1Njo0Ni0wNTowMCIgeG1wOk1ldGFkYXRhRGF0ZT0iMjAyMS0wNi0xM1QxMjo1Njo0Ni0wNTowMCIgZGM6Zm9ybWF0PSJpbWFnZS9wbmciIHBob3Rvc2hvcDpDb2xvck1vZGU9IjIiIHBob3Rvc2hvcDpJQ0NQcm9maWxlPSJzUkdCIElFQzYxOTY2LTIuMSIgeG1wTU06SW5zdGFuY2VJRD0ieG1wLmlpZDo1ZjM0M2FiNS0xMGY3LTUxNDEtYTdmMi1hOGU0ODU0ZTA5YzYiIHhtcE1NOkRvY3VtZW50SUQ9ImFkb2JlOmRvY2lkOnBob3Rvc2hvcDo4ZGM0YTNiOC1lYzAwLTc2NDQtOWY3Ni04NTFkYjA4MzIyMzQiIHhtcE1NOk9yaWdpbmFsRG9jdW1lbnRJRD0ieG1wLmRpZDo0Zjc1NWFlOC1jZThiLWE0NDYtODI5NC01NWU4NmM0ZTQ5NDAiPiA8eG1wTU06SGlzdG9yeT4gPHJkZjpTZXE+IDxyZGY6bGkgc3RFdnQ6YWN0aW9uPSJjcmVhdGVkIiBzdEV2dDppbnN0YW5jZUlEPSJ4bXAuaWlkOjRmNzU1YWU4LWNlOGItYTQ0Ni04Mjk0LTU1ZTg2YzRlNDk0MCIgc3RFdnQ6d2hlbj0iMjAxOS0xMS0xMFQxMzo1NTo0MS0wNjowMCIgc3RFdnQ6c29mdHdhcmVBZ2VudD0iQWRvYmUgUGhvdG9zaG9wIDIyLjEgKFdpbmRvd3MpIi8+IDxyZGY6bGkgc3RFdnQ6YWN0aW9uPSJjb252ZXJ0ZWQiIHN0RXZ0OnBhcmFtZXRlcnM9ImZyb20gaW1hZ2UvZ2lmIHRvIGltYWdlL3BuZyIvPiA8cmRmOmxpIHN0RXZ0OmFjdGlvbj0ic2F2ZWQiIHN0RXZ0Omluc3RhbmNlSUQ9InhtcC5paWQ6NWYzNDNhYjUtMTBmNy01MTQxLWE3ZjItYThlNDg1NGUwOWM2IiBzdEV2dDp3aGVuPSIyMDIxLTA2LTEzVDEyOjU2OjQ2LTA1OjAwIiBzdEV2dDpzb2Z0d2FyZUFnZW50PSJBZG9iZSBQaG90b3Nob3AgMjIuMSAoV2luZG93cykiIHN0RXZ0OmNoYW5nZWQ9Ii8iLz4gPC9yZGY6U2VxPiA8L3htcE1NOkhpc3Rvcnk+IDwvcmRmOkRlc2NyaXB0aW9uPiA8L3JkZjpSREY+IDwveDp4bXBtZXRhPiA8P3hwYWNrZXQgZW5kPSJyIj8+AmN+CgAAFpdJREFUeJztnbt22zrThl//a69FzFfZvqJYHcQOdAd2krvsq0k6Sx3Qhewkdc6+ItmVBq7mL0jZki3HOpKig6fIIsEDmNfQYDA4XQgirfF/bX/AX01Uv02i+m0S1W+TqH6bRPXbJKrfJlH9NvnnbUIoTpBLpg55mstjfQdg6HjvOpy3ZZ9O8nWHvbQ8nvpHfNUxeFf2tT1BLvlhj5tTfNM5EO1+m0T1Pye7OB7rFWBU/3NKORr3T2tv3kb9rL+9y3KQc7MjKuv3PZDn8P03l8JZuTYfsoX6vpxt/bpsfMC37Ih61g8m92DG4E21HKgb3RbbqO/0GMAo834EyrOQB+Qh95Rn+Wp6DmSlpzr59KR6GIZuAABPM8BnOYGykGUKFmknCv/n6nuyNAPycjLzhBueWH+pvNXm5tuER8v07Ntk7pm05Sq5AZgA2AAAxRze+283kNJ67oFg5qfNXHk+wls+VZ+9BzHIl+HXLAtwwejHJ0zsBb5Dz+p0FPkYoG+wAd+htzdVR6Oky+9QwERZQGNw4rJ/64nzDX+A4Hd5y6fq381Mf84QXOIJVwUIDHI6oJil6UzX6T4UmA1QXtfJu3zCvhADyJf/W+bxuMFG2ZzYz68ApQAoJgIpApQBwK+Jn/CZ+srzw0M5I+BJWc2AUiVhRkCmJ46+1+mlsawfAf2SfHr8bKT8S1G7hhmUj/VJhqdT527KO9xSv9fLwD1/8zi6SYNCb+bJZ2kvrxI/e8m7SMMbUqgApR/CyNzOCbbsmdKALaCue9l1QJXuTZ9AgM/q5AZQzj97Z+sg0n2e9QxBPwDAlTYPJ/0G9fwQvLWA40zh2UzxHaFvYTFVOSv1/AvPZvr5e940B5T+oJngZKGdWJYEyfv0l8c3P/02l91w7qMrH2S3z6v+wIavd3qRIBGtjUHitIiyWoPFGHFaJKkS33PPa6eflf0l33slw0CT6VHxPn3JMRyBHWg4u1dK0NhPAfMdScgIyObFFS4DV1XP2Bf5NtX+tuoHvkIA7HCCsCH9b4MJgLfX5dhfgw0AlD1MgdkAz/m3O0dsPnkFsEOch0IAAA5hY/pfhp1gaABXculgvwPO4sECJR5DosEWdhvP4+JNk5xutqgrduZtLrvhcTRXcq9XHfb1a4zytUBYjHG2yTu7P9upsdYMR+xZ3MYaN8f7WvfUPZ+0s6fCx+tW5y3zVumkiersfb/uKcY0XLwc0Y+bh12fJntEu78dQaVZA/pv63EeBy5v8mGjOe5LgErz4tTtiSbV59LbosnOr4MICPPRvwys/nQPhtZ+xs2pz6W3RSf6PJaoaSi9IeCIHme2dtqYx+kzFLZT4gNQBbKjdKN8QENlP5hzKfe7OtS2PGE/aUPqEw7p7jqez9NMv8/WNKT+fVnuX90esf2nd400BKunp/M8G7L7w9/Dw8Yxt4PKhpNh9+0+GM20X46JStNJcKfMoTmPM0Cl+a/u6E/Z6aMNTba2AgKfvv14HOjHzej0prLZSIMqwnzUBa9f9RqJiDSrPqCm4bID1qehT2y+d0V1QPymiH1bbfK+b+uIAb0jwXfHa+zfH+1Nx+B978pJetUPeppc470rDREtT5v8weehEf7YyvZblEjC/Kr7tezxfjFvAqYfqz/qA/3wrsVBo6Xo3iJ/3w5fT8ocbrkD/v2fOeJAg+Lzvq3+FFBpARhbMKkAkkcCSBDwWDBBVQ6xSomrazS/Zig8EvPydmIVggZ+fetGT+4fON5Ag237tn4aAFSgzFI1+jHOFfyP8a1HMbuibPxzBABP/Ijq2k2ecTYeZ3zFY4x+jDOFfpayHQLhvCbnnxdvhjgrrayFtWLcy5hrpUUSIyySGEmcWBYxiWgRu7ymF6ISEZOIFWVEEiMmEdEiIkadbAR5M69afn2itdZ67R2JiCRO7rd91acjyBmYO6DqBGICILM+eozLW06rRAOgnhpaXwOBfV6NVXosgLA6gbYbszf/jLcAqrHzq8PhbgGkFt9pP5/4w1o3H1qAsyq/AlDo/Qqqkv8hQC2bBdU1AIEdMgC4TC26X9O+YcXBuwCNZnqY4dswzHMXDBCy/dTfaPcfACiMlMotAQgIajQGoH4yUNIkVarHADBXL9cAqMBP4BAQ1F1VQIgBcPddTqWgFMDee4WiEP/LZL8cBXXt4AYA9H7R6I1lPwCAC6BBgQEsCj/OFB7GMIQQoNQYhmCBsqivWUDlhIfLMCmMK8aZghfAXACUbcqiU/AYfm0SPgVoDkMLoBouQHvO0X9TLXw0b2tPrMh9crp5W828ClL5D4mp35EYEUmcdmJFTLLDe/ect7UnI/VI3Tc8AK7fJoweaUCvFdx+P/ATq6/C8eadtIoDVhY4I+D7jNIJvuXTxwJ7zwtoum+ry9Q/Ygv7cjIcAqXFFtPSNxJjnAdjFPyesYg4c+hg7BD/7jlQ423Zn28/eshv/3c6bEjS4HiSmcHRXvUK7z1r+23Z377JHPi/hgYHHtNpOi8fYG+7z9bem26MjDoWKmBzyz3suxzd3up7T1SeYR1xQsakgKv1X09QgCr27f7aV301U/U/fwd9ALBpfaZUFcNSKJ6A1CKUe5mBPdXndAoAk/Svsj3aeACoepckR7jlWcGKUEW0dmdP9cvK5AfzV3RcUZ7P8hyALRWAzNvhTAWT23vSAxprAIO9uk/3a+tSv/YhTXbKyQXnAr944pN08tK7ZP3qeOC9ZNhP/f6kzpce0j/f+cWolhysepf8dXnoav57WZ6gX9yu8DVCmJ+yXN7AAqh6l1Tp/B3wkzMG8LRfi3CPePfCLFZO9OLjO78GL73qiYgoFkmcWwgrEV4sXCJGROx2S8QdIb7v/YqjSaXr/HidLakW51oeKAYUYC2MCnsGG/ZQn8LdekIXJqOcEguU+42N3kP95V/5iAt2dRy7rxIxvt8mUf0dWFpYUh9HWHaqAaL626OWA/T6vTTvfxBXuwO2X/8+qr8d6+PubeGKcmNDx49A28ebD+hV/3KjBf9EvZkC58SVv03eFiolngSPGeshcrBX8Bb4/nPbtx6gfvn7b/F5uFx6eKWxS7N+mSKdBNUD2HE2HGmL/m/0AYRs2xZQtDxbQIMBBgMAGPqsfBmSzQgIpECga8zKLMOj1Be2JI7n2YaAfmXlGcpk1fDtMdPaknn+cvex8rHsb0dtZL0PBgCUCt6CAtSyoBsXHtPrC2CXCjGW/e2wAC407CjHA3SZwhUEN8RtgQzAN1if0SQgA3CxdbzzgPW1+7//go4VYDeNAhTy+w8Lf1yD/KQoB6Wj5WmL4S6Dv2LZb5OofptE9XeA8n7/z4vVKKC/cZtb5TcF36Ld3w5vAdz8Cggb1qZ4QVWT527fX9k8qTeW/e3wAIIJgBohBCAH+dyHkCmM8hwIIc8Cbn0AMJqPoPI8ACOfe5VnhGA2L5mwf1e/3nmnt44CSRKdJKuLJ4iWRCcLZxKxLIkRZxaJlsRJtYBCYhZiE9Es5l7Yyn0iIvfJ2zENsexvAY/HGL+bkUuBYALmhR8zw9DqbuJjKj1+Agr4jkv+aFJvtPtbQBbeLhdoGG2Iq1dJbxpZ+vNZpLHsb8c1AOMVEGaEtRgyDayZrQvPyL5tWrX+3Z8jlv3tcADoIc2AKUw2A70U9UmavcyduPA8BIDcIaPqF0EAqJrU+H7KXoyyfc6KRhuDx9tElLMCfOdilO0gNuq8TVBt86TeqH4z2ItNk3qj+g2xcZRVrHW34HhzA9Nt1+OMLLnfZr8knm3Vn3i19guIPs9x4GyfgczR7h+Hu9LssadVVP8oKFY02X0CYVT/GHBvujaXcFui+segtAzA7rxqSFT/CKgqgkPl3Wd3viGqfwTSevK44h0r3qj+4bwa/GlvN9sT1T8YNi+OPtvdVg2J6h/MXfka5NzR6Y/qH8qasd/R6Y+RhkPpr8f3y11q3hhlO5R69ZJxOQEAJLsU56j+odT+jkr3WCon2v02ieq3SVS/TaL6bRJr3SPx+L89Hopl/0jstWhFVL9NovptEtVvk6h+m0T12ySq3yZR/TaJ6rdJVL9NovptEtVvk6h+m0T12ySq3yZR/VYREZHmlvQ1Da8vchCnG69Ur3ZS9W3NVVMDo/bakq0tCneiYhnqFZai5WmTqH6bRPXb5FX94MNOxp/98aZwnzHK+y06zJfKseddtlx8UT8zpck+y4dW9vIu860HS1NDW4CfgNGz9+HTEZr5ctLEVX71erJC6L9Pw6v6I34oCvxAtXMvFJMCAKUYUKwYrBgYlU+ojgBfzxRQTASwguKVO5fppNT6Y91g+anhjqdTa1HLQlT9L0gRQEQEKAKCB1dHWDtRrAClCLBQACkGeHW8fzV+v//7hgqACaoHUIE+MTBFxsBD6AMlDHGp+jP98GSISwX1nPTMEHQDgIpggJmzr3fW6T43pXUrjx0wX6BJghsC8OByWq1+VCmRMTEegs9N6WzGuC5uADPMvbbDG8AM1XNyu3Ki8bvPVPLlM/R0dKdRKp9rTMNyd0QREdFK180gY2Wh70VbYSSMRO5ZtBXRTpwWh6Q+EqvlXotYvVhoI9pKot3KnXU6J3K/9tgBK1A2Ct+LiHNGV6f3eiHWiNGLhXYL7cQ5MXqxsEYSqAROlkfJ6okTYSXGiNHCSMTphUOyqN4ub3a5VAFsQDQbQuMSKPQUQwAaFDBj0AjLo/mcPGZBMREIgK5M28ud/Sr9Mq0NXp3cGeOj8tEQ1ebpoDnNiKA9QATg6vnBWgBEmCO/nZeXwMrRysnAoujXk1sKPcXg+Wqsp6+5LNU3pQrcyx0Y4Os6MfNMPlMAuG8tXwX/chRmpoS2Bc2rX+bL4j/19bxK7xnr/UryKQU7LpX8IwoKWTal+Yorc4EnhKJe885VNcLK0dqJemZVLUWYeaYnWm/rL9W3ZS9jFM7m+A+/6oawINd31cInxsOnGCClHx4+hTUFEEjhuQ8ANp/xrGqWV3f+qtJRwmPlsQ6h8hFBGTI8Y/zq5d/ulgswc2ZMeW0BwJOf9Tj0fVYdAVg7wQUcMcHkuUNuvHXrW9SJSLWoL1u3EJHEOSXiElm4hSycYxGXiAg7FhHnFsKOZeESEVm4RBKXGCPCTmm3emeVnjhWbvHymAiSCiUi6syPnXYifO8SEVHOJSJcq8GOqxNh5xYi7JLqaOEW6yfCjhMnyrlazMQtaxURWfo8+xpk721mrM3nZZEn4V36u/uXO8J4BQR75seleb+M4FFY+jyHqo/RDHoIyhjGvk9/R0c8TgDAaGZOFuOspDl49sRwCGxqXA87v9/3KD/5RpJnEGU70zbwm2VjT8IZzBw6Tze0CfHPoeyfJY2IX3ucTWS0mt/Z41hE5P5kKtRxncry6MYWvOhIv269nUHs1/3KRPXbJKrfJlH9Nonqt0lUv02i+m0S1W+TqH6bRPXbJKrfJlH9NmlV/fPsVmmQFtUP/av2Mj8PWuvbCsb8Ps9erQap1R/5P992bFRKv6fn3+++22r62zPD6piG2cl779dQaTpZdjCcM8wnkn+5J2zdtzVtsG9L3aaTbtgc2rRB9DFYFr3G7T79SEednclybN6qPypBG0qmWiblvwLN39mp9SQ1tqMPbXooqbm52QfCW21ceQCv6gchINdTqN77225fPggYvR8Ivp6UWnz/UGJN/nLfj22a21NXh6/q20kA3VggBNBopq2f4VfA6D/2ajQfDSmDtgDoJiUe/QeHADvBLeDoJiX2M/wKAXbyZICQfaT+NJixabaS35vTO4IiIqJVkhhOxNXjTBKdLNy9LMzCOVloESuiE3FOTCIuEcuSGHEmEb0Q58Ql4u4l0QtnErlPRKp/NgCRhdNuceoBOUfBuRO9eDmCfNnWHY+5GL86PhSohC/5whpVeV0KY/9SGOaFHzPDBEyvQrX3b/kvgr2ACZgBAI1X/8R+1aUiWyDzf32UAXiNNFhLA0sDANX4dQAE2Eufjwevd6+ak+o4+wldnc8BfDTc3V+vnZItkHXD6Twtr3EefQEEBED5RwDQmbV8UU7sIwDGI1k7WBZYGlgzIwAKw3oIMl0A5Yqnk/0xW7KF60f9X9UfMoDpMMt6DwQChjbPiE2a35ECcvJZln4HAVkvTNIsHwFAQJ7TDFkv3Ns8q3Y49WMA5WdjQ2n420X5RaSat7Xk4wpx8cHxW4zIwq6lvL6/I6NoKxqrdV/52Bukre4CjIJfrwGu5zuWib+EU8T37QX+XXdpXEcc/KY5Se8Kx16r7Yj9um3SjPpnOjGudao4D4UTzynZZzOqMyDPT/TiOr7fzOzlrCPdKU0T7X6bRPXbpBn19VMj2XSOWPbbJKrfJs2oT5eNZNM5urReztcjWp42ieq3SUN2P0aYN9LMSMJRI7l0j2h52iSq3yZR/TaJ6rdJVL9Novpt0kykISBOV9lEjPO0SbQ8bRLVb5Nm1OcY59lIM+pf/Ggkm84RLU+bRPXbpCH1/2smm67RjPqXcRTtRqLlaZMLAfypRuqeHO54AOMfAGXS0RHGnrr65TXdtjwu7XYzrtvqY9rvdH3ecfV5kndZ/o6rj+AbXs/vqHRdfSjqsPydVx+27K7b2X31u+z4fAH1qbuOzxdQv8OOz1dQv7uOz5dQv7OOz9dQv6uOzxdRv6OOzxnsLX0Aq6tY6PY+Y28u5KusYdHFUXlfxfJ0k6h+m0T12+QY6ge/db0RtmmULp3H6uaVR77cxNNN6oedfGfqF3B/XvcXL66Jvdr09vUkv3zEXgGAe13DmT/JpnO8epxMKoCvLhjFExgEFZhUIFYI1XWSAEAhgBggBjGAbKQABAWSR8LydnXBoPk1QyFApcTVZQDFE6psmFQACQKKp/q9TCrwLABgVqFK+5er2wFA71Ywzp7Xsl9mqQr5OAs8K7gsgR7KLFX9fJz66vroZwZk43GOUUC4AfoAeK4ADBVGP8aZQnU7ZeMfHjd5Vt3+xI8Y/RjnCgDPCg75OAsos1T5H+Nbz7OCKRv/zFFmqSpHAHDFYyAd33r0lcrHP6ofxOD8N4naDRExyXLRYa1kocUl1Yk4J2ISUebluvC9iHPKiDUqcSKS6GpJYWVEElPfblnEiV7Ut4sVpZeXXbLMxomwSGLEJWITEZvUGYqIWBGTyMKISdy9SL2Qs/54beNOrfBc88bu3/Sz91OsXkffX6Mo+30/YzCbx58DAI/1pUezrCCZwJeABai+HYDM+v3eS/35ks1lnqUAgHkA9NqOCQBQ2Tb7Xz/rYFNqC95EGqaACn+MF1oLBkxphjMOAIhUADx/T+36JIkgr7cDMMWrM/OaTe9XUCkAkArgfPPuCcQbd+L5AqyXfTtSIQV+claqzX8DUyqVX2HgBzyvIiuTXlDe24Cg7pY7JE1SFSy93j5XAUGNqrL9k+tsAADqJwM/2acqVHHKegU9fvViH3NVr3n+5VxOWVraJBERdiyycImwS1iSRIQXIry8ziLKuUREnAjXtnjhrFuILJzjl9sT50ScLG9nJ7K8XL2dqxcmzi2cLFwiiXOLKqlamz5xC16IOOGFsKu3yWH+2IZ20e6fYZQt/3gHxuyjjV0Qo2xHoviwLKhJk9/RAGcY3/84GHFWP9FjcIZl/y8iqt8mUf02ieq3SVS/TaL6bRLVb5OofptE9dskqt8mUf02ieq3SVS/TaL6bRLVb5OofptE9dskqt8m/wCg5xPvrhv5gC6OBPg6RMvTJlH9Nonqt8n/A8/TK7GpW9uJAAAAAElFTkSuQmCC;" vertex="1" parent="1">
          <mxGeometry x="70" y="2630" width="740.46" height="550" as="geometry" />
        </mxCell>
        <mxCell id="aWLDNn_hWw4ynje5LRLr-54" value="Паттерн Strategy" style="text;html=1;align=center;verticalAlign=middle;resizable=0;points=[];autosize=1;strokeColor=none;fillColor=none;fontStyle=1;fontSize=25;" vertex="1" parent="1">
          <mxGeometry x="225" y="3270" width="230" height="40" as="geometry" />
        </mxCell>
        <mxCell id="aWLDNn_hWw4ynje5LRLr-55" value="" style="shape=image;verticalLabelPosition=bottom;labelBackgroundColor=default;verticalAlign=top;aspect=fixed;imageAspect=0;image=data:image/jpeg,/9j/4AAQSkZJRgABAQEAYABgAAD/4RDgRXhpZgAATU0AKgAAAAgABAE7AAIAAAAHAAAISodpAAQAAAABAAAIUpydAAEAAAAOAAAQyuocAAcAAAgMAAAAPgAAAAAc6gAAAAgAAAAAAAAAAAAAAAAAAAAAAAAAAAAAAAAAAAAAAAAAAAAAAAAAAAAAAAAAAAAAAAAAAAAAAAAAAAAAAAAAAAAAAAAAAAAAAAAAAAAAAAAAAAAAAAAAAAAAAAAAAAAAAAAAAAAAAAAAAAAAAAAAAAAAAAAAAAAAAAAAAAAAAAAAAAAAAAAAAAAAAAAAAAAAAAAAAAAAAAAAAAAAAAAAAAAAAAAAAAAAAAAAAAAAAAAAAAAAAAAAAAAAAAAAAAAAAAAAAAAAAAAAAAAAAAAAAAAAAAAAAAAAAAAAAAAAAAAAAAAAAAAAAAAAAAAAAAAAAAAAAAAAAAAAAAAAAAAAAAAAAAAAAAAAAAAAAAAAAAAAAAAAAAAAAAAAAAAAAAAAAAAAAAAAAAAAAAAAAAAAAAAAAAAAAAAAAAAAAAAAAAAAAAAAAAAAAAAAAAAAAAAAAAAAAAAAAAAAAAAAAAAAAAAAAAAAAAAAAAAAAAAAAAAAAAAAAAAAAAAAAAAAAAAAAAAAAAAAAAAAAAAAAAAAAAAAAAAAAAAAAAAAAAAAAAAAAAAAAAAAAAAAAAAAAAAAAAAAAAAAAAAAAAAAAAAAAAAAAAAAAAAAAAAAAAAAAAAAAAAAAAAAAAAAAAAAAAAAAAAAAAAAAAAAAAAAAAAAAAAAAAAAAAAAAAAAAAAAAAAAAAAAAAAAAAAAAAAAAAAAAAAAAAAAAAAAAAAAAAAAAAAAAAAAAAAAAAAAAAAAAAAAAAAAAAAAAAAAAAAAAAAAAAAAAAAAAAAAAAAAAAAAAAAAAAAAAAAAAAAAAAAAAAAAAAAAAAAAAAAAAAAAAAAAAAAAAAAAAAAAAAAAAAAAAAAAAAAAAAAAAAAAAAAAAAAAAAAAAAAAAAAAAAAAAAAAAAAAAAAAAAAAAAAAAAAAAAAAAAAAAAAAAAAAAAAAAAAAAAAAAAAAAAAAAAAAAAAAAAAAAAAAAAAAAAAAAAAAAAAAAAAAAAAAAAAAAAAAAAAAAAAAAAAAAAAAAAAAAAAAAAAAAAAAAAAAAAAAAAAAAAAAAAAAAAAAAAAAAAAAAAAAAAAAAAAAAAAAAAAAAAAAAAAAAAAAAAAAAAAAAAAAAAAAAAAAAAAAAAAAAAAAAAAAAAAAAAAAAAAAAAAAAAAAAAAAAAAAAAAAAAAAAAAAAAAAAAAAAAAAAAAAAAAAAAAAAAAAAAAAAAAAAAAAAAAAAAAAAAAAAAAAAAAAAAAAAAAAAAAAAAAAAAAAAAAAAAAAAAAAAAAAAAAAAAAAAAAAAAAAAAAAAAAAAAAAAAAAAAAAAAAAAAAAAAAAAAAAAAAAAAAAAAAAAAAAAAAAAAAAAAAAAAAAAAAAAAAAAAAAAAAAAAAAAAAAAAAAAAAAAAAAAAAAAAAAAAAAAAAAAAAAAAAAAAAAAAAAAAAAAAAAAAAAAAAAAAAAAAAAAAAAAAAAAAAAAAAAAAAAAAAAAAAAAAAAAAAAAAAAAAAAAAAAAAAAAAAAAAAAAAAAAAAAAAAAAAAAAAAAAAAAAAAAAAAAAAAAAAAAAAAAAAAAAAAAAAAAAAAAAAAAAAAAAAAAAAAAAAAAAAAAAAAAAAAAAAAAAAAAAAAAAAAAAAAAAAAAAAAAAAAAAAAAAAAAAAAAAAAAAAAAAAAAAAAAAAAAAAAAAAAAAAAAAAAAAAAAAAAAAAAAAAAAAAAAAAAAAAAAAAAAAAAAAAAAAAAAAAAAAAAAAAAAAAAAAAAAAAAAAAAAAAAAAAAAAAAAAAAAAAAAAAAAAAAAAAAAAAAAAAAAAAAAAAAAAAAAAAAAAAAAAAAAAAAAAAAAAAAAAAAAAAAAAAAAAAAAAAAAAAAAAAAAAAAAAAAAAAAAAAAAAAAAAAAAAAAAAAAAAAAAAAAAAAAAAAAAAAAAAAAAAAAAAAAAAAAAAAAAAAAAAAAAAAAAAAAAAAAAAAAAAAAAAAAAAAAAAAAAAAAAAAAAAAAAAAAAAAAAAAAAAAAAAAAAAAAAAAAAAAAAAAAAAAAAAAAAAAAAAAAAAAAAAAAAAAAAAAAAAAAAAAAAAAAAAAAAAAAAAAAAAAAAAAAAAAAAAAAAAAAAAAAAAAAAAAAAAAAAAAAAAAAAAAAAAAAAAAAAAAAAAAAAAAAAAAAAAAAAAAAAAAAAAAAAAAAAAAAAAAAAAAAAAAAAAAAAAAAAAAAAAAAAAAAAAAAAAAAAAAAAAAAAAAAAAAAAAAAAAAAAAAAAAAAAAAAAAAAAAAAAAAAAAAAAAAAAAAAAAAAAAAAAAAAAAAAAAAAAAAAAAAAAAAAAAAAAAAAAAAAAAAAAAAAAAAAAAAAAAAAAAAAAAAAAAAAAAAAAAAAAAAAAAAAAAAAAAAAAAAAAAAAAAAAAAAAAAAAAAAAAAAAAAAAAAAAAAAAAAAAAAAAAAAAAAAAAAAAAAAAAAAAAAAAAAAAAAAAAAAAAAAAAAAAAAAAAAAAAAAAAAAAAAAAAAAAAAAAAAAAAAAAAAAAAAAAAAAAAAAAAAAAAAAAAAAAAAAAAAAAAAAAAAAAAAAAAAAAAAAAAAAAAAAAAAAAAAAAAAAAAAAAAAAAAAAAAAAAAAAAAAAAAAAAAAAAAAAAAAAAAAAAAAAAAAAAAAAAAAAAAAAAAAAAAAAAAAAAAAAAAAAAAAAAAAAAAAAAAAAAAAAAAAAAAAAAAAAAAAAAAAAAAAAAAAAAAAAAAAAAAAAAAAAAAAAAAAAAAAAAAAAAAAAAAAAAAAEFyY2hpdAAAAAWQAwACAAAAFAAAEKCQBAACAAAAFAAAELSSkQACAAAAAzU4AACSkgACAAAAAzU4AADqHAAHAAAIDAAACJQAAAAAHOoAAAAIAAAAAAAAAAAAAAAAAAAAAAAAAAAAAAAAAAAAAAAAAAAAAAAAAAAAAAAAAAAAAAAAAAAAAAAAAAAAAAAAAAAAAAAAAAAAAAAAAAAAAAAAAAAAAAAAAAAAAAAAAAAAAAAAAAAAAAAAAAAAAAAAAAAAAAAAAAAAAAAAAAAAAAAAAAAAAAAAAAAAAAAAAAAAAAAAAAAAAAAAAAAAAAAAAAAAAAAAAAAAAAAAAAAAAAAAAAAAAAAAAAAAAAAAAAAAAAAAAAAAAAAAAAAAAAAAAAAAAAAAAAAAAAAAAAAAAAAAAAAAAAAAAAAAAAAAAAAAAAAAAAAAAAAAAAAAAAAAAAAAAAAAAAAAAAAAAAAAAAAAAAAAAAAAAAAAAAAAAAAAAAAAAAAAAAAAAAAAAAAAAAAAAAAAAAAAAAAAAAAAAAAAAAAAAAAAAAAAAAAAAAAAAAAAAAAAAAAAAAAAAAAAAAAAAAAAAAAAAAAAAAAAAAAAAAAAAAAAAAAAAAAAAAAAAAAAAAAAAAAAAAAAAAAAAAAAAAAAAAAAAAAAAAAAAAAAAAAAAAAAAAAAAAAAAAAAAAAAAAAAAAAAAAAAAAAAAAAAAAAAAAAAAAAAAAAAAAAAAAAAAAAAAAAAAAAAAAAAAAAAAAAAAAAAAAAAAAAAAAAAAAAAAAAAAAAAAAAAAAAAAAAAAAAAAAAAAAAAAAAAAAAAAAAAAAAAAAAAAAAAAAAAAAAAAAAAAAAAAAAAAAAAAAAAAAAAAAAAAAAAAAAAAAAAAAAAAAAAAAAAAAAAAAAAAAAAAAAAAAAAAAAAAAAAAAAAAAAAAAAAAAAAAAAAAAAAAAAAAAAAAAAAAAAAAAAAAAAAAAAAAAAAAAAAAAAAAAAAAAAAAAAAAAAAAAAAAAAAAAAAAAAAAAAAAAAAAAAAAAAAAAAAAAAAAAAAAAAAAAAAAAAAAAAAAAAAAAAAAAAAAAAAAAAAAAAAAAAAAAAAAAAAAAAAAAAAAAAAAAAAAAAAAAAAAAAAAAAAAAAAAAAAAAAAAAAAAAAAAAAAAAAAAAAAAAAAAAAAAAAAAAAAAAAAAAAAAAAAAAAAAAAAAAAAAAAAAAAAAAAAAAAAAAAAAAAAAAAAAAAAAAAAAAAAAAAAAAAAAAAAAAAAAAAAAAAAAAAAAAAAAAAAAAAAAAAAAAAAAAAAAAAAAAAAAAAAAAAAAAAAAAAAAAAAAAAAAAAAAAAAAAAAAAAAAAAAAAAAAAAAAAAAAAAAAAAAAAAAAAAAAAAAAAAAAAAAAAAAAAAAAAAAAAAAAAAAAAAAAAAAAAAAAAAAAAAAAAAAAAAAAAAAAAAAAAAAAAAAAAAAAAAAAAAAAAAAAAAAAAAAAAAAAAAAAAAAAAAAAAAAAAAAAAAAAAAAAAAAAAAAAAAAAAAAAAAAAAAAAAAAAAAAAAAAAAAAAAAAAAAAAAAAAAAAAAAAAAAAAAAAAAAAAAAAAAAAAAAAAAAAAAAAAAAAAAAAAAAAAAAAAAAAAAAAAAAAAAAAAAAAAAAAAAAAAAAAAAAAAAAAAAAAAAAAAAAAAAAAAAAAAAAAAAAAAAAAAAAAAAAAAAAAAAAAAAAAAAAAAAAAAAAAAAAAAAAAAAAAAAAAAAAAAAAAAAAAAAAAAAAAAAAAAAAAAAAAAAAAAAAAAAAAAAAAAAAAAAAAAAAAAAAAAAAAAAAAAAAAAAAAAAAAAAAAAAAAAAAAAAAAAAAAAAAAAAAAAAAAAAAAAAAAAAAAAAAAAAAAAAAAAAAAAAAAAAAAAAAAAAAAAAAAAAAAAAAAAAAAAAAAAAAAAAAAAAAAAAAAAAAAAAAAAAAAAAAAAAAAAAAAAAAAAAAAAAAAAAAAAAAAAAAAAAAAAAAAAAAAAAAAAAAAAAAAAAAAAAAAAAAAAAAAAAAAAAAAAAAAAAAAAAAAAAAAAAAAAAAAAAAAAAAAAAAAAAAAAAAAAAAAAAAAAAAAAAAAAAAAAAAAAAAAAAAAAAAAAAAAAAAAAAAAAAAAAAAAAAAAAAAAAAAAAAAAAAAAAAAAAAAAAAAAAAAAAAAAAAAAAAAAAAAAAAAAAAAAAAAAAAAAAAAAAAAAAAAAAAAAAAAAAAAAAAAAAAAAAAAAAAAAAAAAAAAAAAAAAAAAAAAAAAAAAAAAAAAAAAAAAAAAAAAAAAAAAAAAAAAAAAAAAAAAAAAAAAAAAAAAAAAAAAAAAAAAAAAAAAAAAAAAAAAAAAAAAAAAAAAAAAAAAAAAAAAAAAAAAAAAAAAAAAAAAAAAAAAAAAAAAAAAAAAAAAAAAAAAAAAAAAAAAAAAAAAAAAAAAAAAAAAAAAAAAAAAAAAAAAAAAAAAAAAAAAAAAAAAAAAAAAAAAAAAAAAAAAAAAAAAAAAAAAAAAAAAAAAAAAAAAAAAAAAAAAAAAAAAAAAAAAAAAAAAAAAAAAAAAAAAAAAAAAAAAAAAAAAAAAAAAAAAAAAAAAAAAAAAAAAAAAAAAAAAAAAAAAAAAAAAAAAAAAAAAAAAAAAAAAAAAAAAAAAAAAAAAAAAAAAAAAAAAAAAAAAAAAAAAAAAAAAAAAAAAAAAAAAAAAAAAAAAAAAAAAAAAAAAAAAAAAAAAAAAAAAAAAAAAAAAAAAAAAAAAAAAAAAAAAAAAAAAAAAAAAAAAAAAAAAAAAAAAAAAAAAAAAAAAAAAAAAAAAAAAAAAAAAAAAAAAAAAAAAAAAAAAAAAAAAAAAAAAAAAAAAAAAAAAAAAAAAyMDE4OjAyOjEyIDEzOjE5OjA4ADIwMTg6MDI6MTIgMTM6MTk6MDgAAABBAHIAYwBoAGkAdAAAAP/hCxlodHRwOi8vbnMuYWRvYmUuY29tL3hhcC8xLjAvADw/eHBhY2tldCBiZWdpbj0n77u/JyBpZD0nVzVNME1wQ2VoaUh6cmVTek5UY3prYzlkJz8+DQo8eDp4bXBtZXRhIHhtbG5zOng9ImFkb2JlOm5zOm1ldGEvIj48cmRmOlJERiB4bWxuczpyZGY9Imh0dHA6Ly93d3cudzMub3JnLzE5OTkvMDIvMjItcmRmLXN5bnRheC1ucyMiPjxyZGY6RGVzY3JpcHRpb24gcmRmOmFib3V0PSJ1dWlkOmZhZjViZGQ1LWJhM2QtMTFkYS1hZDMxLWQzM2Q3NTE4MmYxYiIgeG1sbnM6ZGM9Imh0dHA6Ly9wdXJsLm9yZy9kYy9lbGVtZW50cy8xLjEvIi8+PHJkZjpEZXNjcmlwdGlvbiByZGY6YWJvdXQ9InV1aWQ6ZmFmNWJkZDUtYmEzZC0xMWRhLWFkMzEtZDMzZDc1MTgyZjFiIiB4bWxuczp4bXA9Imh0dHA6Ly9ucy5hZG9iZS5jb20veGFwLzEuMC8iPjx4bXA6Q3JlYXRlRGF0ZT4yMDE4LTAyLTEyVDEzOjE5OjA4LjU4MDwveG1wOkNyZWF0ZURhdGU+PC9yZGY6RGVzY3JpcHRpb24+PHJkZjpEZXNjcmlwdGlvbiByZGY6YWJvdXQ9InV1aWQ6ZmFmNWJkZDUtYmEzZC0xMWRhLWFkMzEtZDMzZDc1MTgyZjFiIiB4bWxuczpkYz0iaHR0cDovL3B1cmwub3JnL2RjL2VsZW1lbnRzLzEuMS8iPjxkYzpjcmVhdG9yPjxyZGY6U2VxIHhtbG5zOnJkZj0iaHR0cDovL3d3dy53My5vcmcvMTk5OS8wMi8yMi1yZGYtc3ludGF4LW5zIyI+PHJkZjpsaT5BcmNoaXQ8L3JkZjpsaT48L3JkZjpTZXE+DQoJCQk8L2RjOmNyZWF0b3I+PC9yZGY6RGVzY3JpcHRpb24+PC9yZGY6UkRGPjwveDp4bXBtZXRhPg0KICAgICAgICAgICAgICAgICAgICAgICAgICAgICAgICAgICAgICAgICAgICAgICAgICAgICAgICAgICAgICAgICAgICAgICAgICAgICAgICAgICAgICAgICAgICAgICAgICAgIAogICAgICAgICAgICAgICAgICAgICAgICAgICAgICAgICAgICAgICAgICAgICAgICAgICAgICAgICAgICAgICAgICAgICAgICAgICAgICAgICAgICAgICAgICAgICAgICAgICAgCiAgICAgICAgICAgICAgICAgICAgICAgICAgICAgICAgICAgICAgICAgICAgICAgICAgICAgICAgICAgICAgICAgICAgICAgICAgICAgICAgICAgICAgICAgICAgICAgICAgICAKICAgICAgICAgICAgICAgICAgICAgICAgICAgICAgICAgICAgICAgICAgICAgICAgICAgICAgICAgICAgICAgICAgICAgICAgICAgICAgICAgICAgICAgICAgICAgICAgICAgIAogICAgICAgICAgICAgICAgICAgICAgICAgICAgICAgICAgICAgICAgICAgICAgICAgICAgICAgICAgICAgICAgICAgICAgICAgICAgICAgICAgICAgICAgICAgICAgICAgICAgCiAgICAgICAgICAgICAgICAgICAgICAgICAgICAgICAgICAgICAgICAgICAgICAgICAgICAgICAgICAgICAgICAgICAgICAgICAgICAgICAgICAgICAgICAgICAgICAgICAgICAKICAgICAgICAgICAgICAgICAgICAgICAgICAgICAgICAgICAgICAgICAgICAgICAgICAgICAgICAgICAgICAgICAgICAgICAgICAgICAgICAgICAgICAgICAgICAgICAgICAgIAogICAgICAgICAgICAgICAgICAgICAgICAgICAgICAgICAgICAgICAgICAgICAgICAgICAgICAgICAgICAgICAgICAgICAgICAgICAgICAgICAgICAgICAgICAgICAgICAgICAgCiAgICAgICAgICAgICAgICAgICAgICAgICAgICAgICAgICAgICAgICAgICAgICAgICAgICAgICAgICAgICAgICAgICAgICAgICAgICAgICAgICAgICAgICAgICAgICAgICAgICAKICAgICAgICAgICAgICAgICAgICAgICAgICAgICAgICAgICAgICAgICAgICAgICAgICAgICAgICAgICAgICAgICAgICAgICAgICAgICAgICAgICAgICAgICAgICAgICAgICAgIAogICAgICAgICAgICAgICAgICAgICAgICAgICAgICAgICAgICAgICAgICAgICAgICAgICAgICAgICAgICAgICAgICAgICAgICAgICAgICAgICAgICAgICAgICAgICAgICAgICAgCiAgICAgICAgICAgICAgICAgICAgICAgICAgICAgICAgICAgICAgICAgICAgICAgICAgICAgICAgICAgICAgICAgICAgICAgICAgICAgICAgICAgICAgICAgICAgICAgICAgICAKICAgICAgICAgICAgICAgICAgICAgICAgICAgICAgICAgICAgICAgICAgICAgICAgICAgICAgICAgICAgICAgICAgICAgICAgICAgICAgICAgICAgICAgICAgICAgICAgICAgIAogICAgICAgICAgICAgICAgICAgICAgICAgICAgICAgICAgICAgICAgICAgICAgICAgICAgICAgICAgICAgICAgICAgICAgICAgICAgICAgICAgICAgICAgICAgICAgICAgICAgCiAgICAgICAgICAgICAgICAgICAgICAgICAgICAgICAgICAgICAgICAgICAgICAgICAgICAgICAgICAgICAgICAgICAgICAgICAgICAgICAgICAgICAgICAgICAgICAgICAgICAKICAgICAgICAgICAgICAgICAgICAgICAgICAgICAgICAgICAgICAgICAgICAgICAgICAgICAgICAgICAgICAgICAgICAgICAgICAgICAgICAgICAgICAgICAgICAgICAgICAgIAogICAgICAgICAgICAgICAgICAgICAgICAgICAgICAgICAgICAgICAgICAgICAgICAgICAgICAgICAgICAgICAgICAgICAgICAgICAgICAgICAgICAgICAgICAgICAgICAgICAgCiAgICAgICAgICAgICAgICAgICAgICAgICAgICAgICAgICAgICAgICAgICAgICAgICAgICAgICAgICAgICAgICAgICAgICAgICAgICAgICAgICAgICAgICAgICAgICAgICAgICAKICAgICAgICAgICAgICAgICAgICAgICAgICAgICAgICAgICAgICAgICAgICAgICAgICAgICAgICAgICAgICAgICAgICAgICAgICAgICAgICAgICAgICAgICAgICAgICAgICAgIAogICAgICAgICAgICAgICAgICAgICAgICAgICAgICAgICAgICAgICAgICAgICAgICAgICAgICAgICAgICAgICAgICAgICAgICAgICAgICAgICAgICAgICAgICAgICAgICAgICAgCiAgICAgICAgICAgICAgICAgICAgICAgICAgICA8P3hwYWNrZXQgZW5kPSd3Jz8+/9sAQwAHBQUGBQQHBgUGCAcHCAoRCwoJCQoVDxAMERgVGhkYFRgXGx4nIRsdJR0XGCIuIiUoKSssKxogLzMvKjInKisq/9sAQwEHCAgKCQoUCwsUKhwYHCoqKioqKioqKioqKioqKioqKioqKioqKioqKioqKioqKioqKioqKioqKioqKioqKioq/8AAEQgBcwJcAwEiAAIRAQMRAf/EAB8AAAEFAQEBAQEBAAAAAAAAAAABAgMEBQYHCAkKC//EALUQAAIBAwMCBAMFBQQEAAABfQECAwAEEQUSITFBBhNRYQcicRQygZGhCCNCscEVUtHwJDNicoIJChYXGBkaJSYnKCkqNDU2Nzg5OkNERUZHSElKU1RVVldYWVpjZGVmZ2hpanN0dXZ3eHl6g4SFhoeIiYqSk5SVlpeYmZqio6Slpqeoqaqys7S1tre4ubrCw8TFxsfIycrS09TV1tfY2drh4uPk5ebn6Onq8fLz9PX29/j5+v/EAB8BAAMBAQEBAQEBAQEAAAAAAAABAgMEBQYHCAkKC//EALURAAIBAgQEAwQHBQQEAAECdwABAgMRBAUhMQYSQVEHYXETIjKBCBRCkaGxwQkjM1LwFWJy0QoWJDThJfEXGBkaJicoKSo1Njc4OTpDREVGR0hJSlNUVVZXWFlaY2RlZmdoaWpzdHV2d3h5eoKDhIWGh4iJipKTlJWWl5iZmqKjpKWmp6ipqrKztLW2t7i5usLDxMXGx8jJytLT1NXW19jZ2uLj5OXm5+jp6vLz9PX29/j5+v/aAAwDAQACEQMRAD8A+kaKK5v4g+Lv+EE8Cah4j+xfb/sXlf6P5vlb98qx/e2tjG/PQ9KAOkorzb/hNvid/wBEj/8ALltv/iaP+E2+J3/RI/8Ay5bb/wCJoA9Jorzb/hNvid/0SP8A8uW2/wDiaP8AhNvid/0SP/y5bb/4mgD0mivNv+E2+J3/AESP/wAuW2/+Jo/4Tb4nf9Ej/wDLltv/AImgD0mivNv+E2+J3/RI/wDy5bb/AOJo/wCE2+J3/RI//Lltv/iaAPSaK82/4Tb4nf8ARI//AC5bb/4mj/hNvid/0SP/AMuW2/8AiaAPSaK82/4Tb4nf9Ej/APLltv8A4mj/AITb4nf9Ej/8uW2/+JoA9Jorzb/hNvid/wBEj/8ALltv/iaP+E2+J3/RI/8Ay5bb/wCJoA9Jorzb/hNvid/0SP8A8uW2/wDiaP8AhNvid/0SP/y5bb/4mgD0mivNv+E2+J3/AESP/wAuW2/+Jo/4Tb4nf9Ej/wDLltv/AImgD0mivNv+E2+J3/RI/wDy5bb/AOJo/wCE2+J3/RI//Lltv/iaAPSaK82/4Tb4nf8ARI//AC5bb/4mj/hNvid/0SP/AMuW2/8AiaAPSaK4nwH481TxVr2v6Nr3hr/hH9Q0P7N5sP29brd5ys4+ZVAHyqDwT97tiu2oAKKKKACiiigAooooAKKKKACiiigAooooAKKKKACiiigAooooAKKKKACiiigAooooAKKKKACiiigAooooAKKKKACiiigAooooAKKKKACiiigAooooAKKKKACiiigAooooAKKKKACvNv2g/wDkhPiH/t2/9KYq9Jrzb9oP/khPiH/t2/8ASmKgD0miiigAooooAKKKKACqt9qmn6YqNqV9bWaucIbiZY930yeatV5no/hzTvGfi3xDe+JFe7e0ufs0NuZWQRIOh+Ug+vt161z1ak1JQprV3320OevUnBJQV23ZX22b/Q9IguIbq3Se1lSaGQbkkjYMrD1BHWpK4WC2tPhz4V1y70q9a/jScmO2dwVgc4AQ45zyM9CQB06mB9V8UeHH0jUNa1WHUrTUpkhmtharH9nL8gqw5bHTn/64SxCulJdr9lfb8exk8U4RXtI69bapK9r9NPx8j0GmTTxW6hp5UiVmCAuwALE4A57k8V56NS8V6trvia207W4rK30yTMW60SRujEJk9jjknJ6e9Yer3+r+JNE8HalLqC28094IgEt1IWUOQJeevAHy9Kz+tpxTjF627bN27/16amdXHKClaLuua21nyuz6+f3eZ7DRXlmveN7+11640k+JItK/s6BVNw2n+a17NtBOQAQi/Tp79tK58WazdeANP8VWEkcX2d839oFXbMofacMwJH4Hv7U1jKT5mtlv6Xtf0XnrboUsfScpQSd43006b9en49LnoBIVSWIAAySe1NimjuIUmgkWWKRQyOjAqwPQgjqK81vbrXfEHwx1jWbvUlhgud0kFqkKMFgUkbC2M5Prk4x711ngW3u7fwbp/wBuvftZkhR4v3Qj8pCgwnHXHqeTWtOs5zceVrRP77/5fn5XunivaVIxjF2abv8AP+vvXmdDRRRW52BRRRQAUUUUAebeCf8Aku3xP/7hP/pM1ek15t4J/wCS7fE//uE/+kzV6TQAUUUUAFFFFABRRRQAUUUUAFFFFABRRRQAUUUUAFFFFABRRRQAUUUUAFFFFABRRRQAUUUUAFFFFABRRRQAUUUUAFFFFABRRRQAUUUUAFFFFABRRRQAUUUUAFFFFABRRRQAUUUUAFebftB/8kJ8Q/8Abt/6UxV6TXm37Qf/ACQnxD/27f8ApTFQB6TRRRQAUUUUAFFFFABXGa98Pf7R1qTVtE1q60S7nGLhrfOJfyZSDxzyRx0rs6KyqUYVVaaMqtGFaPLNXRymkfD7TNN8O32l3Ms14+o83dy5w7nsR1xg8855POahsvAt19ssTrmvzarZ6awe0tWt1j2sOFLMDl8D1/xB7GipVCmmmltb8NvW3S+xl9Uo8qjy6L1/Hv8AM5/TfC39n6lr139s8z+2GDbPKx5PBHXPzdfaspvh648K6VpVvq5hudLuDcQ3YtgwLZJ5Qt7+vau1oo9hT5eW3bv0d1+JUsNSkrNd+/2nd/e/u6HIXfgrUDqDajpXiOXT765gWG+lW1RluCoA3hcjY3HUH6YqxqXg1tTsdM0651W4msLNxJcRzgySXZByNzk8DPbH9K6ein7Cnrp5/jfb16bC+q0tdN99X/n169+pydp4GWz03WtLi1AjS9SDGK2EXNqW67W3cj2wOla3hrSbzQ9GjsL7Uv7R8nCxSeQItiAABcAnOMdTzzWtRThShT+Htb5Lb7io4enCSlFbX79d/wCunQKKKK1NwooooAKKKKAPNvBP/Jdvif8A9wn/ANJmr0mvMPCt5b6f8avipd3sywwQrpTPI5wFH2Zq9E0vVLPWdOivtNnWe3lGVZf5EdiPSlzK/LfUv2c+Tntptfpct0UUUyAooooAKKKKACiiigAooooAKKKKACiiigAooooAKKKKACiiigAooooAKKKKACiiigAooooAKKKKACiiigAooooAKKKKACiiigAooooAKKKKACiiigAooooAKKKKACiiigArzb9oP/khPiH/ALdv/SmKvSa82/aD/wCSE+If+3b/ANKYqAD/AIQn4nf9Fc/8tq2/+Ko/4Qn4nf8ARXP/AC2rb/4qvSaKAPNv+EJ+J3/RXP8Ay2rb/wCKo/4Qn4nf9Fc/8tq2/wDiq9JooA82/wCEJ+J3/RXP/Latv/iqP+EJ+J3/AEVz/wAtq2/+Kr0migDzb/hCfid/0Vz/AMtq2/8AiqP+EJ+J3/RXP/Latv8A4qvSaKAPNv8AhCfid/0Vz/y2rb/4qj/hCfid/wBFc/8ALatv/iq9JooA82/4Qn4nf9Fc/wDLatv/AIqj/hCfid/0Vz/y2rb/AOKr0migDzb/AIQn4nf9Fc/8tq2/+Ko/4Qn4nf8ARXP/AC2rb/4qvSaKAPNv+EJ+J3/RXP8Ay2rb/wCKo/4Qn4nf9Fc/8tq2/wDiq9JooA82/wCEJ+J3/RXP/Latv/iqP+EJ+J3/AEVz/wAtq2/+Kr0migDzb/hCfid/0Vz/AMtq2/8AiqP+EJ+J3/RXP/Latv8A4qvSaKAPNv8AhCfid/0Vz/y2rb/4qj/hCfid/wBFc/8ALatv/iq9JooA+Zp/DXieTxp4+hutWbXLrT5NPk1C5SBbc3Ktbko3lJ8o2DI465zXa/DXwx4pfTJr2w1ltFtLggxhrZZvOx/EFbgD37/StvwT/wAl2+J//cJ/9Jmr0gAKoCgAAYAHauGWChKv7Zt/f+p71LO61LAfU4wjvu0npvs1Zu/VnJ/8I74x/wCh5/8AKRD/AI0f8I74x/6Hn/ykQ/411tFbfV4d3/4FL/M4f7Rrfyw/8Fw/+ROS/wCEd8Y/9Dz/AOUiH/Gj/hHfGP8A0PP/AJSIf8a62ij6vDu//Apf5h/aNb+WH/guH/yJyX/CO+Mf+h5/8pEP+NH/AAjvjH/oef8AykQ/411tFH1eHd/+BS/zD+0a38sP/BcP/kTkv+Ed8Y/9Dz/5SIf8aP8AhHfGP/Q8/wDlIh/xrraKPq8O7/8AApf5h/aNb+WH/guH/wAicl/wjvjH/oef/KRD/jR/wjvjH/oef/KRD/jXW0UfV4d3/wCBS/zD+0a38sP/AAXD/wCROS/4R3xj/wBDz/5SIf8AGj/hHfGP/Q8/+UiH/Gutoo+rw7v/AMCl/mH9o1v5Yf8AguH/AMicl/wjvjH/AKHn/wApEP8AjR/wjvjH/oef/KRD/jXW0UfV4d3/AOBS/wAw/tGt/LD/AMFw/wDkTkv+Ed8Y/wDQ8/8AlIh/xo/4R3xj/wBDz/5SIf8AGutoo+rw7v8A8Cl/mH9o1v5Yf+C4f/InJf8ACO+Mf+h5/wDKRD/jUc1l480uJp7XV7LXNnJt57QQM49AVOM/Wuxoo+rx6N/e/wBWNZhUv70INf4Ir8Uk/uZk+GvEFv4l0ZL63RoWDGOaF/vRSDqp/wA961q5Dwqn2bx14wtE4jWe3nAHTdJGWauvqqMpSheW+q+52MsdShSrtU/haTXkpJSt8rhRRRWxxhRRRQAUUUUAFFFFABRRRQAUUUUAFFFFABRRRQAUUUUAFFFFABRRRQAUUUUAFFFFABRRRQAUUUUAFebftB/8kJ8Q/wDbt/6UxV6TXm37Qf8AyQnxD/27f+lMVAHpNFFFABRRRQAVzM2v6lH4ujsk0i+a3+yyP5Qa3y5DqBICZOmCeCQeenp01MMERuBOYkMwUoJNo3BSckZ64yBxUyi200/6sZ1IylG0Xbb8zM8QXX2W2s28iGbzL6CPEybgu5wNw9GHUHsaqSa/dJod7eCOHzIL82yjacFfNCZPPXB/OrPiC1ur5tPt7W3Z1W9inlm3KFjVGDHOTkk4wMA++KiufCdtcvMDe3qW01wLlrVHXyxKGDbgSu7kjpnHJ4rGXtG3y+f/ALbr+ZnPn53y9l/7d/wDOuPEOtompXcCWBtrHUBaCF0cPKCUGd4bCkb/AO6c+1OvPEGr6f8A2jbOtlc3Vq9t5TrG8SOJW24ILMQRg8579K128PWjWl5bmSbZeXQupDuGQ+VOBx0+QfrVLxD4d+3Q3clr5rz3klssiiQLtSN85U8EHBJ69hip5KiitddPy1/EiUKq5pJ9/wBbfoVdU1/U9IttStr5raa6jsvtNvNbxNGuC2wgqzNyCQc559BirU9rHoN3or2vCs/2Kb/poGBYMfU7xnP+03rU8vhmGayvo7q6uL24u4PJNxc7dyL/AAgBFUAA88DJPU9KFtb/AFG80t9Qg8hLNTNL86nfNgoAME8YLNnjqvuBSjK6+X3Xd/8AyXR9/MOWet/l1ttv87P0RsSCUyRmJ0VA37wMhJYY6A5GDnHPP9aoalqM2n6jpyssZtLqUwSOchkcjKY7YJBH1Iq/JGzyRsszxhGyyqFw/GMHIJx34x0qrq+lW+taXNYXZdY5QPnjOHQg5BU9iCK1nzW93c6JJtO25i2+vanqU1vb2S20D3bTzRSzRMwS3jYKpKBhuZiQeoGD3qL/AISKT7RZf2ha2rTW93cQXEiIW2mOEvujyflyMcc9SPetifQbeSKzFrPPZS2KeXBNbldypgAqQwKkEAdQenFMh8NWUP2Q75pGtpZJi0jBjM8ilWL8c5BPTA/DisnGpqk+m/3Wf3Xv/VsOSrdX8vu6r7/w0MR7rVb678N3t79k+zXVz5sccKMrwgxOVDMWIfg8kBcH1rsqw4fC1vDdWUn269kisHL2tu7r5cPBXaPl3EYOBuJIxwa3K0pppP1/RF0Yzjfn3CiiitDcKKKKAPNvBP8AyXb4n/8AcJ/9Jmr0mvNvBP8AyXb4n/8AcJ/9Jmr0mgAooooAKKKKACiiigAooooAKKKKACiiigAooooAKKKKACiiigDkvDv/ACUrxj/24/8Aok11tcl4d/5KV4x/7cf/AESa62ufD/A/WX/pTPQzH+NH/BT/APTcQoooroPPCiiigAooooAKKKKACiiigAooooAKKKKACiiigAooooAKKKKACiiigAooooAKKKKACiiigAooooAK82/aD/5IT4h/7dv/AEpir0mq2oabY6vYSWOq2dvfWkuPMt7mJZI3wQRlWBBwQD9RQBif8LH8Ef8AQ5eH/wDwaQf/ABVH/Cx/BH/Q5eH/APwaQf8AxVH/AArjwR/0Jvh//wAFcH/xNH/CuPBH/Qm+H/8AwVwf/E0AH/Cx/BH/AEOXh/8A8GkH/wAVR/wsfwR/0OXh/wD8GkH/AMVR/wAK48Ef9Cb4f/8ABXB/8TR/wrjwR/0Jvh//AMFcH/xNAB/wsfwR/wBDl4f/APBpB/8AFUf8LH8Ef9Dl4f8A/BpB/wDFUf8ACuPBH/Qm+H//AAVwf/E0f8K48Ef9Cb4f/wDBXB/8TQAf8LH8Ef8AQ5eH/wDwaQf/ABVH/Cx/BH/Q5eH/APwaQf8AxVH/AArjwR/0Jvh//wAFcH/xNH/CuPBH/Qm+H/8AwVwf/E0AH/Cx/BH/AEOXh/8A8GkH/wAVR/wsfwR/0OXh/wD8GkH/AMVR/wAK48Ef9Cb4f/8ABXB/8TR/wrjwR/0Jvh//AMFcH/xNAB/wsfwR/wBDl4f/APBpB/8AFUf8LH8Ef9Dl4f8A/BpB/wDFUf8ACuPBH/Qm+H//AAVwf/E0f8K48Ef9Cb4f/wDBXB/8TQAf8LH8Ef8AQ5eH/wDwaQf/ABVH/Cx/BH/Q5eH/APwaQf8AxVH/AArjwR/0Jvh//wAFcH/xNH/CuPBH/Qm+H/8AwVwf/E0AH/Cx/BH/AEOXh/8A8GkH/wAVR/wsfwR/0OXh/wD8GkH/AMVR/wAK48Ef9Cb4f/8ABXB/8TR/wrjwR/0Jvh//AMFcH/xNAB/wsfwR/wBDl4f/APBpB/8AFUf8LH8Ef9Dl4f8A/BpB/wDFUf8ACuPBH/Qm+H//AAVwf/E0f8K48Ef9Cb4f/wDBXB/8TQAf8LH8Ef8AQ5eH/wDwaQf/ABVH/Cx/BH/Q5eH/APwaQf8AxVH/AArjwR/0Jvh//wAFcH/xNH/CuPBH/Qm+H/8AwVwf/E0AH/Cx/BH/AEOXh/8A8GkH/wAVR/wsfwR/0OXh/wD8GkH/AMVR/wAK48Ef9Cb4f/8ABXB/8TR/wrjwR/0Jvh//AMFcH/xNAHI/DnUrHV/jP8S77Sry3vrSX+yvLuLaVZI3xbuDhlJBwQR9RXqVZukeHND8P+d/YOjafpnn7fN+xWqQ+ZtzjdtAzjJxn1NaVABRRRQAUUUUAFFFFABRRRQAUUUUAFFFFABRRRQAUUUUAFFFFAHJeHf+SleMf+3H/wBEmutrkvDv/JSvGP8A24/+iTXW1z4f4H6y/wDSmehmP8aP+Cn/AOm4hRRRXQeeFFFFABRRRQAUUUUAFFFFABRRRQAUUUUAFFFFABRRRQAUUUUAFFFFABRRRQAUUUUAFFFFABRRRQAUUUUAFFFFABRRRQAUUUUAFFFFABRRRQAUUUUAFFFFABRRRQAUUUUAFFFFABRRRQAUUUUAFFFFABRRRQAUUUUAFFFeE/C3wNfeN/hrpfiHVfiD44hu7zzvMS21pljGyZ0GAyk9FHfrQB7tRXm3/Cm/+qj/ABA/8Hn/ANhR/wAKb/6qP8QP/B5/9hQB6TRXm3/Cm/8Aqo/xA/8AB5/9hR/wpv8A6qP8QP8Awef/AGFAHpNFebf8Kb/6qP8AED/wef8A2FH/AApv/qo/xA/8Hn/2FAHpNFeYn4TW4vBZn4neOxctGZRB/b43lAcFtuzOMkDPvVef4ZWcF0Lb/hZvjuSfzY43iXxEgaPfnaWDKDztOAMk44BouB6tRXimo+GPDOnaXqV6fjD4xuRplv8AaLiG28TxPIq8bflxwWJAGcZJHrWgvw+0R7mxt1+L3jHz9QjEtnD/AMJMm+5QjIaNduXGOcjNHmB13h3/AJKV4x/7cf8A0Sa62vDNU8M+FtIvYYLf4n+LrvU7y7WzaGx8RWq3DyYOBKzBSduMDcSRkKoyQDtWnw60bUNQubCw+LvjK6vLTIuLeHxKjyQ4ODvULleeOaypQcI2fdv8b/qdWLrRrVFOO3LBfdFR/NOx6zRXkC+BvDr6PJqyfGXxY2mxP5cl6PFMZhRsgbS+3aDkjjPcVdg+FtjdSxx23xT8cTSSwi4jSPxCrF4j0cAJyp9elanKepUV5jH8Jrea5mt4fid47kng2+dEuvgtHuGRuGzIyORnrUv/AApv/qo/xA/8Hn/2FAHpNFebf8Kb/wCqj/ED/wAHn/2FH/Cm/wDqo/xA/wDB5/8AYUAek0V5t/wpv/qo/wAQP/B5/wDYUf8ACm/+qj/ED/wef/YUAek0V5t/wpv/AKqP8QP/AAef/YViHw/feCPjP4Fsbbxh4o1a01b+0PtNvq2ptPGfKt8r8oAHVs855A6YoA9kooooAKKKKACiiigAooooAKKKKACiiigAooooAKKKKACiiigAooooAKKKKACiiigAooooAKKKKACiiigAooooAKKKKACiiigAooooAKKKKACiiigAooooAKKKKACiiigAooooAKKKKACvNv2fP+SE+Hv+3n/0plr0mvNv2fP+SE+Hv+3n/wBKZaAPSaKKKACiiigApk0SzwvE5YK6lSUcowB9GBBB9wc0+igDmdK8FwaTHf2lvdsbC/dppVWJIJ/MJHPnQhCwwOS4d2z8znkGnD4PuNG07TNN0x4riytNRiuFVbSG2aNcuXLeUEjbkjAVFPruJzVPUviZcQand2+jeGr3Vbeycxz3UZYKrD73RG4HqSPpWle/EPSLXw3ZavEfMF64SKB3VHHOGLZ6Be5Ge3rmuVYmjNXUtrfnp66nJ9bw7co8217/AJO3f5HNXngjVT4TsrO101FuY/D2o2ciiSMYnmMRVc5/iKsc9PUinan4W1zUPEs1wbfVhaapPZXTQxz2KRWphCZWYukkgZWQsPJLKScZXlj3z+IdFjXc+r2Cr5YkyblANhOA3XoTxmnXOvaRZ+V9r1Wxg85A8fm3KLvU9GGTyPeujniklfb/ADf9fI6ZVoNWuv8Ah7HLaf4a1C1sdBj+yBGtdfu764HmKdscn2oq/XnPmpwORnpwcczH4P8AFuppJHewzWx/sm+sRHKbSO1illMZUQLCu/yW2kZkJb1AOSe+17xjpuganp9jcyxebeSAMWmVBAn99s9B6djzzWnc6zpllJEl5qNpbvMAYllnVTIPUAnn8KSqxbbT2dvm1/kL20L2vta/3t/jc4nXdO1zW1sNVs9B1DRprC8EjRWs1k17OPJePcN++D5d+BufO3djaQAbGm+A3vPC+kafq8r28NnKbsW8sNtPcJK0jPgy+XsTAfH7pFKn7smBk9peX1pp9v59/dQ2sOQPMnkCLn0yeKrvr2jxhjJqtioVVdi1ygwrfdPXocjB70+aOzBuMdGzJ1DwZBqurWN1fXb+VpybLRY4189QVAbdcvumBOBzG0ZP8RaulqC4vrS0aIXV1DCZ3CRCSQL5jHoFz1PsKnqrlK19AooooGFFFFABXm3jb/ku3ww/7i3/AKTLXpNebeNv+S7fDD/uLf8ApMtAHpNFFFABRRRQAUUUUAFFFFABRRRQAUUUUAFFFFABRRRQAUUUUAFFFFABRRRQAUUUUAFFFFABRRRQAUUUUAFFFFABRRRQAUUUUAFFFFABRRRQAUUUUAFFFFABRRRQAUUUUAFFFFABRRRQAV5t+z5/yQnw9/28/wDpTLXpNebfs+f8kJ8Pf9vP/pTLQB6TRRRQAUUUUAFFFFAHjep33h2PXL660rxHqnhW/wDtJNzavbu6SuvfahxgnP3iep4AqTWNRm8Q/DPSdV123ha5TUVi+0tEo3x5OW6cA45HA46V6jeaFpOoz+dqGl2V1Lt2+ZPbo7Y9MkdKsXNjaXlp9lu7WGe34/cyxhk46cHjivNjg5pSTa6aa20ad7Xdtradzyngajc/eVpJ7X1vs2r208kjz2DStF1X4t7Ba2d1YRaSrwRqitD1wCAPlIwTWB4rms7zUfE6EaTprWoCKbhDNdXBC4CxhzhFI7oMjj6167baTp1lMstnYWtvIsflB4oVUhM525A6Z7UkukabPeG7n0+1kuSpQzPApcrjGNxGcYJGKdXBucOVW+1+LdvuuVPBOUGtE27vTpa1u/8AVjyy5h086f4AutUitfLddlxNcKu1kAGA5bqB6HiqOqo0vibxMl5J4fjVsCN9XL71i2nYYNvtjpz0r1+TRNJmsYrObTLOS1hOY4Gt0KIfULjA6n86LnRNKvTEbzTLO4MK7YjLbq2wegyOB9KmpgpTb13d/vSX6aerM5YCTgkmtOX52TX63PMpkiivfBCeKJ4bjS1tXBllDCBmwdhO8Dts+8BT9J0nSNa8WeLdO0QRCyubELEYeIw+RyuOMbh24rtfFuj6vq0dt/ZE+nvHG+ZrLUrcSQzehJ2lgR7Y69aoaL4a13TZdU1aWTS/7Xuokht4YVdbWFEAAH97HHTtj8plQcqr5o6e9fu04tb9d9P+BrP1aUKqjy3Xu627Rtvfy9bvtqc/4VvJvF3iTR4rxHA8PWp88N0a4B2A/XAB+or1Kub8G+Grjw/a3k2pzQz6jqE5muHhBCD0UZwcck9B1rpK7sPGUaa5/ier9X/lt8jswdOUKd57v8lovwWvncKKKK3O0KKKKACvNvG3/Jdvhh/3Fv8A0mWvSa828bf8l2+GH/cW/wDSZaAPSaKKKACiiigAooooAKKKKACiiigAooooAKKKKACiiigAooooAKKKKACiiigAooooAKKKKACiiigAooooAKKKKACiiigAooooAKKKKACiiigAooooAKKKKACiiigAooooAKKKKACiiigArwD4O/GLwJ4V+E+jaNr2u/ZNQtvP82H7HO+3dPI4+ZUIPysDwe9e/wBebfs+f8kJ8Pf9vP8A6Uy0AH/DQfwx/wChm/8AJC5/+N0f8NB/DH/oZv8AyQuf/jdek0UAebf8NB/DH/oZv/JC5/8AjdH/AA0H8Mf+hm/8kLn/AON16TRQB5t/w0H8Mf8AoZv/ACQuf/jdH/DQfwx/6Gb/AMkLn/43XpNFAHm3/DQfwx/6Gb/yQuf/AI3R/wANB/DH/oZv/JC5/wDjdek0UAebf8NB/DH/AKGb/wAkLn/43R/w0H8Mf+hm/wDJC5/+N16TRQB5t/w0H8Mf+hm/8kLn/wCN0f8ADQfwx/6Gb/yQuf8A43XpNFAHm3/DQfwx/wChm/8AJC5/+N0f8NB/DH/oZv8AyQuf/jdek0UAebf8NB/DH/oZv/JC5/8AjdH/AA0H8Mf+hm/8kLn/AON16TRQB5t/w0H8Mf8AoZv/ACQuf/jdH/DQfwx/6Gb/AMkLn/43XpNFAHm3/DQfwx/6Gb/yQuf/AI3R/wANB/DH/oZv/JC5/wDjdek0UAebf8NB/DH/AKGb/wAkLn/43XN3HxB8MeO/jt8O/wDhFNT+3/Yv7T+0f6PLFs323y/fVc52N0z0r22vNvG3/Jdvhh/3Fv8A0mWgD0miiigAooooAKKKKACiiigAooooAKKKKACiiigAooooAKKKKACiiigAooooAKKKKACiiigAooooAKKKKACiiigAooooAKKKKACiiigAooooAKKKKACiiigAooooAKKKKACiiigAooooAK82/Z8/5IT4e/7ef/SmWvSa82/Z8/5IT4e/7ef/AEploA9JooooAKKKKACiiua8UXmsW91py2ENv5L3sShjePG0hIPyMojIC++T9Kic1BK/Vpfe7ETmoRcn0OloqO3adrdDdxxxTEfOkUhdQfZiAT+QrA1/U79NbtdL05LvMkD3Ej2YhMmAwUAecQmMnngnp060Tmoq9rinUUIc7/q+h0dFcVqWu65oWiW+p6gjeZHM0DWUgj3XSn7knybtrDGSAcYDcDipJtS1f7VY6ZDc3V5I9l9rmudOS2DOS2Bt80hdgz2BJ4565z9vHZJ/0r/kZPExW6d9/vdvz/ra/Y0Vy0F5rl1NpumXssmm3Ekc0s0yJE0jqjBVA++ik7gTjPQ4xVy2uNQt/Etrpt3e/akNjJK7+Uqb2EihScd8HBxgHrgVpGd2lbf/ACv+hSrJq9n0/G3+ZuFgCASATwPelrhbO6u7/UtF1C5vpiyrfErGkeHVJMAfdzyABx6cYOSbGjap4iv/AOzr9be9lgu2VpklFqtukTd02uZMjj72c88DPGUK6k7Wf9dyfrC00ev/AAP8zrGvbVJjC9zCsoKqUMgDAtnaMe+Dj1xU1cpp0Y1HwLf3U5xNdtcTM+cbWV2CEHttCLj6Vv6Rdvf6LZXcow9xbxysPQsoJ/nWkJ8/4P7/APhjSNTmt56r+vmi5RRRWhqFFFFABXm3jb/ku3ww/wC4t/6TLXpNebeNv+S7fDD/ALi3/pMtAHpNFFFABRRRQAUUUUAFFFFABRRRQAUUUUAFFFFABRRRQAUUUUAFFFFABRRRQAUUUUAFFFFABRRRQAUUUUAFFFFABRRRQAUUUUAFFFFABRRRQAUUUUAFFFFABRRRQAUUUUAFFFFABRRRQAV5t+z5/wAkJ8Pf9vP/AKUy16TXlun/AAJsdIsI7HSvHXjixtIs+Xb22rrHGmSScKsYAyST9TQB6lRXm3/Cm/8Aqo/xA/8AB5/9hR/wpv8A6qP8QP8Awef/AGFAHpNFebf8Kb/6qP8AED/wef8A2FH/AApv/qo/xA/8Hn/2FAHpNFebf8Kb/wCqj/ED/wAHn/2FH/Cm/wDqo/xA/wDB5/8AYUAek1T1DSrPU/KN2j74SWjlileKRMjBw6EMMjqM81wX/Cm/+qj/ABA/8Hn/ANhR/wAKb/6qP8QP/B5/9hScVJWaE0mrM7i20HTbWaCWG2+eBXWMu7Pjd95jknLHux5PrUTeGdKMEESwSxC3LeS0NzJG8YbqodWDBf8AZzjgccCuM/4U3/1Uf4gf+Dz/AOwpk3whjt4Hmn+JXj6OONSzu2u4CgdSfkqeSFtifZQenL/X9WO6fw9pj2dvbC3aNLYkxPDM8ciE/eO9SGycnPPPfNMk8NaVJHAvkSIbfd5ckVxJHJ833surBmz1OScnrXi+jeGX1DXI4b3xx8QLTTL9mXS7ttcI88qcENlOM9uB6c12n/Cm/wDqo/xA/wDB5/8AYVnTlSqpyiv6/rY6cTgJYaShVitV5fd8no10aO2i8PaZBHZxwW7RLZSNJAI5XXYWOWHB5Bz905HtSQeG9LtrpJ4YHHluZI4jPIYo2OfmWMtsU8nkAda4r/hTf/VR/iB/4PP/ALCj/hTf/VR/iB/4PP8A7CtOSN72OX2cOyOsl0W7/s+/063kiS1u5iyvuIaNHOZQBjGck45/i56c7cUaQxJFEoVEUKqjsB0Fecf8Kb/6qP8AED/wef8A2FH/AApv/qo/xA/8Hn/2FOMVHb+rFKKTuek0V5t/wpv/AKqP8QP/AAef/YUf8Kb/AOqj/ED/AMHn/wBhVFHpNFebf8Kb/wCqj/ED/wAHn/2FH/Cm/wDqo/xA/wDB5/8AYUAek15t42/5Lt8MP+4t/wCky0f8Kb/6qP8AED/wef8A2FWdF+EVjpHizTfENz4o8Uazd6Z5v2ZNW1BbiNPMQo3BQEZB7EcgelAHoFFFFABRRRQAUUUUAFFFFABRRRQAUUUUAFFFFABRRRQAUUUUAFFFFABRRRQAUUUUAFFFFABRRRQAUUUUAFFFFABRRRQAUUUUAFFFFABRRRQAUUUUAFFFFABRRRQAUUUUAFFFFABRRRQAUUUUAFFFFABRRRQAUUUUAFFFFABXE61NJ4y19vDli7LpdmwbVZ0P3znIgB/Dn/63Nrxz4qGjW8Om2VzBBqd+dkck0gRLdO8jE8DHb1P0p3h+/wDCfh3RorC01/TG2/NLK15Hulc/eY/N1NcdWcak/ZX0W/8Al/n/AME9nC0KmHpLFKLcn8Gm3eXy+z569DU1rw7Za1oDaVIghiVR5DRjBgZfusvpj+VZ/hLXbm68/Rdcwms6dhZfSdP4ZV9Qe/v9av8A/CWeHP8AoP6X/wCBsf8AjXNeLb/RrryNa0PX9KTWdOy0X+mR4nT+KJvm5B7e/wBaKkoRftINabruv810+4eGpVasXhq0XZ6ptPSX+T2fyfQ7yisvw7r9p4l0SHUbE/LIMOhPMbjqp+laldUZKSUo7M8mpTnSm6c1ZrRhRRRVGYUUUUAFFFFABRRRQAUUUUAFFFFABRRRQAUUUUAFFFFABRRRQAUUUUAFFFFABRRRQAUUUUAFFFFABRRRQAUUUUAFFFFABRRRQAUUUUAFFFFABRRRQAUUUUAFFFFABRRRQAUUUUAFFFFABRRRQAUUUUAFFFFABRRRQAUUUUAFFFFABRRRQAUUUUAZ93oGj6hcGe/0mxupiADJNbI7EDpyRmoP+ET8Of8AQA0v/wAAo/8ACteiodODd2kbrEVoqym7erOB0Hw9os3xA8V282kWEkFv9j8mJrZCse6IltoxgZPJx1rp/wDhE/Dn/QA0v/wCj/wrJ8O/8lK8Y/8Abj/6JNdbXPh6cHB6LeX/AKUz0MwxNdVlab+CHV/yRKtjpen6YrrptjbWaucuLeFYwx98DmrVFFdSSSsjypSlN80ndhRRRTJCiiigAooooAKKKKACiiigAooooAKKKKACiiigAooooAKKKKACiiigAooooAKKKKACiiigAooooAKKKKACiiigAooooAKKKKACiiigAooooAKKKKACiiigAooooAKKKKACiiigAooooAKKKKACiiigAooooAKKKKACiiigAooooAKKKKACiiigAooqO4uIbW3ee5lSGKMbnkdsKo9STRsNJt2Ry3h3/kpXjH/tx/8ARJrra8s8J+JQPiBqGo3qPbaf4gJFlcTfKshi+UDnpkZ/HivU65MJOM4O3d/i21+DPWzahOjXipr7MPwiov7mmmFFFFdZ5AUUUUAFFFFABRRRQAUUUUAFFFFABRRRQAUUUUAFFFFABRRRQAUUUUAFFFFABRRRQAUUUUAFFFFABRRRQAUUUUAFFFFABRRRQAUUUUAFFFFABRRRQAUUUUAFFFFABRRRQAUUUUAFFFFABRRRQAUUUUAFIzKilnIVVGST2FLWX4okaLwhrEiHDJYzsD7iNqmUuWLZpSh7SpGHd2OXsJ/EHjp5b611KTRdD3sluIEHn3ABxvLH7oznp6Y96v8A/CAk/e8WeJye+NRwPy21p+DYlh8EaKqDANjE34sgJ/U1tVzU6EZQUp6tnp4jHVKVaVOhaMU2kkl07u12+9zkv+EB/wCps8Uf+DL/AOxo/wCEB/6mzxR/4Mv/ALGutoq/q1LsYf2liv5/wX+RyX/CA/8AU2eKP/Bl/wDY0f8ACA/9TZ4o/wDBl/8AY11tFH1al2D+0sV/P+C/yOS/4QH/AKmzxR/4Mv8A7Gj/AIQH/qbPFH/gy/8Asa62ij6tS7B/aWK/n/Bf5HJf8ID/ANTZ4o/8GX/2NH/CA/8AU2eKP/Bl/wDY11tFH1al2D+0sV/P+C/yOS/4QH/qbPFH/gy/+xo/4QH/AKmzxR/4Mv8A7Gutoo+rUuwf2liv5/wX+RyX/CA/9TZ4o/8ABl/9jQvw50mSRW1W81TVgpyEv7xnXP0GK62ij6tS/lD+0sX0m16afkUNQ0LTNU0sadfWUMtooAWLbtCY6bcfd/CsAfDu0i+Wx17X7KPtHb6gQoHpyDXXUVcqNObvJGVLG4ijHlhNpdun3HJf8ID/ANTZ4o/8GX/2NH/CA/8AU2eKP/Bl/wDY11tFR9WpdjX+0sV/P+C/yOS/4QH/AKmzxR/4Mv8A7Gj/AIQH/qbPFH/gy/8Asa62ij6tS7B/aWK/n/Bf5HJf8ID/ANTZ4o/8GX/2NH/CA/8AU2eKP/Bl/wDY11tFH1al2D+0sV/P+C/yOS/4QH/qbPFH/gy/+xo/4QH/AKmzxR/4Mv8A7Gutoo+rUuwf2liv5/wX+RyX/CA/9TZ4o/8ABl/9jR/wgP8A1Nnij/wZf/Y11tFH1al2D+0sV/P+C/yOS/4QH/qbPFH/AIMv/saP+EB/6mzxR/4Mv/sa62ij6tS7B/aWK/n/AAX+RyX/AAgP/U2eKP8AwZf/AGNH/CA/9TZ4o/8ABl/9jXW0UfVqXYP7SxX8/wCC/wAjkv8AhAf+ps8Uf+DL/wCxpD4CdeYvFviUN2L3+4fltrrqKPq1Lt+Yf2liv5vwX+RxC6hrnhDXLO0129/tXSL+UQQ3joElt5D90Pjgg+vsTxjB7euR+KK4+H17MPv28kMiH0PmqP6muupUrxnKnfRWa+d/8isU41aFPEWSk3JOysnbld7LTaWtuwUUUV0nmhRRRQAUUUUAFFFFABRRRQAUUUUAFFFFABRRRQAUUUUAFFFFABRRRQAUUUUAFFFFABRRRQAUUUUAFFFFABRRRQAUUUUAFFFFABRRRQAVkeLP+RL1v/sHz/8Aotq16yPFn/Il63/2D5//AEW1Z1f4cvQ6ML/Hh6r8w8J/8iXon/YPg/8ARa1r1keE/wDkS9E/7B8H/ota16KX8OPoGK/jz9X+YUUUVoc4UUUUAFFFFABRRRQAUUUUAFFFFABRRRQAUUUUAFFFFABRRRQAUUUUAFFFFABRRRQAUUUUAFFFFAHJfFL/AJJrqn/bH/0cldbXJfFL/kmuqf8AbH/0cldbXPH+PL0X5yPQqf7hT/xz/KmFFFFdB54UUUUAFFFFABRRRQAUUUUAFFFFABRRRQAUUUUAFFFFABRRRQAUUUUAFFFFABRRRQAUUUUAFFFFAHjfg7xX8YfG/hOz8Q6VF4HhtLzf5aXK3ayDY7IchSR1U9+lbf8Axe//AKp//wCTtH7Pn/JCfD3/AG8/+lMteg39/aaZZSXeoXEdvbxjLSSNgD/6/t3pNqKuwbsrs8+/4vf/ANU//wDJ2j/i9/8A1T//AMna6zRvGnh7X7s2uk6lHNOBkRsjRsw9gwGfwrdpRlGa5ou6Ip1IVFzQaa8tTzb/AIvf/wBU/wD/ACdo/wCL3/8AVP8A/wAna9Joqizzb/i9/wD1T/8A8naP+L3/APVP/wDydr0migDzb/i9/wD1T/8A8naP+L3/APVP/wDydr0mqv8Aadn/AGqNNFwhvfKMxhHLBAQMn05I69aV0JtLc4D/AIvf/wBU/wD/ACdqC9svjRqWn3Fjef8ACB/Z7mJoZfKa8V9rDB2kggHB4JB+hr1CihpNWZcZOElKO6PL7Ky+NGm6fb2Nn/wgf2e2iWGLzWvGfaowNxAAJwOSAPoKn/4vf/1T/wD8na9JqrBqdndX9zZW9wktxahTOi8+XuzgE9M8HjrSVopRQp1OaXNJ6t/icB/xe/8A6p//AOTtH/F7/wDqn/8A5O16TRVCPNv+L3/9U/8A/J2j/i9//VP/APydrv7HU7PUvP8AsFwk4t5TDKU5CuACRnoeo6VapJpq6Emnqjzb/i9//VP/APydo/4vf/1T/wD8na9JopjPNv8Ai9//AFT/AP8AJ2j/AIvf/wBU/wD/ACdr0mqWr6xYaFp7X2q3At7dWClypbk9BgAmplKMVeTshNqKbeyOD/4vf/1T/wD8naxPGPiv4w+CPCd54h1WLwPNaWezzEtlu2kO91QYDEDqw79K9etLuC+s4bu0kEkEyB43AxuUjIPNeeftB/8AJCfEP/bt/wClMVUCaauj0miiigYUUUUAFFFFABRRRQB5/wDEPxX4q0jxZ4W8PeC4tHa7137XufVllMaeSiP1jIIyC3Y846VW/wCL3/8AVP8A/wAnaPG3/Jdvhh/3Fv8A0mWu21rxJpHh2FJNZvo7YSHCKQWZvoqgkj3xUynGCvJ2RMpRiuaTsjif+L3/APVP/wDydo/4vf8A9U//APJ2u40bxBpfiG1a40a8juo0OH2gqyn3UgEdO45rRpppq6CM4zjzRd0ebf8AF7/+qf8A/k7R/wAXv/6p/wD+Ttek0Uyjzb/i9/8A1T//AMnaP+L3/wDVP/8Aydr0migDzb/i9/8A1T//AMnaP+L3/wDVP/8Aydr0mqtjqdnqXn/YLhJxbymGUpyFcAEjPQ9R0pXV7CbS0ZwH/F7/APqn/wD5O0f8Xv8A+qf/APk7XpNQX19a6bZyXd/OlvbxDLyOcAf59KG1FXewzzPUtE+LniLT5dL11/BUdhcY81rM3YlG0hhtLAj7wGcjpmrX/F7/APqn/wD5O11mj+NfD2v3htNJ1JJrjbuEbRvGWHtuAz+FacGp2d1f3Nlb3CS3FqFM6Lz5e7OAT0zweOtZx5JPni73/S41i41aMacZJxTdrd2lf8EjgP8Ai9//AFT/AP8AJ2j/AIvf/wBU/wD/ACdr0mitRHm3/F7/APqn/wD5O0f8Xv8A+qf/APk7Xf2Op2epef8AYLhJxbymGUpyFcAEjPQ9R0q1STTV0JNPVHm3/F7/APqn/wD5O0f8Xv8A+qf/APk7XpNFMZ5t/wAXv/6p/wD+TtH/ABe//qn/AP5O16TWBq/jjw7oWoNZarqHkXCqGKeRI3B6cqpFROpCmrzaXqROpCnHmm7LzOV/4vf/ANU//wDJ2tz4W+K77xv8NdL8Q6rFbw3d553mJbKyxjZM6DAYk9FHfrWzoniXSPEcUj6NepciI4cBWVl/4CwBx79K4r9nz/khPh7/ALef/SmWqTUldbBCcZx5oO68j0miiimWFFFFABRRRQAUUUUAFFFFABRRRQAUUUUAFFFFABRRRQAUUUUAebfs+f8AJCfD3/bz/wClMtW/iMtvca14atNWcJpUt03n7n2qSAMBj2HP6mqn7Pn/ACQnw9/28/8ApTLXca3oWn+ItNex1WHzYWOQQcMjdmB7GsMRTdSFl0adu9ne3zMMRTdWlKC6/wBa+Xcw9Q0HwdY+JdHlmjttNvxITax24EImb/aCgZ56Zxk8c5xWTDDqXjDWNfkk13UNMj02Y29tBZS+UBgE7nH8WT/WtTw/8MtA8O6mt/b/AGm6uI+YjcyBhGfUBVHP1zVjVfAem6pqM97Heahp0l0u25WxuPLW4/3xg54rllRqSivdS30Tt2s799P6Zx+xqSjdwS1V0nurW1enXX5HHXHiLWta8PeE5U1Gazu7rUGt5p7c7RJhgNxXoR7EY9q0IL3UfC3i3W7BdUvdStodKN5Gt/L5jK46c9h14GP0rq7jwhpc8ekxRLJbRaRMJraOAgKSP72QSf5n1qdvDdk/iSfWpDK889r9leJiDGUznpjOfxp/V6t3K+t9/LkS2/xakxwtZOMpO7XLrftv/XU5Hw9p+r3VvoevHxXcCa+k33NvdSgwyA5Plxx9M8Y68ckYxim6JBf6r4m8RXN3rWqLbaXfFobSC5Kq+Mnaevy8AbRjvWzbfDfR7a+t5vtGoTW1rKZoLCW53W8TZz8q4zweev1zWzpOgWuj3mo3NtJM76jP58okIIVvRcAcc9804UJ3V1a1+t9dLfk/L5jpYafuqa2evvPXRq/zdv1PKLPxF4jv7ddasv8AhJbnUGuNyxQ25fT/AC84KYHU4746+/Nb39mk/GG6n+3aipjsBe7FnwT8wPlHj7n+zXQH4caL9sMgmvxZmbzzp32k/Zi/rsxnrz1/TitC+8J2l74lg1xbu9tbuJFRhbTBEmUHO1xg5HqKzp4eqlFy3T7+Vr/fr/w5jDB10n7T3tU997N3fldf1oeY2fiLxHf2661Zf8JLc6g1xuWKG3L6f5ecFMDqcd8dffmvYL5ruTR5204BLxoWMIfs+OM59650/DjRfthkE1+LMzeedO+0n7MX9dmM9eev6cV1F1awXtnLa3UaywTIUkQ9GUjBFa0KNSNKUZPV+fl3/rudODoVqTk6rvf8d9fK/wDWx5h4cudR07XrCLX9V1/T72SQxTRakpntLpiR8sTAgKe+eQPX1ZpOlvaeJPGdxDqmpeZYRkqTcf60tG+C/HJXt0xXV2Xw60u0vLWaS91O7hs38y2s7m63wwkdNq4HT6/XNWZ/BNjLrd7qaXl/A99GUuIIpgIpMoUyVxyQDkc9aw+rVPZpW1XNbXuv8+3+ZhTwlVKPMr2knvrs0/Lt0VzltJN1YfDk+JNS8S6p9pntSi7285I8vhSsZIy/GMk9TVPQbnWLfxzZ6XNda7FY6laSY/tO6DzEbCd6qP8AVEEdOTXenwnpr+EV8OTebLZLHsDOw3jByDkDGQfaqOneAdO03WLPVFvtSuby0VkWS6uBIXUjAU5HQAnGMda1eHn7WLXwrz9b/n/WgnhK6VJR6ct9et1zfevT7tDgdHnuvDPg3xFrFhfXj3CXz2aJJJujUllHmlccv71seFtR1q18R2aRx+JriwuIW+2NrEB2q4UkNG3O1Se38+3U2/gPSoJdSBmvZbTUtxmspJ/3IZiCWVQAQeOuadovgjT9F1BL0Xd/fzwx+Vbm+uPMECdMIMDAxxUUsPWg4dEklv2vf79/+GQoYOtGceXRJ9/717/NafLzOJSTWdV8C6v4qPiPULe6DyBLeKUCFEBA2hccNjowIPT3rVsNZutE1XQr7U764k0/VNKUSedMzKkyoGyAT1YfmTWBqWlO6atYw+GPEdvcXUjCK1hlMthvJGJc4Az35yB7Y42fF2k3194Z0TwpBpV1PdosG68WL9xDhSrZfsev4Vz03NQ5ofEuRLfV+8nv3vd9tLmMXOLlLW8V56tSvtbrt/SOi+H8l/e6DLq2p3E0r6jcPPFHI5IijzhVAPAHU8e1cv8AE/xDpyeItK0rVBNLYwH7TdxQAEvkEIuCQPXv0Nel2drHY2MFpbjEUEaxoPYDArPsPDlpp+v3+sJLPNd3wCuZmBEaj+FcAYHT16Cu+tQlOEaUHorXb122063drnozoVXhlST1drv8X9+1uzOV+Emux3+g3GmK7E2Ep8nf94wsSVz9DkflVb9oP/khPiH/ALdv/SmKuyTw3aR+K38QRSzpdSwCCSNWHluB0JGM54HftXG/tB/8kJ8Q/wDbt/6UxVvRjONNRnutPu2fzW/ma4WnOlT9nPW23p+nY9JooorU6gooooAKKKKACiiigDzbxt/yXb4Yf9xb/wBJlqZLLTtW+MWpQ6/FDcNDax/Yre4AZWGPmIU8E9T+Z7cQ+Nv+S7fDD/uLf+ky11HifwRo/izy31JJY54xhZ4GCvt/unIII+o+lc2Ipylyyir2ez66Nfhe5zYqnKpD3Um007PZ26f11sZsMHhnw7quv3egGIapDab5rKNsIgAzwgwOoGcZx7Z55yV9ZsPBFv40HiK+lvnZZXtZJAbZlZtuwR4wOD/+rrXbeG/BOjeF7aaKwieVrgbZZbhg7Ov908AY56Ac981Sh+G+jRXUZNxqEllHL5semyXO61Vv9zHqc9frXO6FV2tZadHpF3vt1/rozjnh60qatFJ+9onazezv1a/4Yx5l1DX/AIl3WnLrOo6dZHTY52itZtpBO3pnIU5PJAz271lQeJdatvA0tr/acr3B1g6ct7L80iRnqcnqevJOR+VeixeHrSHxRPrySTfap7cW7IWGwKCDkDGc8etUU8C6QNFvtLmE09ve3DXLmRxujkPdSAMYxx1/Gh4epZtdebr3ndL/AMBuvmOWFrOTlF6u+t+jjp+P+ZmLpWo6AuthPE1ze2405pI4LufzLiN9p+fdwVHHGOvPpWBBd6rovwyXxQ2s6jeX9xAIkSabfFDufAcKRywA6nPJrrrDwFptlJeTS3moX9zdW5tjc3k4kkjjIwQpxx+IP860IPDWnReFk8Pyq9xYrF5RErfMwznkjHOfTFDw9Rp20dtNXpq/0fy6DWGm7WXLpK2rdm7Wfys2cL4auda/t61tI/8AhKnsL23aO8m1SEjyn2nDxPzsGf6de2To8914Z8G+ItYsL68e4S+ezRJJN0akso80rjl/evQ9F8Eafouox3wu7+/nhj8q3N7ceYLdOmEGBgY4ptv4D0qCXUgZr2W01LcZrKSf9yGYgllUAEHjrmp+r1bJre0lvte1v19L+RhHB1+VX3Tdtdrxtf79f+HOY8J3+tQeJ7GKOPxNcWFzERePrEB2o4XIaNudq57Z/Pt0vxB0yDWfDBsZtSttPlkmUwPdSBEdx0U56556Z+lSaL4I0/RdRjvhd39/PDH5Vub248wW6dMIMDAxxWpreh2HiHS3sNUh82FzkYYgqw6MD2Irb2Mnh3Tkrv18+50UMPUjQnTn1vpfyt+P/BPOLMSaJ4l0tfFnhLTrJ3uRFZ3+mOIRv6bmRW+YHj72MAnjtRpOlvaeJPGdxDqmpeZYRkqTcf60tG+C/HJXt0xXSaH8LPD+h6pHfxG7upoTuiFzIpVG7NhVGT9citCfwTYy63e6ml5fwPfRlLiCKYCKTKFMlcckA5HPWuf6tV5NVr73yuktbJXd122sc9LCVUouUdpJ7q9rNbpK+6tftuctpJurD4cnxJqXiXVPtM9qUXe3nJHl8KVjJGX4xknqap6Dc6xb+ObPS5rrXYrHUrSTH9p3QeYjYTvVR/qiCOnJrvT4T01/CK+HJvNlslj2BnYbxg5ByBjIPtVHTvAOnabrFnqi32pXN5aKyLJdXAkLqRgKcjoATjGOtavDz9rFr4V5+t/z/rQbwldKko9OW+vW65vvXp92hwOjz3Xhnwb4i1iwvrx7hL57NEkk3RqSyjzSuOX962PC2o61a+I7NI4/E1xYXELfbG1iA7VcKSGjbnapPb+fbqbfwHpUEupAzXstpqW4zWUk/wC5DMQSyqACDx1zTtF8EafouoJei7v7+eGPyrc31x5ggTphBgYGOKilh60HDokkt+17/fv/AMMhQwdaM48uiT7/AN69/mtPl5nEpJrOq+BdX8VHxHqFvdB5AlvFKBCiAgbQuOGx0YEHp71q2Gs3WiaroV9qd9cSafqmlKJPOmZlSZUDZAJ6sPzJrA1LSndNWsYfDHiO3uLqRhFawymWw3kjEucAZ785A9scbPi7Sb6+8M6J4Ug0q6nu0WDdeLF+4hwpVsv2PX8K56bmoc0PiXIlvq/eT373u+2lzGLnFylreK89WpX2t12/pHRfD+S/vdBl1bU7iaV9RuHnijkckRR5wqgHgDqePauO8TwancfFa8XR9FsNYmFlGWhv0VkVePmG5lGc4H416pZ2sdjYwWluMRQRrGg9gMCuW8R/DbR/E+sNqV/c30czIqFYZEC4A91J/WuzFYeUoQjT15X3t9lrqn3O2vh6ksKqa1lo3r13ff8AIwvAMctl481OHWdNh0rU5rRGS0skVYBGCMn5WPzE4/X1p/7Pn/JCfD3/AG8/+lMtdL4X8CaP4Smmm07z5Z5V2mW4cMwX+6MADGR6Zrmv2fP+SE+Hv+3n/wBKZa6MPCVOjGEt1f8ANs2wVGdGlyz3v6/jZfkek0UUVudoUUUUAFFFFABRRRQAUUUUAFFFFABRRRQAUUUUAFFFFABRRRQB4B8HfFPjvTvhPo1roPw6/tnT4/P8q+/tyC383M8hP7thlcMSvPXGe9dt/wAJt8Tv+iR/+XLbf/E0fs+f8kJ8Pf8Abz/6Uy16TQB5t/wm3xO/6JH/AOXLbf8AxNH/AAm3xO/6JH/5ctt/8TXpNFAHm3/CbfE7/okf/ly23/xNH/CbfE7/AKJH/wCXLbf/ABNek0UAebf8Jt8Tv+iR/wDly23/AMTR/wAJt8Tv+iR/+XLbf/E16TRQB5t/wm3xO/6JH/5ctt/8TR/wm3xO/wCiR/8Aly23/wATXpNFAHm3/CbfE7/okf8A5ctt/wDE0f8ACbfE7/okf/ly23/xNek0UAebf8Jt8Tv+iR/+XLbf/E0f8Jt8Tv8Aokf/AJctt/8AE16TRQB5t/wm3xO/6JH/AOXLbf8AxNH/AAm3xO/6JH/5ctt/8TXpNFAHm3/CbfE7/okf/ly23/xNH/CbfE7/AKJH/wCXLbf/ABNek0UAebf8Jt8Tv+iR/wDly23/AMTR/wAJt8Tv+iR/+XLbf/E16TRQB5t/wm3xO/6JH/5ctt/8TR/wm3xO/wCiR/8Aly23/wATXpNFAHm3/CbfE7/okf8A5ctt/wDE1xPxi8U+O9R+E+s2uvfDr+xtPk8jzb7+3ILjysTxkfu1GWywC8dM57V7/Xm37Qf/ACQnxD/27f8ApTFQB6TRRRQAUUUUAFFFFABRRRQB5t42/wCS7fDD/uLf+ky16TXknxX0b/hIPix8ONM/tLUNM8/+1P8AS9Nn8mePbAjfK+DjOMHjoSK0v+FN/wDVR/iB/wCDz/7CgD0mivNv+FN/9VH+IH/g8/8AsKP+FN/9VH+IH/g8/wDsKAPSaK82/wCFN/8AVR/iB/4PP/sKP+FN/wDVR/iB/wCDz/7CgD0mivNv+FN/9VH+IH/g8/8AsKP+FN/9VH+IH/g8/wDsKAPSaK82/wCFN/8AVR/iB/4PP/sKP+FN/wDVR/iB/wCDz/7CgD0mivNv+FN/9VH+IH/g8/8AsKP+FN/9VH+IH/g8/wDsKAPSaK82/wCFN/8AVR/iB/4PP/sKP+FN/wDVR/iB/wCDz/7CgD0mivNv+FN/9VH+IH/g8/8AsKP+FN/9VH+IH/g8/wDsKAPSaK82/wCFN/8AVR/iB/4PP/sKP+FN/wDVR/iB/wCDz/7CgD0mivNv+FN/9VH+IH/g8/8AsKP+FN/9VH+IH/g8/wDsKAPSaK82/wCFN/8AVR/iB/4PP/sKP+FN/wDVR/iB/wCDz/7CgD0mvNv2fP8AkhPh7/t5/wDSmWj/AIU3/wBVH+IH/g8/+wo/Z8/5IT4e/wC3n/0ploA9JooooAKKKKACiiigAooooAKKKKACiiigAooooAKKKKACiiigAooooA82/Z8/5IT4e/7ef/SmWvSa82/Z8/5IT4e/7ef/AEplrq/GVzqNp4YvpdNSMbbdy8xuGieLjgrhTk/iKmUlFXZM5KEXJ9Deoqrp0l7JahtRgghl7CCdpQRjqSUXn2x+NcpFrHiHUGmvdMtr6VUunjjgAtVt2RH2kMWfzQ3BOeOcfKR1mVRRaVnqZSrxjFSs3fstTtaK5CTV9STxkfD41BNksguFudi74o8ZMGNu0sdpIJ525PUVFa6x4g1Im/0+1vpI/tTIsGLZbZo1cockt5obAJz6/wAJHWFXi7WT/wCG3JeIim1Zu3b+v6v627Siue0ttU1Z5NQGqNbxpeSRiz8hGj8tHKEE437jgnIYAZHHrUj1u/bw1p901x+/m1QW7tsX5k+0Mm3GMfdGM9atVE7ab/rb/Mp1kk21ok39x1YYEkAgkHBx2oJCqSxAAGST2rgbe8v9LS5t7S4u7ia+1maEFEh3oFBZim4Ku44x8xI9BVy7udZOkS2eqxXMcFxeW9tHNcmETPHI4DgiEleORkY4bpxk5wrc6Vk7tL0u7aX+ZH1lJtOL0v8Ahfr8jrYLu2uv+Pa4imwqufLcN8rcqeOxxwe9TVh6kfsfijRZIAF+0ebayKO6BC68exX9T61uVune5vGTbafQKKKKZYUUUUAFFFFABRRRQAUUUUAFebftB/8AJCfEP/bt/wClMVek15t+0H/yQnxD/wBu3/pTFQB6TRRRQAUUUUAFFFFABRRRQB5t42/5Lt8MP+4t/wCky16TXm3jb/ku3ww/7i3/AKTLXR6/ea1Br2kR2UFsYZLllXdeunnfunOHAjIAGM9W5A4HaZSUdzOpUVOPMzpqKzdX1KbSvDd1qMkSefb27SGNWLruA6ZwCRnvx+FY+myeIpbuKOYagLaeFvNuLpbQeQ+3KtGI2JIzxhg3bng5mVS0uWzJlVUZKNm7+X5nVUVwdj4s1KTS9Uvpp4ZDo9uYzHGo23kuSBN0BCccAHGd3oKtnVPEOl29zdz2t9Pbx2kkrtfC2ASRRldghbJU8gg5PTnrnNV4vVJ2tf8AP/IzWJg7WT/r+vw7HY0Vy+pnWNH8NXmof2291ItruAkt4wEk4+ZCoHy9eG3dufVPEl3cvdXWnx3LRQvo887BFUncGUA8g9iR+PrVVKvJFtrWz09E3+hoqytqn07dXbudQrBlDKQQRkEd6bLNFAoaaRIwzBAXYDLE4A+pPFcTbX+qn7JpVjJqUq22nwzPLapa+YzPnAbzcLtAXHyrn1Pro2dxqF9r2jwa1ALeeGzmuZIVYEeYGWMHgkfdYnGTjd14qvaXnypPe33Xv+RnHEqS0T6emtlv8zpYZoriISW8iSoSQGRgwJBweR7gin1iaUxg8UazZJjycQ3Kgfws4YN+ZQH8T61sJGyPIzSu4c5CsBhOOgwAffnNVF3RvGXMh9FFFUWFFFFABRRRQAUUUUAFFFFABXm37Pn/ACQnw9/28/8ApTLXpNebfs+f8kJ8Pf8Abz/6Uy0Aek0UUUAFFFFABRRRQAUUUUAFFFFABRRRQAUUUUAFFFFABRRRQAUUUUAebfs+f8kJ8Pf9vP8A6Uy16TXgHwd+MXgTwr8J9G0bXtd+yahbef5sP2Od9u6eRx8yoQflYHg967b/AIaD+GP/AEM3/khc/wDxugD0msuXw3pct29w8D5kkEskazyCKRxj5mjDbGPA5I7VxX/DQfwx/wChm/8AJC5/+N0f8NB/DH/oZv8AyQuf/jdS4xe6JlGMlaSudwdB01oHiNuSHuPtTN5jb/NzkNuzuBGAOvA46cUx/DmlveNctbvueUTPGJ5BE78fMYg2wngHJHUZriv+Gg/hj/0M3/khc/8Axuj/AIaD+GP/AEM3/khc/wDxulyQ7CdOD3S/r/h2du3h/TWvWujA+9pPNaMTuImf+8Y92wtwOSM5ANRf8ItpH2rz/sz7hOLhU8+Ty1lzneE3bQc9SBzk56muN/4aD+GP/Qzf+SFz/wDG6P8AhoP4Y/8AQzf+SFz/APG6FCC2QnSg94o7aXw7pk32nfbt/pMqzyYmcYkHR1wfkbjquDUc3h21/sq5tbMyRSzESfaJJWlk8xcFGLOSxwQOCa43/hoP4Y/9DN/5IXP/AMbo/wCGg/hj/wBDN/5IXP8A8bo9nDsP2cL3t/TO1SwubnWLa+1AQr9lg2xRxMWxK/32yQOABgexOcVqV5t/w0H8Mf8AoZv/ACQuf/jdH/DQfwx/6Gb/AMkLn/43VJJbDjGx6TRXm3/DQfwx/wChm/8AJC5/+N0f8NB/DH/oZv8AyQuf/jdMo9Jorzb/AIaD+GP/AEM3/khc/wDxuj/hoP4Y/wDQzf8Akhc//G6APSaK82/4aD+GP/Qzf+SFz/8AG6P+Gg/hj/0M3/khc/8AxugD0mivNv8AhoP4Y/8AQzf+SFz/APG6P+Gg/hj/ANDN/wCSFz/8boA9Jorzb/hoP4Y/9DN/5IXP/wAbo/4aD+GP/Qzf+SFz/wDG6APSa82/aD/5IT4h/wC3b/0pio/4aD+GP/Qzf+SFz/8AG64n4xfGLwJ4q+E+s6NoOu/a9QufI8qH7HOm7bPG5+ZkAHyqTye1AHv9FFFABRRRQAUUUUAFFFFAHm3jb/ku3ww/7i3/AKTLXpNeSfFfxDpfhX4sfDjWdeufsmn239qebN5bPt3QIg+VQSfmYDgd60v+Gg/hj/0M3/khc/8AxugD0eSNJY2jlRXRwVZWGQwPUEVlReF9KhQqkU5XyjCoe7lbykIwQmWOzjj5ccVxv/DQfwx/6Gb/AMkLn/43R/w0H8Mf+hm/8kLn/wCN1LhGTu0S4xk02tjuv7E04SQuLRB5MBtkUZC+Uf4COjDjoc1FaeHNLsmzFA8n7sxKLieSZUQ9VUOxCgjjAx0riv8AhoP4Y/8AQzf+SFz/APG6P+Gg/hj/ANDN/wCSFz/8bocIt3aF7OF72O0h8NaVDG8f2ZpY3iMOy4nkmVYz1VQ7EKOnC46D0pbXw3pdnMZYoJHkaEwF5riSUmM4ymXY8cdO3OOpriv+Gg/hj/0M3/khc/8Axuj/AIaD+GP/AEM3/khc/wDxul7OHYSpwVrJaHZf8IxpYht40juI/s0ZiikjvJkkCZzsLhgxX0BJA7U+TR1t5tOk0tY4BZEx+WThWib7w6HnIDD1I565riv+Gg/hj/0M3/khc/8Axuj/AIaD+GP/AEM3/khc/wDxunyRvewKlBLRWO50zT5LWe9u7oobq8l3PsOQqKNqKCQOg5+pNXUhWN5HUuTIcnc5YDjHAJwPoMV5z/w0H8Mf+hm/8kLn/wCN0f8ADQfwx/6Gb/yQuf8A43TSSVkWopI9Jorzb/hoP4Y/9DN/5IXP/wAbo/4aD+GP/Qzf+SFz/wDG6Yz0mivNv+Gg/hj/ANDN/wCSFz/8bo/4aD+GP/Qzf+SFz/8AG6APSaK82/4aD+GP/Qzf+SFz/wDG6P8AhoP4Y/8AQzf+SFz/APG6APSaK82/4aD+GP8A0M3/AJIXP/xuj/hoP4Y/9DN/5IXP/wAboA9Jorzb/hoP4Y/9DN/5IXP/AMbo/wCGg/hj/wBDN/5IXP8A8boA9Jrzb9nz/khPh7/t5/8ASmWj/hoP4Y/9DN/5IXP/AMbo/Z8/5IT4e/7ef/SmWgD0miiigAooooAKKKKACiiigAooooAKKKKACiiigAooooAKKKKACiiigAooooAKKKKACiiigAooooAKKKKACiiigAooooAKKKKACiiigAooooAKKKKACiiigAooooAKKKKACiiigAooooAKKKKACiiigAooooAKKKKACiiigAooooAKKKKACiiigAooooAKKKKACiiigAooooAKKKKACiiigAooooAKKKKACiiigAooooAKKKKACiiigAooooAKKKKACiiigAooooAKKKKACiiigAooooAKKKKACiiigAooooAKKKKACiiigAooooAKKKKACiiigAooooAKKKKACiiigAooooAKKKKACiiigAooooAKKKKACiiigAooooAKKKKACiiigAooooAKKKKACiiigAooooA//9k=;" vertex="1" parent="1">
          <mxGeometry x="10" y="3370" width="860" height="528.25" as="geometry" />
        </mxCell>
        <mxCell id="aWLDNn_hWw4ynje5LRLr-56" value="&lt;p style=&quot;box-sizing: border-box; margin: 0px 0px 10px; padding: 0px; border: 0px; font-size: 17px; vertical-align: baseline; color: rgb(39, 50, 57); font-family: Nunito, sans-serif; letter-spacing: 0.162px; background-color: rgb(255, 255, 255); text-align: justify;&quot;&gt;&lt;i style=&quot;box-sizing: border-box; margin: 0px; padding: 0px; border: 0px; vertical-align: baseline; font-size: 17px;&quot;&gt;&lt;font style=&quot;box-sizing: border-box; vertical-align: inherit; font-size: 17px;&quot;&gt;&lt;font style=&quot;box-sizing: border-box; vertical-align: inherit; font-size: 17px;&quot;&gt;«В компьютерном программировании&amp;nbsp;&amp;nbsp;&lt;/font&gt;&lt;/font&gt;&lt;strong style=&quot;box-sizing: border-box; margin: 0px; padding: 0px; border: 0px; vertical-align: baseline; font-size: 17px;&quot;&gt;&lt;font style=&quot;box-sizing: border-box; vertical-align: inherit; font-size: 17px;&quot;&gt;&lt;font style=&quot;box-sizing: border-box; vertical-align: inherit; font-size: 17px;&quot;&gt;шаблон стратегии&lt;/font&gt;&lt;/font&gt;&lt;/strong&gt;&lt;font style=&quot;box-sizing: border-box; vertical-align: inherit; font-size: 17px;&quot;&gt;&lt;font style=&quot;box-sizing: border-box; vertical-align: inherit; font-size: 17px;&quot;&gt;&amp;nbsp;&amp;nbsp;(также известный как&amp;nbsp;&amp;nbsp;&lt;/font&gt;&lt;/font&gt;&lt;strong style=&quot;box-sizing: border-box; margin: 0px; padding: 0px; border: 0px; vertical-align: baseline; font-size: 17px;&quot;&gt;&lt;font style=&quot;box-sizing: border-box; vertical-align: inherit; font-size: 17px;&quot;&gt;&lt;font style=&quot;box-sizing: border-box; vertical-align: inherit; font-size: 17px;&quot;&gt;шаблон политики&lt;/font&gt;&lt;/font&gt;&lt;/strong&gt;&lt;font style=&quot;box-sizing: border-box; vertical-align: inherit; font-size: 17px;&quot;&gt;&lt;font style=&quot;box-sizing: border-box; vertical-align: inherit; font-size: 17px;&quot;&gt;&amp;nbsp;)&amp;nbsp;&lt;/font&gt;&lt;/font&gt;&lt;/i&gt;&lt;/p&gt;&lt;p style=&quot;box-sizing: border-box; margin: 0px 0px 10px; padding: 0px; border: 0px; font-size: 17px; vertical-align: baseline; color: rgb(39, 50, 57); font-family: Nunito, sans-serif; letter-spacing: 0.162px; background-color: rgb(255, 255, 255); text-align: justify;&quot;&gt;&lt;i style=&quot;box-sizing: border-box; margin: 0px; padding: 0px; border: 0px; vertical-align: baseline; font-size: 17px;&quot;&gt;&lt;font style=&quot;box-sizing: border-box; vertical-align: inherit; font-size: 17px;&quot;&gt;&lt;font style=&quot;box-sizing: border-box; vertical-align: inherit; font-size: 17px;&quot;&gt;— это шаблон проектирования программного обеспечения,&amp;nbsp;&lt;/font&gt;&lt;/font&gt;&lt;/i&gt;&lt;/p&gt;&lt;p style=&quot;box-sizing: border-box; margin: 0px 0px 10px; padding: 0px; border: 0px; font-size: 17px; vertical-align: baseline; color: rgb(39, 50, 57); font-family: Nunito, sans-serif; letter-spacing: 0.162px; background-color: rgb(255, 255, 255); text-align: justify;&quot;&gt;&lt;i style=&quot;box-sizing: border-box; margin: 0px; padding: 0px; border: 0px; vertical-align: baseline; font-size: 17px;&quot;&gt;&lt;font style=&quot;box-sizing: border-box; vertical-align: inherit; font-size: 17px;&quot;&gt;&lt;font style=&quot;box-sizing: border-box; vertical-align: inherit; font-size: 17px;&quot;&gt;который позволяет выбирать поведение алгоритма во время выполнения.&amp;nbsp;&lt;/font&gt;&lt;font style=&quot;box-sizing: border-box; vertical-align: inherit; font-size: 17px;&quot;&gt;Модель стратегии&lt;/font&gt;&lt;/font&gt;&lt;/i&gt;&lt;/p&gt;&lt;ul style=&quot;box-sizing: border-box; margin: 0px 0px 24px; padding: 0px; border: 0px; font-size: 17px; vertical-align: baseline; list-style-position: outside; list-style-image: initial; display: flex; flex-direction: column; color: rgb(39, 50, 57); font-family: Nunito, sans-serif; letter-spacing: 0.162px; text-align: left; background-color: rgb(255, 255, 255);&quot;&gt;&lt;li style=&quot;box-sizing: border-box; margin: 0px 0px 0px 24px; padding: 0px; border: 0px; vertical-align: baseline; text-align: justify; line-height: 1.58; color: var(--color-black); font-size: 17px;&quot;&gt;&lt;i style=&quot;box-sizing: border-box; margin: 0px; padding: 0px; border: 0px; vertical-align: baseline; font-size: 17px;&quot;&gt;определяет семейство алгоритмов,&lt;/i&gt;&lt;/li&gt;&lt;li style=&quot;box-sizing: border-box; margin: 0px 0px 0px 24px; padding: 0px; border: 0px; vertical-align: baseline; text-align: justify; line-height: 1.58; color: var(--color-black); font-size: 17px;&quot;&gt;&lt;i style=&quot;box-sizing: border-box; margin: 0px; padding: 0px; border: 0px; vertical-align: baseline; font-size: 17px;&quot;&gt;инкапсулирует каждый алгоритм и&lt;/i&gt;&lt;/li&gt;&lt;li style=&quot;box-sizing: border-box; margin: 0px 0px 0px 24px; padding: 0px; border: 0px; vertical-align: baseline; text-align: justify; line-height: 1.58; color: var(--color-black); font-size: 17px;&quot;&gt;&lt;i style=&quot;box-sizing: border-box; margin: 0px; padding: 0px; border: 0px; vertical-align: baseline; font-size: 17px;&quot;&gt;делает алгоритмы взаимозаменяемыми внутри этого семейства».&lt;/i&gt;&lt;/li&gt;&lt;/ul&gt;" style="text;html=1;align=center;verticalAlign=middle;resizable=0;points=[];autosize=1;strokeColor=none;fillColor=none;fontStyle=1;fontSize=17;" vertex="1" parent="1">
          <mxGeometry x="-20" y="3930" width="940" height="210" as="geometry" />
        </mxCell>
      </root>
    </mxGraphModel>
  </diagram>
</mxfile>
